%TF.GenerationSoftware,KiCad,Pcbnew,(7.0.0)*%
%TF.CreationDate,2024-12-23T20:55:22+00:00*%
%TF.ProjectId,5v Voltage Regulator,35762056-6f6c-4746-9167-652052656775,rev?*%
%TF.SameCoordinates,Original*%
%TF.FileFunction,Legend,Bot*%
%TF.FilePolarity,Positive*%
%FSLAX46Y46*%
G04 Gerber Fmt 4.6, Leading zero omitted, Abs format (unit mm)*
G04 Created by KiCad (PCBNEW (7.0.0)) date 2024-12-23 20:55:22*
%MOMM*%
%LPD*%
G01*
G04 APERTURE LIST*
%ADD10C,0.010000*%
G04 APERTURE END LIST*
%TO.C,REF\u002A\u002A*%
G36*
X193783900Y-117685934D02*
G01*
X193785994Y-117742711D01*
X193785268Y-117820158D01*
X193776689Y-117971594D01*
X193757833Y-118108283D01*
X193727837Y-118234276D01*
X193685836Y-118353625D01*
X193630969Y-118470381D01*
X193564167Y-118581179D01*
X193473363Y-118694739D01*
X193369708Y-118790211D01*
X193253887Y-118867073D01*
X193126586Y-118924797D01*
X192988489Y-118962858D01*
X192950793Y-118968666D01*
X192871752Y-118974396D01*
X192783629Y-118974583D01*
X192694236Y-118969539D01*
X192611384Y-118959578D01*
X192542887Y-118945012D01*
X192512035Y-118935364D01*
X192434730Y-118905123D01*
X192357679Y-118867617D01*
X192288200Y-118826614D01*
X192233615Y-118785879D01*
X192210916Y-118766505D01*
X192188201Y-118748662D01*
X192176779Y-118741778D01*
X192175537Y-118743424D01*
X192172728Y-118761205D01*
X192170776Y-118794370D01*
X192170045Y-118837733D01*
X192170045Y-118933689D01*
X191311896Y-118933689D01*
X191346161Y-118872974D01*
X191351355Y-118863868D01*
X191359715Y-118849249D01*
X191367288Y-118835173D01*
X191374112Y-118820540D01*
X191380227Y-118804249D01*
X191385673Y-118785198D01*
X191390487Y-118762286D01*
X191394708Y-118734413D01*
X191398377Y-118700478D01*
X191401531Y-118659379D01*
X191404211Y-118610015D01*
X191406454Y-118551286D01*
X191408299Y-118482090D01*
X191409787Y-118401326D01*
X191410955Y-118307894D01*
X191411678Y-118220721D01*
X192215200Y-118220721D01*
X192285756Y-118267089D01*
X192326417Y-118290791D01*
X192380546Y-118316639D01*
X192429689Y-118334829D01*
X192493165Y-118350551D01*
X192589331Y-118361541D01*
X192673900Y-118353365D01*
X192747219Y-118325805D01*
X192809637Y-118278642D01*
X192861502Y-118211658D01*
X192903160Y-118124633D01*
X192934962Y-118017350D01*
X192937545Y-118005009D01*
X192946000Y-117943772D01*
X192951663Y-117866692D01*
X192954576Y-117779002D01*
X192954783Y-117685934D01*
X192952330Y-117592720D01*
X192947261Y-117504594D01*
X192939619Y-117426788D01*
X192929448Y-117364533D01*
X192928167Y-117358666D01*
X192899126Y-117248121D01*
X192864610Y-117157575D01*
X192823456Y-117084953D01*
X192774499Y-117028181D01*
X192716574Y-116985184D01*
X192684620Y-116969615D01*
X192611784Y-116950722D01*
X192530443Y-116947465D01*
X192445319Y-116959389D01*
X192361133Y-116986040D01*
X192282608Y-117026962D01*
X192215200Y-117070530D01*
X192215200Y-118220721D01*
X191411678Y-118220721D01*
X191411844Y-118200692D01*
X191412491Y-118078620D01*
X191412936Y-117940576D01*
X191413218Y-117785459D01*
X191413375Y-117612168D01*
X191413448Y-117419603D01*
X191413474Y-117206662D01*
X191413493Y-116972245D01*
X191413689Y-115287378D01*
X192319017Y-115287378D01*
X192294585Y-115324067D01*
X192288318Y-115333647D01*
X192262208Y-115379981D01*
X192244469Y-115427102D01*
X192232908Y-115482251D01*
X192225331Y-115552667D01*
X192224839Y-115559650D01*
X192223062Y-115597641D01*
X192221444Y-115651576D01*
X192219999Y-115718703D01*
X192218740Y-115796271D01*
X192217680Y-115881528D01*
X192216829Y-115971724D01*
X192216203Y-116064107D01*
X192215812Y-116155925D01*
X192215670Y-116244427D01*
X192215790Y-116326862D01*
X192216183Y-116400479D01*
X192216862Y-116462526D01*
X192217841Y-116510251D01*
X192219132Y-116540904D01*
X192220747Y-116551733D01*
X192228957Y-116547333D01*
X192250647Y-116532362D01*
X192280014Y-116510448D01*
X192328879Y-116476236D01*
X192417125Y-116429714D01*
X192515916Y-116396046D01*
X192628510Y-116374231D01*
X192758164Y-116363265D01*
X192850670Y-116362219D01*
X192972011Y-116372014D01*
X193082099Y-116396174D01*
X193185389Y-116435785D01*
X193286338Y-116491932D01*
X193331503Y-116522883D01*
X193436911Y-116614115D01*
X193528538Y-116723106D01*
X193606332Y-116849726D01*
X193670241Y-116993845D01*
X193720214Y-117155332D01*
X193756198Y-117334059D01*
X193778143Y-117529895D01*
X193783900Y-117685934D01*
G37*
D10*
X193783900Y-117685934D02*
X193785994Y-117742711D01*
X193785268Y-117820158D01*
X193776689Y-117971594D01*
X193757833Y-118108283D01*
X193727837Y-118234276D01*
X193685836Y-118353625D01*
X193630969Y-118470381D01*
X193564167Y-118581179D01*
X193473363Y-118694739D01*
X193369708Y-118790211D01*
X193253887Y-118867073D01*
X193126586Y-118924797D01*
X192988489Y-118962858D01*
X192950793Y-118968666D01*
X192871752Y-118974396D01*
X192783629Y-118974583D01*
X192694236Y-118969539D01*
X192611384Y-118959578D01*
X192542887Y-118945012D01*
X192512035Y-118935364D01*
X192434730Y-118905123D01*
X192357679Y-118867617D01*
X192288200Y-118826614D01*
X192233615Y-118785879D01*
X192210916Y-118766505D01*
X192188201Y-118748662D01*
X192176779Y-118741778D01*
X192175537Y-118743424D01*
X192172728Y-118761205D01*
X192170776Y-118794370D01*
X192170045Y-118837733D01*
X192170045Y-118933689D01*
X191311896Y-118933689D01*
X191346161Y-118872974D01*
X191351355Y-118863868D01*
X191359715Y-118849249D01*
X191367288Y-118835173D01*
X191374112Y-118820540D01*
X191380227Y-118804249D01*
X191385673Y-118785198D01*
X191390487Y-118762286D01*
X191394708Y-118734413D01*
X191398377Y-118700478D01*
X191401531Y-118659379D01*
X191404211Y-118610015D01*
X191406454Y-118551286D01*
X191408299Y-118482090D01*
X191409787Y-118401326D01*
X191410955Y-118307894D01*
X191411678Y-118220721D01*
X192215200Y-118220721D01*
X192285756Y-118267089D01*
X192326417Y-118290791D01*
X192380546Y-118316639D01*
X192429689Y-118334829D01*
X192493165Y-118350551D01*
X192589331Y-118361541D01*
X192673900Y-118353365D01*
X192747219Y-118325805D01*
X192809637Y-118278642D01*
X192861502Y-118211658D01*
X192903160Y-118124633D01*
X192934962Y-118017350D01*
X192937545Y-118005009D01*
X192946000Y-117943772D01*
X192951663Y-117866692D01*
X192954576Y-117779002D01*
X192954783Y-117685934D01*
X192952330Y-117592720D01*
X192947261Y-117504594D01*
X192939619Y-117426788D01*
X192929448Y-117364533D01*
X192928167Y-117358666D01*
X192899126Y-117248121D01*
X192864610Y-117157575D01*
X192823456Y-117084953D01*
X192774499Y-117028181D01*
X192716574Y-116985184D01*
X192684620Y-116969615D01*
X192611784Y-116950722D01*
X192530443Y-116947465D01*
X192445319Y-116959389D01*
X192361133Y-116986040D01*
X192282608Y-117026962D01*
X192215200Y-117070530D01*
X192215200Y-118220721D01*
X191411678Y-118220721D01*
X191411844Y-118200692D01*
X191412491Y-118078620D01*
X191412936Y-117940576D01*
X191413218Y-117785459D01*
X191413375Y-117612168D01*
X191413448Y-117419603D01*
X191413474Y-117206662D01*
X191413493Y-116972245D01*
X191413689Y-115287378D01*
X192319017Y-115287378D01*
X192294585Y-115324067D01*
X192288318Y-115333647D01*
X192262208Y-115379981D01*
X192244469Y-115427102D01*
X192232908Y-115482251D01*
X192225331Y-115552667D01*
X192224839Y-115559650D01*
X192223062Y-115597641D01*
X192221444Y-115651576D01*
X192219999Y-115718703D01*
X192218740Y-115796271D01*
X192217680Y-115881528D01*
X192216829Y-115971724D01*
X192216203Y-116064107D01*
X192215812Y-116155925D01*
X192215670Y-116244427D01*
X192215790Y-116326862D01*
X192216183Y-116400479D01*
X192216862Y-116462526D01*
X192217841Y-116510251D01*
X192219132Y-116540904D01*
X192220747Y-116551733D01*
X192228957Y-116547333D01*
X192250647Y-116532362D01*
X192280014Y-116510448D01*
X192328879Y-116476236D01*
X192417125Y-116429714D01*
X192515916Y-116396046D01*
X192628510Y-116374231D01*
X192758164Y-116363265D01*
X192850670Y-116362219D01*
X192972011Y-116372014D01*
X193082099Y-116396174D01*
X193185389Y-116435785D01*
X193286338Y-116491932D01*
X193331503Y-116522883D01*
X193436911Y-116614115D01*
X193528538Y-116723106D01*
X193606332Y-116849726D01*
X193670241Y-116993845D01*
X193720214Y-117155332D01*
X193756198Y-117334059D01*
X193778143Y-117529895D01*
X193783900Y-117685934D01*
G36*
X192755767Y-119769068D02*
G01*
X192849890Y-119769158D01*
X192924405Y-119769498D01*
X192981811Y-119770239D01*
X193024611Y-119771535D01*
X193055304Y-119773537D01*
X193076391Y-119776396D01*
X193090373Y-119780266D01*
X193099750Y-119785298D01*
X193107022Y-119791645D01*
X193125828Y-119824362D01*
X193127275Y-119861939D01*
X193110917Y-119895178D01*
X193109557Y-119896631D01*
X193098354Y-119904992D01*
X193081252Y-119910547D01*
X193054082Y-119913840D01*
X193012678Y-119915418D01*
X192952873Y-119915822D01*
X192813511Y-119915822D01*
X192813511Y-120179589D01*
X192813436Y-120255417D01*
X192813028Y-120322083D01*
X192812046Y-120371867D01*
X192810250Y-120407784D01*
X192807399Y-120432850D01*
X192803253Y-120450081D01*
X192797571Y-120462492D01*
X192790114Y-120473100D01*
X192787824Y-120475906D01*
X192756646Y-120498548D01*
X192722266Y-120500112D01*
X192689334Y-120480267D01*
X192682355Y-120472191D01*
X192676883Y-120461593D01*
X192672863Y-120445749D01*
X192670072Y-120421773D01*
X192668288Y-120386774D01*
X192667289Y-120337864D01*
X192666852Y-120272154D01*
X192666756Y-120186756D01*
X192666756Y-119915822D01*
X192520820Y-119915822D01*
X192509720Y-119915821D01*
X192453202Y-119915596D01*
X192414358Y-119914457D01*
X192388965Y-119911657D01*
X192372804Y-119906450D01*
X192361652Y-119898089D01*
X192351289Y-119885826D01*
X192335441Y-119855138D01*
X192338543Y-119821358D01*
X192364187Y-119788822D01*
X192369129Y-119785105D01*
X192379338Y-119780269D01*
X192394764Y-119776506D01*
X192417886Y-119773683D01*
X192451183Y-119771670D01*
X192497137Y-119770333D01*
X192558228Y-119769542D01*
X192636935Y-119769163D01*
X192735740Y-119769067D01*
X192755767Y-119769068D01*
G37*
X192755767Y-119769068D02*
X192849890Y-119769158D01*
X192924405Y-119769498D01*
X192981811Y-119770239D01*
X193024611Y-119771535D01*
X193055304Y-119773537D01*
X193076391Y-119776396D01*
X193090373Y-119780266D01*
X193099750Y-119785298D01*
X193107022Y-119791645D01*
X193125828Y-119824362D01*
X193127275Y-119861939D01*
X193110917Y-119895178D01*
X193109557Y-119896631D01*
X193098354Y-119904992D01*
X193081252Y-119910547D01*
X193054082Y-119913840D01*
X193012678Y-119915418D01*
X192952873Y-119915822D01*
X192813511Y-119915822D01*
X192813511Y-120179589D01*
X192813436Y-120255417D01*
X192813028Y-120322083D01*
X192812046Y-120371867D01*
X192810250Y-120407784D01*
X192807399Y-120432850D01*
X192803253Y-120450081D01*
X192797571Y-120462492D01*
X192790114Y-120473100D01*
X192787824Y-120475906D01*
X192756646Y-120498548D01*
X192722266Y-120500112D01*
X192689334Y-120480267D01*
X192682355Y-120472191D01*
X192676883Y-120461593D01*
X192672863Y-120445749D01*
X192670072Y-120421773D01*
X192668288Y-120386774D01*
X192667289Y-120337864D01*
X192666852Y-120272154D01*
X192666756Y-120186756D01*
X192666756Y-119915822D01*
X192520820Y-119915822D01*
X192509720Y-119915821D01*
X192453202Y-119915596D01*
X192414358Y-119914457D01*
X192388965Y-119911657D01*
X192372804Y-119906450D01*
X192361652Y-119898089D01*
X192351289Y-119885826D01*
X192335441Y-119855138D01*
X192338543Y-119821358D01*
X192364187Y-119788822D01*
X192369129Y-119785105D01*
X192379338Y-119780269D01*
X192394764Y-119776506D01*
X192417886Y-119773683D01*
X192451183Y-119771670D01*
X192497137Y-119770333D01*
X192558228Y-119769542D01*
X192636935Y-119769163D01*
X192735740Y-119769067D01*
X192755767Y-119769068D01*
G36*
X203875857Y-119915822D02*
G01*
X203876817Y-119954427D01*
X203876870Y-120035041D01*
X203876622Y-120135956D01*
X203876583Y-120211617D01*
X203876328Y-120289526D01*
X203875684Y-120349536D01*
X203874480Y-120394264D01*
X203872543Y-120426326D01*
X203869703Y-120448340D01*
X203865788Y-120462924D01*
X203860626Y-120472694D01*
X203854045Y-120480267D01*
X203847077Y-120486501D01*
X203834079Y-120493801D01*
X203814931Y-120498554D01*
X203785528Y-120501292D01*
X203741762Y-120502545D01*
X203679528Y-120502845D01*
X203630582Y-120502469D01*
X203523722Y-120498041D01*
X203434494Y-120487953D01*
X203359696Y-120471365D01*
X203296125Y-120447435D01*
X203240579Y-120415321D01*
X203189854Y-120374182D01*
X203183866Y-120368330D01*
X203146999Y-120319821D01*
X203115899Y-120259013D01*
X203094417Y-120194769D01*
X203089136Y-120156026D01*
X203236353Y-120156026D01*
X203254635Y-120206961D01*
X203284305Y-120252878D01*
X203331002Y-120295287D01*
X203392392Y-120325090D01*
X203471538Y-120344226D01*
X203473028Y-120344464D01*
X203521999Y-120350256D01*
X203580693Y-120354396D01*
X203636734Y-120356004D01*
X203729867Y-120356089D01*
X203729867Y-119915822D01*
X203653667Y-119915808D01*
X203650639Y-119915817D01*
X203599519Y-119917782D01*
X203539416Y-119922507D01*
X203482708Y-119929035D01*
X203432750Y-119938331D01*
X203357998Y-119964600D01*
X203300489Y-120003899D01*
X203258988Y-120056933D01*
X203237771Y-120108200D01*
X203236353Y-120156026D01*
X203089136Y-120156026D01*
X203086400Y-120135956D01*
X203087679Y-120114739D01*
X203099991Y-120057323D01*
X203122520Y-119997413D01*
X203151750Y-119943363D01*
X203184167Y-119903532D01*
X203203708Y-119886510D01*
X203258420Y-119847322D01*
X203318723Y-119817193D01*
X203387919Y-119795232D01*
X203469311Y-119780550D01*
X203566200Y-119772259D01*
X203681889Y-119769467D01*
X203721371Y-119769066D01*
X203767082Y-119768653D01*
X203802883Y-119770457D01*
X203829974Y-119776739D01*
X203849556Y-119789759D01*
X203862830Y-119811778D01*
X203870998Y-119845055D01*
X203875260Y-119891851D01*
X203875857Y-119915822D01*
G37*
X203875857Y-119915822D02*
X203876817Y-119954427D01*
X203876870Y-120035041D01*
X203876622Y-120135956D01*
X203876583Y-120211617D01*
X203876328Y-120289526D01*
X203875684Y-120349536D01*
X203874480Y-120394264D01*
X203872543Y-120426326D01*
X203869703Y-120448340D01*
X203865788Y-120462924D01*
X203860626Y-120472694D01*
X203854045Y-120480267D01*
X203847077Y-120486501D01*
X203834079Y-120493801D01*
X203814931Y-120498554D01*
X203785528Y-120501292D01*
X203741762Y-120502545D01*
X203679528Y-120502845D01*
X203630582Y-120502469D01*
X203523722Y-120498041D01*
X203434494Y-120487953D01*
X203359696Y-120471365D01*
X203296125Y-120447435D01*
X203240579Y-120415321D01*
X203189854Y-120374182D01*
X203183866Y-120368330D01*
X203146999Y-120319821D01*
X203115899Y-120259013D01*
X203094417Y-120194769D01*
X203089136Y-120156026D01*
X203236353Y-120156026D01*
X203254635Y-120206961D01*
X203284305Y-120252878D01*
X203331002Y-120295287D01*
X203392392Y-120325090D01*
X203471538Y-120344226D01*
X203473028Y-120344464D01*
X203521999Y-120350256D01*
X203580693Y-120354396D01*
X203636734Y-120356004D01*
X203729867Y-120356089D01*
X203729867Y-119915822D01*
X203653667Y-119915808D01*
X203650639Y-119915817D01*
X203599519Y-119917782D01*
X203539416Y-119922507D01*
X203482708Y-119929035D01*
X203432750Y-119938331D01*
X203357998Y-119964600D01*
X203300489Y-120003899D01*
X203258988Y-120056933D01*
X203237771Y-120108200D01*
X203236353Y-120156026D01*
X203089136Y-120156026D01*
X203086400Y-120135956D01*
X203087679Y-120114739D01*
X203099991Y-120057323D01*
X203122520Y-119997413D01*
X203151750Y-119943363D01*
X203184167Y-119903532D01*
X203203708Y-119886510D01*
X203258420Y-119847322D01*
X203318723Y-119817193D01*
X203387919Y-119795232D01*
X203469311Y-119780550D01*
X203566200Y-119772259D01*
X203681889Y-119769467D01*
X203721371Y-119769066D01*
X203767082Y-119768653D01*
X203802883Y-119770457D01*
X203829974Y-119776739D01*
X203849556Y-119789759D01*
X203862830Y-119811778D01*
X203870998Y-119845055D01*
X203875260Y-119891851D01*
X203875857Y-119915822D01*
G36*
X193889702Y-119778478D02*
G01*
X193907663Y-119796989D01*
X193928263Y-119828071D01*
X193953095Y-119873756D01*
X193983750Y-119936078D01*
X194021820Y-120017071D01*
X194036454Y-120048454D01*
X194066203Y-120111638D01*
X194092297Y-120166244D01*
X194113292Y-120209290D01*
X194127739Y-120237793D01*
X194134191Y-120248770D01*
X194135550Y-120248189D01*
X194145542Y-120234242D01*
X194162833Y-120204704D01*
X194185430Y-120163087D01*
X194211338Y-120112903D01*
X194227311Y-120081414D01*
X194256261Y-120026061D01*
X194278749Y-119987044D01*
X194296965Y-119961566D01*
X194313096Y-119946831D01*
X194329330Y-119940042D01*
X194347857Y-119938400D01*
X194358360Y-119938875D01*
X194374476Y-119943082D01*
X194389790Y-119953946D01*
X194406388Y-119974219D01*
X194426357Y-120006654D01*
X194451783Y-120054004D01*
X194484752Y-120119022D01*
X194494485Y-120138277D01*
X194518943Y-120184946D01*
X194539178Y-120221109D01*
X194553311Y-120243497D01*
X194559460Y-120248845D01*
X194560827Y-120245573D01*
X194570202Y-120224664D01*
X194587062Y-120187725D01*
X194609979Y-120137874D01*
X194637520Y-120078226D01*
X194668255Y-120011898D01*
X194694970Y-119954677D01*
X194724593Y-119892688D01*
X194747664Y-119846949D01*
X194765643Y-119814908D01*
X194779990Y-119794014D01*
X194792166Y-119781718D01*
X194803632Y-119775466D01*
X194813042Y-119772574D01*
X194838147Y-119772425D01*
X194865290Y-119787768D01*
X194866590Y-119788753D01*
X194888674Y-119811388D01*
X194899723Y-119833613D01*
X194899769Y-119834253D01*
X194895228Y-119851915D01*
X194882364Y-119886481D01*
X194862605Y-119934826D01*
X194837381Y-119993825D01*
X194808119Y-120060355D01*
X194776250Y-120131291D01*
X194743201Y-120203507D01*
X194710401Y-120273880D01*
X194679280Y-120339285D01*
X194651265Y-120396597D01*
X194627786Y-120442692D01*
X194610272Y-120474446D01*
X194600151Y-120488733D01*
X194565743Y-120502102D01*
X194524046Y-120495741D01*
X194518681Y-120491044D01*
X194502852Y-120468893D01*
X194480650Y-120432132D01*
X194454233Y-120384415D01*
X194425760Y-120329393D01*
X194345986Y-120170150D01*
X194272799Y-120316742D01*
X194263103Y-120336032D01*
X194236125Y-120388380D01*
X194212096Y-120433170D01*
X194193332Y-120466154D01*
X194182146Y-120483089D01*
X194181000Y-120484332D01*
X194152879Y-120499619D01*
X194117817Y-120501302D01*
X194086776Y-120488733D01*
X194084350Y-120485884D01*
X194072090Y-120465259D01*
X194052352Y-120427708D01*
X194026448Y-120375880D01*
X193995685Y-120312423D01*
X193961375Y-120239985D01*
X193924825Y-120161216D01*
X193904585Y-120117093D01*
X193867812Y-120036365D01*
X193839355Y-119972687D01*
X193818331Y-119923752D01*
X193803854Y-119887257D01*
X193795039Y-119860895D01*
X193791004Y-119842361D01*
X193790862Y-119829352D01*
X193793730Y-119819561D01*
X193808387Y-119798678D01*
X193834990Y-119778377D01*
X193835745Y-119778035D01*
X193855335Y-119771034D01*
X193872790Y-119770504D01*
X193889702Y-119778478D01*
G37*
X193889702Y-119778478D02*
X193907663Y-119796989D01*
X193928263Y-119828071D01*
X193953095Y-119873756D01*
X193983750Y-119936078D01*
X194021820Y-120017071D01*
X194036454Y-120048454D01*
X194066203Y-120111638D01*
X194092297Y-120166244D01*
X194113292Y-120209290D01*
X194127739Y-120237793D01*
X194134191Y-120248770D01*
X194135550Y-120248189D01*
X194145542Y-120234242D01*
X194162833Y-120204704D01*
X194185430Y-120163087D01*
X194211338Y-120112903D01*
X194227311Y-120081414D01*
X194256261Y-120026061D01*
X194278749Y-119987044D01*
X194296965Y-119961566D01*
X194313096Y-119946831D01*
X194329330Y-119940042D01*
X194347857Y-119938400D01*
X194358360Y-119938875D01*
X194374476Y-119943082D01*
X194389790Y-119953946D01*
X194406388Y-119974219D01*
X194426357Y-120006654D01*
X194451783Y-120054004D01*
X194484752Y-120119022D01*
X194494485Y-120138277D01*
X194518943Y-120184946D01*
X194539178Y-120221109D01*
X194553311Y-120243497D01*
X194559460Y-120248845D01*
X194560827Y-120245573D01*
X194570202Y-120224664D01*
X194587062Y-120187725D01*
X194609979Y-120137874D01*
X194637520Y-120078226D01*
X194668255Y-120011898D01*
X194694970Y-119954677D01*
X194724593Y-119892688D01*
X194747664Y-119846949D01*
X194765643Y-119814908D01*
X194779990Y-119794014D01*
X194792166Y-119781718D01*
X194803632Y-119775466D01*
X194813042Y-119772574D01*
X194838147Y-119772425D01*
X194865290Y-119787768D01*
X194866590Y-119788753D01*
X194888674Y-119811388D01*
X194899723Y-119833613D01*
X194899769Y-119834253D01*
X194895228Y-119851915D01*
X194882364Y-119886481D01*
X194862605Y-119934826D01*
X194837381Y-119993825D01*
X194808119Y-120060355D01*
X194776250Y-120131291D01*
X194743201Y-120203507D01*
X194710401Y-120273880D01*
X194679280Y-120339285D01*
X194651265Y-120396597D01*
X194627786Y-120442692D01*
X194610272Y-120474446D01*
X194600151Y-120488733D01*
X194565743Y-120502102D01*
X194524046Y-120495741D01*
X194518681Y-120491044D01*
X194502852Y-120468893D01*
X194480650Y-120432132D01*
X194454233Y-120384415D01*
X194425760Y-120329393D01*
X194345986Y-120170150D01*
X194272799Y-120316742D01*
X194263103Y-120336032D01*
X194236125Y-120388380D01*
X194212096Y-120433170D01*
X194193332Y-120466154D01*
X194182146Y-120483089D01*
X194181000Y-120484332D01*
X194152879Y-120499619D01*
X194117817Y-120501302D01*
X194086776Y-120488733D01*
X194084350Y-120485884D01*
X194072090Y-120465259D01*
X194052352Y-120427708D01*
X194026448Y-120375880D01*
X193995685Y-120312423D01*
X193961375Y-120239985D01*
X193924825Y-120161216D01*
X193904585Y-120117093D01*
X193867812Y-120036365D01*
X193839355Y-119972687D01*
X193818331Y-119923752D01*
X193803854Y-119887257D01*
X193795039Y-119860895D01*
X193791004Y-119842361D01*
X193790862Y-119829352D01*
X193793730Y-119819561D01*
X193808387Y-119798678D01*
X193834990Y-119778377D01*
X193835745Y-119778035D01*
X193855335Y-119771034D01*
X193872790Y-119770504D01*
X193889702Y-119778478D01*
G36*
X203875034Y-115501867D02*
G01*
X203875614Y-115611792D01*
X203876059Y-115743011D01*
X203876362Y-115890216D01*
X203876548Y-116054349D01*
X203876642Y-116236352D01*
X203876671Y-116437165D01*
X203876661Y-116657732D01*
X203876636Y-116898992D01*
X203876622Y-117161889D01*
X203876622Y-117204040D01*
X203876646Y-117464668D01*
X203876685Y-117703796D01*
X203876708Y-117922360D01*
X203876687Y-118121295D01*
X203876593Y-118301535D01*
X203876395Y-118464015D01*
X203876063Y-118609670D01*
X203875569Y-118739434D01*
X203874883Y-118854243D01*
X203873976Y-118955030D01*
X203872817Y-119042730D01*
X203871378Y-119118279D01*
X203869629Y-119182611D01*
X203867540Y-119236661D01*
X203865083Y-119281363D01*
X203862227Y-119317652D01*
X203858943Y-119346463D01*
X203855202Y-119368731D01*
X203850974Y-119385390D01*
X203846229Y-119397375D01*
X203840939Y-119405621D01*
X203835073Y-119411062D01*
X203828602Y-119414634D01*
X203821497Y-119417270D01*
X203813728Y-119419906D01*
X203805266Y-119423477D01*
X203800908Y-119425145D01*
X203792395Y-119427111D01*
X203779694Y-119428911D01*
X203761885Y-119430555D01*
X203738049Y-119432047D01*
X203707266Y-119433397D01*
X203668617Y-119434611D01*
X203621182Y-119435697D01*
X203564043Y-119436661D01*
X203496279Y-119437511D01*
X203416971Y-119438253D01*
X203325199Y-119438897D01*
X203220044Y-119439447D01*
X203100587Y-119439913D01*
X202965908Y-119440300D01*
X202815088Y-119440616D01*
X202647206Y-119440869D01*
X202461345Y-119441066D01*
X202256583Y-119441213D01*
X202032002Y-119441318D01*
X201786682Y-119441389D01*
X201519704Y-119441432D01*
X201481321Y-119441437D01*
X201215922Y-119441480D01*
X200972050Y-119441525D01*
X200748783Y-119441548D01*
X200545196Y-119441524D01*
X200360367Y-119441430D01*
X200193373Y-119441243D01*
X200043290Y-119440939D01*
X199909196Y-119440494D01*
X199790166Y-119439885D01*
X199685279Y-119439089D01*
X199593610Y-119438080D01*
X199514237Y-119436837D01*
X199446237Y-119435335D01*
X199388686Y-119433551D01*
X199340662Y-119431461D01*
X199301240Y-119429042D01*
X199269499Y-119426270D01*
X199244514Y-119423121D01*
X199225364Y-119419572D01*
X199211123Y-119415598D01*
X199200871Y-119411178D01*
X199193682Y-119406286D01*
X199188635Y-119400900D01*
X199184805Y-119394996D01*
X199181271Y-119388549D01*
X199177108Y-119381537D01*
X199176025Y-119379687D01*
X199173813Y-119374180D01*
X199171786Y-119365868D01*
X199169938Y-119353809D01*
X199168261Y-119337063D01*
X199166745Y-119314687D01*
X199165383Y-119285740D01*
X199164167Y-119249280D01*
X199163089Y-119204367D01*
X199162140Y-119150057D01*
X199161312Y-119085410D01*
X199160597Y-119009484D01*
X199159987Y-118921338D01*
X199159942Y-118912493D01*
X199451378Y-118912493D01*
X199455260Y-118913765D01*
X199478520Y-118915791D01*
X199520874Y-118917626D01*
X199580132Y-118919227D01*
X199654107Y-118920549D01*
X199740610Y-118921548D01*
X199837452Y-118922180D01*
X199942445Y-118922400D01*
X200640651Y-118922400D01*
X201795090Y-118922400D01*
X201794456Y-118846200D01*
X201795574Y-118804160D01*
X201801304Y-118768334D01*
X201813890Y-118730772D01*
X201835568Y-118682577D01*
X201838789Y-118675897D01*
X201864188Y-118626359D01*
X201890996Y-118578369D01*
X201913917Y-118541466D01*
X201918485Y-118534834D01*
X201940516Y-118503593D01*
X201972693Y-118458654D01*
X202013457Y-118402147D01*
X202061245Y-118336204D01*
X202114498Y-118262957D01*
X202171655Y-118184536D01*
X202231155Y-118103072D01*
X202291437Y-118020698D01*
X202350940Y-117939544D01*
X202408105Y-117861742D01*
X202461370Y-117789423D01*
X202509174Y-117724718D01*
X202549957Y-117669759D01*
X202582158Y-117626676D01*
X202604216Y-117597602D01*
X202614571Y-117584667D01*
X202619044Y-117580351D01*
X202623236Y-117578312D01*
X202626643Y-117580926D01*
X202629325Y-117589986D01*
X202631341Y-117607285D01*
X202632748Y-117634614D01*
X202633605Y-117673765D01*
X202633970Y-117726533D01*
X202633903Y-117794707D01*
X202633460Y-117880082D01*
X202632702Y-117984449D01*
X202631685Y-118109600D01*
X202631308Y-118154300D01*
X202630169Y-118275395D01*
X202628972Y-118376688D01*
X202627636Y-118460262D01*
X202626077Y-118528204D01*
X202624215Y-118582599D01*
X202621966Y-118625532D01*
X202619248Y-118659089D01*
X202615979Y-118685355D01*
X202612078Y-118706416D01*
X202607461Y-118724357D01*
X202599192Y-118750770D01*
X202575583Y-118812772D01*
X202549685Y-118865573D01*
X202524535Y-118902645D01*
X202523339Y-118904075D01*
X202521168Y-118908424D01*
X202523328Y-118912026D01*
X202531644Y-118914951D01*
X202547940Y-118917269D01*
X202574041Y-118919051D01*
X202611771Y-118920367D01*
X202662956Y-118921286D01*
X202729420Y-118921878D01*
X202812987Y-118922215D01*
X202915483Y-118922365D01*
X203038732Y-118922400D01*
X203570296Y-118922400D01*
X203531523Y-118864783D01*
X203525432Y-118855893D01*
X203514976Y-118841069D01*
X203505579Y-118827422D01*
X203497183Y-118813765D01*
X203489733Y-118798911D01*
X203483173Y-118781670D01*
X203477446Y-118760855D01*
X203472495Y-118735280D01*
X203468266Y-118703755D01*
X203464701Y-118665093D01*
X203461744Y-118618107D01*
X203459340Y-118561608D01*
X203457431Y-118494409D01*
X203455962Y-118415322D01*
X203454876Y-118323160D01*
X203454118Y-118216734D01*
X203453630Y-118094857D01*
X203453358Y-117956341D01*
X203453243Y-117799999D01*
X203453231Y-117624642D01*
X203453265Y-117429082D01*
X203453289Y-117212133D01*
X203453280Y-117089513D01*
X203453243Y-116884447D01*
X203453227Y-116700116D01*
X203453288Y-116535334D01*
X203453484Y-116388916D01*
X203453870Y-116259674D01*
X203454505Y-116146422D01*
X203455444Y-116047975D01*
X203456745Y-115963144D01*
X203458464Y-115890744D01*
X203460659Y-115829589D01*
X203463385Y-115778492D01*
X203466701Y-115736267D01*
X203470662Y-115701727D01*
X203475325Y-115673686D01*
X203480747Y-115650958D01*
X203486986Y-115632356D01*
X203494097Y-115616693D01*
X203502138Y-115602784D01*
X203511166Y-115589441D01*
X203521236Y-115575479D01*
X203532407Y-115559711D01*
X203572197Y-115501867D01*
X202512314Y-115501867D01*
X202550311Y-115564966D01*
X202564993Y-115590005D01*
X202579531Y-115617586D01*
X202591627Y-115645700D01*
X202601532Y-115676551D01*
X202609494Y-115712344D01*
X202615761Y-115755283D01*
X202620582Y-115807574D01*
X202624206Y-115871419D01*
X202626881Y-115949025D01*
X202628857Y-116042594D01*
X202630382Y-116154333D01*
X202631704Y-116286445D01*
X202632613Y-116406434D01*
X202633020Y-116523063D01*
X202632767Y-116618531D01*
X202631857Y-116692556D01*
X202630293Y-116744855D01*
X202628079Y-116775149D01*
X202625220Y-116783156D01*
X202622161Y-116779858D01*
X202604006Y-116758408D01*
X202574275Y-116721889D01*
X202534639Y-116672442D01*
X202486771Y-116612207D01*
X202432343Y-116543327D01*
X202373027Y-116467943D01*
X202310495Y-116388196D01*
X202246421Y-116306228D01*
X202182475Y-116224180D01*
X202120331Y-116144194D01*
X202061661Y-116068411D01*
X202008137Y-115998973D01*
X201961430Y-115938021D01*
X201923214Y-115887696D01*
X201895161Y-115850140D01*
X201878943Y-115827495D01*
X201833635Y-115755212D01*
X201793661Y-115675463D01*
X201772130Y-115607188D01*
X201768827Y-115549844D01*
X201774116Y-115501867D01*
X200642356Y-115502117D01*
X200681867Y-115532722D01*
X200691248Y-115540089D01*
X200754183Y-115594438D01*
X200822997Y-115662259D01*
X200899596Y-115745516D01*
X200985888Y-115846178D01*
X201003052Y-115866847D01*
X201043833Y-115916409D01*
X201093588Y-115977326D01*
X201150955Y-116047898D01*
X201214569Y-116126424D01*
X201283069Y-116211204D01*
X201355090Y-116300537D01*
X201429270Y-116392722D01*
X201444517Y-116411702D01*
X201504246Y-116486060D01*
X201578653Y-116578848D01*
X201651131Y-116669388D01*
X201720314Y-116755978D01*
X201784841Y-116836918D01*
X201843347Y-116910506D01*
X201894470Y-116975044D01*
X201936847Y-117028829D01*
X201969115Y-117070162D01*
X201989910Y-117097342D01*
X201997869Y-117108668D01*
X201996111Y-117112771D01*
X201983230Y-117133334D01*
X201958885Y-117169561D01*
X201924247Y-117219824D01*
X201880486Y-117282492D01*
X201828775Y-117355936D01*
X201770284Y-117438527D01*
X201706184Y-117528636D01*
X201637646Y-117624631D01*
X201565843Y-117724885D01*
X201491944Y-117827768D01*
X201417121Y-117931650D01*
X201342545Y-118034901D01*
X201269387Y-118135892D01*
X201198819Y-118232994D01*
X201132011Y-118324577D01*
X201070135Y-118409011D01*
X201014361Y-118484667D01*
X200965862Y-118549916D01*
X200925807Y-118603128D01*
X200895369Y-118642673D01*
X200874944Y-118668026D01*
X200828899Y-118722295D01*
X200778612Y-118778775D01*
X200731815Y-118828669D01*
X200640651Y-118922400D01*
X199942445Y-118922400D01*
X200011356Y-118922349D01*
X200109607Y-118922091D01*
X200199030Y-118921637D01*
X200277333Y-118921010D01*
X200342223Y-118920235D01*
X200391411Y-118919335D01*
X200422604Y-118918334D01*
X200433511Y-118917257D01*
X200432322Y-118914037D01*
X200422176Y-118896452D01*
X200405040Y-118870158D01*
X200396540Y-118857691D01*
X200387329Y-118843622D01*
X200379233Y-118829351D01*
X200372185Y-118813479D01*
X200366117Y-118794609D01*
X200360961Y-118771341D01*
X200356651Y-118742278D01*
X200353119Y-118706021D01*
X200350297Y-118661170D01*
X200348118Y-118606328D01*
X200346514Y-118540097D01*
X200345419Y-118461077D01*
X200344765Y-118367871D01*
X200344484Y-118259079D01*
X200344509Y-118133303D01*
X200344772Y-117989145D01*
X200345206Y-117825207D01*
X200345745Y-117640089D01*
X200346279Y-117461232D01*
X200346805Y-117302374D01*
X200347350Y-117163316D01*
X200347945Y-117042665D01*
X200348619Y-116939028D01*
X200349403Y-116851011D01*
X200350326Y-116777223D01*
X200351419Y-116716269D01*
X200352712Y-116666757D01*
X200354235Y-116627293D01*
X200356019Y-116596484D01*
X200358092Y-116572938D01*
X200360486Y-116555260D01*
X200363230Y-116542059D01*
X200366356Y-116531940D01*
X200369892Y-116523511D01*
X200373791Y-116515375D01*
X200393438Y-116478544D01*
X200412225Y-116448391D01*
X200413272Y-116446908D01*
X200427602Y-116424659D01*
X200433511Y-116411702D01*
X200432504Y-116411249D01*
X200415305Y-116409803D01*
X200378656Y-116408480D01*
X200324962Y-116407316D01*
X200256630Y-116406347D01*
X200176064Y-116405611D01*
X200085670Y-116405142D01*
X199987853Y-116404978D01*
X199542195Y-116404978D01*
X199539120Y-117581845D01*
X199536045Y-118758711D01*
X199509407Y-118817622D01*
X199497485Y-118842183D01*
X199480246Y-118872434D01*
X199467074Y-118889560D01*
X199459076Y-118897591D01*
X199451378Y-118912493D01*
X199159942Y-118912493D01*
X199159474Y-118820029D01*
X199159050Y-118704617D01*
X199158706Y-118574160D01*
X199158434Y-118427716D01*
X199158227Y-118264344D01*
X199158076Y-118083101D01*
X199157972Y-117883048D01*
X199157908Y-117663241D01*
X199157876Y-117422739D01*
X199157867Y-117160602D01*
X199157867Y-114969031D01*
X199196249Y-114930649D01*
X199223355Y-114906911D01*
X199250253Y-114895111D01*
X199286560Y-114892267D01*
X199338489Y-114892267D01*
X199338489Y-114980206D01*
X199340427Y-115030102D01*
X199359199Y-115140523D01*
X199396217Y-115241987D01*
X199449369Y-115333152D01*
X199516546Y-115412673D01*
X199595638Y-115479205D01*
X199684534Y-115531406D01*
X199781125Y-115567930D01*
X199883300Y-115587434D01*
X199988950Y-115588573D01*
X200095964Y-115570005D01*
X200202232Y-115530384D01*
X200299219Y-115472516D01*
X200384293Y-115397684D01*
X200453015Y-115309615D01*
X200503918Y-115210616D01*
X200535535Y-115102993D01*
X200546400Y-114989054D01*
X200546400Y-114892267D01*
X202166753Y-114892267D01*
X202377897Y-114892280D01*
X202582020Y-114892330D01*
X202765686Y-114892430D01*
X202929991Y-114892592D01*
X203076029Y-114892829D01*
X203204894Y-114893153D01*
X203317683Y-114893575D01*
X203415488Y-114894109D01*
X203499404Y-114894767D01*
X203570527Y-114895561D01*
X203629950Y-114896504D01*
X203678768Y-114897608D01*
X203718077Y-114898884D01*
X203748969Y-114900347D01*
X203772541Y-114902007D01*
X203789886Y-114903878D01*
X203802099Y-114905972D01*
X203810275Y-114908300D01*
X203815508Y-114910876D01*
X203821504Y-114914445D01*
X203828279Y-114917978D01*
X203834478Y-114921488D01*
X203840126Y-114925918D01*
X203845247Y-114932208D01*
X203849869Y-114941301D01*
X203854015Y-114954139D01*
X203857713Y-114971662D01*
X203860987Y-114994813D01*
X203863863Y-115024534D01*
X203866367Y-115061765D01*
X203868524Y-115107449D01*
X203870360Y-115162527D01*
X203871900Y-115227941D01*
X203873170Y-115304633D01*
X203874195Y-115393544D01*
X203875001Y-115495617D01*
X203875034Y-115501867D01*
G37*
X203875034Y-115501867D02*
X203875614Y-115611792D01*
X203876059Y-115743011D01*
X203876362Y-115890216D01*
X203876548Y-116054349D01*
X203876642Y-116236352D01*
X203876671Y-116437165D01*
X203876661Y-116657732D01*
X203876636Y-116898992D01*
X203876622Y-117161889D01*
X203876622Y-117204040D01*
X203876646Y-117464668D01*
X203876685Y-117703796D01*
X203876708Y-117922360D01*
X203876687Y-118121295D01*
X203876593Y-118301535D01*
X203876395Y-118464015D01*
X203876063Y-118609670D01*
X203875569Y-118739434D01*
X203874883Y-118854243D01*
X203873976Y-118955030D01*
X203872817Y-119042730D01*
X203871378Y-119118279D01*
X203869629Y-119182611D01*
X203867540Y-119236661D01*
X203865083Y-119281363D01*
X203862227Y-119317652D01*
X203858943Y-119346463D01*
X203855202Y-119368731D01*
X203850974Y-119385390D01*
X203846229Y-119397375D01*
X203840939Y-119405621D01*
X203835073Y-119411062D01*
X203828602Y-119414634D01*
X203821497Y-119417270D01*
X203813728Y-119419906D01*
X203805266Y-119423477D01*
X203800908Y-119425145D01*
X203792395Y-119427111D01*
X203779694Y-119428911D01*
X203761885Y-119430555D01*
X203738049Y-119432047D01*
X203707266Y-119433397D01*
X203668617Y-119434611D01*
X203621182Y-119435697D01*
X203564043Y-119436661D01*
X203496279Y-119437511D01*
X203416971Y-119438253D01*
X203325199Y-119438897D01*
X203220044Y-119439447D01*
X203100587Y-119439913D01*
X202965908Y-119440300D01*
X202815088Y-119440616D01*
X202647206Y-119440869D01*
X202461345Y-119441066D01*
X202256583Y-119441213D01*
X202032002Y-119441318D01*
X201786682Y-119441389D01*
X201519704Y-119441432D01*
X201481321Y-119441437D01*
X201215922Y-119441480D01*
X200972050Y-119441525D01*
X200748783Y-119441548D01*
X200545196Y-119441524D01*
X200360367Y-119441430D01*
X200193373Y-119441243D01*
X200043290Y-119440939D01*
X199909196Y-119440494D01*
X199790166Y-119439885D01*
X199685279Y-119439089D01*
X199593610Y-119438080D01*
X199514237Y-119436837D01*
X199446237Y-119435335D01*
X199388686Y-119433551D01*
X199340662Y-119431461D01*
X199301240Y-119429042D01*
X199269499Y-119426270D01*
X199244514Y-119423121D01*
X199225364Y-119419572D01*
X199211123Y-119415598D01*
X199200871Y-119411178D01*
X199193682Y-119406286D01*
X199188635Y-119400900D01*
X199184805Y-119394996D01*
X199181271Y-119388549D01*
X199177108Y-119381537D01*
X199176025Y-119379687D01*
X199173813Y-119374180D01*
X199171786Y-119365868D01*
X199169938Y-119353809D01*
X199168261Y-119337063D01*
X199166745Y-119314687D01*
X199165383Y-119285740D01*
X199164167Y-119249280D01*
X199163089Y-119204367D01*
X199162140Y-119150057D01*
X199161312Y-119085410D01*
X199160597Y-119009484D01*
X199159987Y-118921338D01*
X199159942Y-118912493D01*
X199451378Y-118912493D01*
X199455260Y-118913765D01*
X199478520Y-118915791D01*
X199520874Y-118917626D01*
X199580132Y-118919227D01*
X199654107Y-118920549D01*
X199740610Y-118921548D01*
X199837452Y-118922180D01*
X199942445Y-118922400D01*
X200640651Y-118922400D01*
X201795090Y-118922400D01*
X201794456Y-118846200D01*
X201795574Y-118804160D01*
X201801304Y-118768334D01*
X201813890Y-118730772D01*
X201835568Y-118682577D01*
X201838789Y-118675897D01*
X201864188Y-118626359D01*
X201890996Y-118578369D01*
X201913917Y-118541466D01*
X201918485Y-118534834D01*
X201940516Y-118503593D01*
X201972693Y-118458654D01*
X202013457Y-118402147D01*
X202061245Y-118336204D01*
X202114498Y-118262957D01*
X202171655Y-118184536D01*
X202231155Y-118103072D01*
X202291437Y-118020698D01*
X202350940Y-117939544D01*
X202408105Y-117861742D01*
X202461370Y-117789423D01*
X202509174Y-117724718D01*
X202549957Y-117669759D01*
X202582158Y-117626676D01*
X202604216Y-117597602D01*
X202614571Y-117584667D01*
X202619044Y-117580351D01*
X202623236Y-117578312D01*
X202626643Y-117580926D01*
X202629325Y-117589986D01*
X202631341Y-117607285D01*
X202632748Y-117634614D01*
X202633605Y-117673765D01*
X202633970Y-117726533D01*
X202633903Y-117794707D01*
X202633460Y-117880082D01*
X202632702Y-117984449D01*
X202631685Y-118109600D01*
X202631308Y-118154300D01*
X202630169Y-118275395D01*
X202628972Y-118376688D01*
X202627636Y-118460262D01*
X202626077Y-118528204D01*
X202624215Y-118582599D01*
X202621966Y-118625532D01*
X202619248Y-118659089D01*
X202615979Y-118685355D01*
X202612078Y-118706416D01*
X202607461Y-118724357D01*
X202599192Y-118750770D01*
X202575583Y-118812772D01*
X202549685Y-118865573D01*
X202524535Y-118902645D01*
X202523339Y-118904075D01*
X202521168Y-118908424D01*
X202523328Y-118912026D01*
X202531644Y-118914951D01*
X202547940Y-118917269D01*
X202574041Y-118919051D01*
X202611771Y-118920367D01*
X202662956Y-118921286D01*
X202729420Y-118921878D01*
X202812987Y-118922215D01*
X202915483Y-118922365D01*
X203038732Y-118922400D01*
X203570296Y-118922400D01*
X203531523Y-118864783D01*
X203525432Y-118855893D01*
X203514976Y-118841069D01*
X203505579Y-118827422D01*
X203497183Y-118813765D01*
X203489733Y-118798911D01*
X203483173Y-118781670D01*
X203477446Y-118760855D01*
X203472495Y-118735280D01*
X203468266Y-118703755D01*
X203464701Y-118665093D01*
X203461744Y-118618107D01*
X203459340Y-118561608D01*
X203457431Y-118494409D01*
X203455962Y-118415322D01*
X203454876Y-118323160D01*
X203454118Y-118216734D01*
X203453630Y-118094857D01*
X203453358Y-117956341D01*
X203453243Y-117799999D01*
X203453231Y-117624642D01*
X203453265Y-117429082D01*
X203453289Y-117212133D01*
X203453280Y-117089513D01*
X203453243Y-116884447D01*
X203453227Y-116700116D01*
X203453288Y-116535334D01*
X203453484Y-116388916D01*
X203453870Y-116259674D01*
X203454505Y-116146422D01*
X203455444Y-116047975D01*
X203456745Y-115963144D01*
X203458464Y-115890744D01*
X203460659Y-115829589D01*
X203463385Y-115778492D01*
X203466701Y-115736267D01*
X203470662Y-115701727D01*
X203475325Y-115673686D01*
X203480747Y-115650958D01*
X203486986Y-115632356D01*
X203494097Y-115616693D01*
X203502138Y-115602784D01*
X203511166Y-115589441D01*
X203521236Y-115575479D01*
X203532407Y-115559711D01*
X203572197Y-115501867D01*
X202512314Y-115501867D01*
X202550311Y-115564966D01*
X202564993Y-115590005D01*
X202579531Y-115617586D01*
X202591627Y-115645700D01*
X202601532Y-115676551D01*
X202609494Y-115712344D01*
X202615761Y-115755283D01*
X202620582Y-115807574D01*
X202624206Y-115871419D01*
X202626881Y-115949025D01*
X202628857Y-116042594D01*
X202630382Y-116154333D01*
X202631704Y-116286445D01*
X202632613Y-116406434D01*
X202633020Y-116523063D01*
X202632767Y-116618531D01*
X202631857Y-116692556D01*
X202630293Y-116744855D01*
X202628079Y-116775149D01*
X202625220Y-116783156D01*
X202622161Y-116779858D01*
X202604006Y-116758408D01*
X202574275Y-116721889D01*
X202534639Y-116672442D01*
X202486771Y-116612207D01*
X202432343Y-116543327D01*
X202373027Y-116467943D01*
X202310495Y-116388196D01*
X202246421Y-116306228D01*
X202182475Y-116224180D01*
X202120331Y-116144194D01*
X202061661Y-116068411D01*
X202008137Y-115998973D01*
X201961430Y-115938021D01*
X201923214Y-115887696D01*
X201895161Y-115850140D01*
X201878943Y-115827495D01*
X201833635Y-115755212D01*
X201793661Y-115675463D01*
X201772130Y-115607188D01*
X201768827Y-115549844D01*
X201774116Y-115501867D01*
X200642356Y-115502117D01*
X200681867Y-115532722D01*
X200691248Y-115540089D01*
X200754183Y-115594438D01*
X200822997Y-115662259D01*
X200899596Y-115745516D01*
X200985888Y-115846178D01*
X201003052Y-115866847D01*
X201043833Y-115916409D01*
X201093588Y-115977326D01*
X201150955Y-116047898D01*
X201214569Y-116126424D01*
X201283069Y-116211204D01*
X201355090Y-116300537D01*
X201429270Y-116392722D01*
X201444517Y-116411702D01*
X201504246Y-116486060D01*
X201578653Y-116578848D01*
X201651131Y-116669388D01*
X201720314Y-116755978D01*
X201784841Y-116836918D01*
X201843347Y-116910506D01*
X201894470Y-116975044D01*
X201936847Y-117028829D01*
X201969115Y-117070162D01*
X201989910Y-117097342D01*
X201997869Y-117108668D01*
X201996111Y-117112771D01*
X201983230Y-117133334D01*
X201958885Y-117169561D01*
X201924247Y-117219824D01*
X201880486Y-117282492D01*
X201828775Y-117355936D01*
X201770284Y-117438527D01*
X201706184Y-117528636D01*
X201637646Y-117624631D01*
X201565843Y-117724885D01*
X201491944Y-117827768D01*
X201417121Y-117931650D01*
X201342545Y-118034901D01*
X201269387Y-118135892D01*
X201198819Y-118232994D01*
X201132011Y-118324577D01*
X201070135Y-118409011D01*
X201014361Y-118484667D01*
X200965862Y-118549916D01*
X200925807Y-118603128D01*
X200895369Y-118642673D01*
X200874944Y-118668026D01*
X200828899Y-118722295D01*
X200778612Y-118778775D01*
X200731815Y-118828669D01*
X200640651Y-118922400D01*
X199942445Y-118922400D01*
X200011356Y-118922349D01*
X200109607Y-118922091D01*
X200199030Y-118921637D01*
X200277333Y-118921010D01*
X200342223Y-118920235D01*
X200391411Y-118919335D01*
X200422604Y-118918334D01*
X200433511Y-118917257D01*
X200432322Y-118914037D01*
X200422176Y-118896452D01*
X200405040Y-118870158D01*
X200396540Y-118857691D01*
X200387329Y-118843622D01*
X200379233Y-118829351D01*
X200372185Y-118813479D01*
X200366117Y-118794609D01*
X200360961Y-118771341D01*
X200356651Y-118742278D01*
X200353119Y-118706021D01*
X200350297Y-118661170D01*
X200348118Y-118606328D01*
X200346514Y-118540097D01*
X200345419Y-118461077D01*
X200344765Y-118367871D01*
X200344484Y-118259079D01*
X200344509Y-118133303D01*
X200344772Y-117989145D01*
X200345206Y-117825207D01*
X200345745Y-117640089D01*
X200346279Y-117461232D01*
X200346805Y-117302374D01*
X200347350Y-117163316D01*
X200347945Y-117042665D01*
X200348619Y-116939028D01*
X200349403Y-116851011D01*
X200350326Y-116777223D01*
X200351419Y-116716269D01*
X200352712Y-116666757D01*
X200354235Y-116627293D01*
X200356019Y-116596484D01*
X200358092Y-116572938D01*
X200360486Y-116555260D01*
X200363230Y-116542059D01*
X200366356Y-116531940D01*
X200369892Y-116523511D01*
X200373791Y-116515375D01*
X200393438Y-116478544D01*
X200412225Y-116448391D01*
X200413272Y-116446908D01*
X200427602Y-116424659D01*
X200433511Y-116411702D01*
X200432504Y-116411249D01*
X200415305Y-116409803D01*
X200378656Y-116408480D01*
X200324962Y-116407316D01*
X200256630Y-116406347D01*
X200176064Y-116405611D01*
X200085670Y-116405142D01*
X199987853Y-116404978D01*
X199542195Y-116404978D01*
X199539120Y-117581845D01*
X199536045Y-118758711D01*
X199509407Y-118817622D01*
X199497485Y-118842183D01*
X199480246Y-118872434D01*
X199467074Y-118889560D01*
X199459076Y-118897591D01*
X199451378Y-118912493D01*
X199159942Y-118912493D01*
X199159474Y-118820029D01*
X199159050Y-118704617D01*
X199158706Y-118574160D01*
X199158434Y-118427716D01*
X199158227Y-118264344D01*
X199158076Y-118083101D01*
X199157972Y-117883048D01*
X199157908Y-117663241D01*
X199157876Y-117422739D01*
X199157867Y-117160602D01*
X199157867Y-114969031D01*
X199196249Y-114930649D01*
X199223355Y-114906911D01*
X199250253Y-114895111D01*
X199286560Y-114892267D01*
X199338489Y-114892267D01*
X199338489Y-114980206D01*
X199340427Y-115030102D01*
X199359199Y-115140523D01*
X199396217Y-115241987D01*
X199449369Y-115333152D01*
X199516546Y-115412673D01*
X199595638Y-115479205D01*
X199684534Y-115531406D01*
X199781125Y-115567930D01*
X199883300Y-115587434D01*
X199988950Y-115588573D01*
X200095964Y-115570005D01*
X200202232Y-115530384D01*
X200299219Y-115472516D01*
X200384293Y-115397684D01*
X200453015Y-115309615D01*
X200503918Y-115210616D01*
X200535535Y-115102993D01*
X200546400Y-114989054D01*
X200546400Y-114892267D01*
X202166753Y-114892267D01*
X202377897Y-114892280D01*
X202582020Y-114892330D01*
X202765686Y-114892430D01*
X202929991Y-114892592D01*
X203076029Y-114892829D01*
X203204894Y-114893153D01*
X203317683Y-114893575D01*
X203415488Y-114894109D01*
X203499404Y-114894767D01*
X203570527Y-114895561D01*
X203629950Y-114896504D01*
X203678768Y-114897608D01*
X203718077Y-114898884D01*
X203748969Y-114900347D01*
X203772541Y-114902007D01*
X203789886Y-114903878D01*
X203802099Y-114905972D01*
X203810275Y-114908300D01*
X203815508Y-114910876D01*
X203821504Y-114914445D01*
X203828279Y-114917978D01*
X203834478Y-114921488D01*
X203840126Y-114925918D01*
X203845247Y-114932208D01*
X203849869Y-114941301D01*
X203854015Y-114954139D01*
X203857713Y-114971662D01*
X203860987Y-114994813D01*
X203863863Y-115024534D01*
X203866367Y-115061765D01*
X203868524Y-115107449D01*
X203870360Y-115162527D01*
X203871900Y-115227941D01*
X203873170Y-115304633D01*
X203874195Y-115393544D01*
X203875001Y-115495617D01*
X203875034Y-115501867D01*
G36*
X200054562Y-114532850D02*
G01*
X200137313Y-114560053D01*
X200212406Y-114605484D01*
X200284298Y-114671302D01*
X200322846Y-114715567D01*
X200362256Y-114773961D01*
X200387446Y-114834586D01*
X200400861Y-114903865D01*
X200404948Y-114988222D01*
X200404669Y-115034307D01*
X200402460Y-115075450D01*
X200396894Y-115107582D01*
X200386586Y-115138122D01*
X200370148Y-115174489D01*
X200356200Y-115201728D01*
X200297665Y-115287429D01*
X200225619Y-115356617D01*
X200141947Y-115407741D01*
X200048531Y-115439250D01*
X200015434Y-115446225D01*
X199974960Y-115453094D01*
X199941999Y-115454919D01*
X199907698Y-115451947D01*
X199863200Y-115444426D01*
X199811934Y-115432002D01*
X199721434Y-115394112D01*
X199642345Y-115339836D01*
X199576528Y-115271770D01*
X199525840Y-115192511D01*
X199492140Y-115104654D01*
X199477286Y-115010795D01*
X199483136Y-114913530D01*
X199509399Y-114817220D01*
X199554418Y-114728494D01*
X199615373Y-114653419D01*
X199690184Y-114593641D01*
X199776768Y-114550809D01*
X199873043Y-114526571D01*
X199976928Y-114522576D01*
X200054562Y-114532850D01*
G37*
X200054562Y-114532850D02*
X200137313Y-114560053D01*
X200212406Y-114605484D01*
X200284298Y-114671302D01*
X200322846Y-114715567D01*
X200362256Y-114773961D01*
X200387446Y-114834586D01*
X200400861Y-114903865D01*
X200404948Y-114988222D01*
X200404669Y-115034307D01*
X200402460Y-115075450D01*
X200396894Y-115107582D01*
X200386586Y-115138122D01*
X200370148Y-115174489D01*
X200356200Y-115201728D01*
X200297665Y-115287429D01*
X200225619Y-115356617D01*
X200141947Y-115407741D01*
X200048531Y-115439250D01*
X200015434Y-115446225D01*
X199974960Y-115453094D01*
X199941999Y-115454919D01*
X199907698Y-115451947D01*
X199863200Y-115444426D01*
X199811934Y-115432002D01*
X199721434Y-115394112D01*
X199642345Y-115339836D01*
X199576528Y-115271770D01*
X199525840Y-115192511D01*
X199492140Y-115104654D01*
X199477286Y-115010795D01*
X199483136Y-114913530D01*
X199509399Y-114817220D01*
X199554418Y-114728494D01*
X199615373Y-114653419D01*
X199690184Y-114593641D01*
X199776768Y-114550809D01*
X199873043Y-114526571D01*
X199976928Y-114522576D01*
X200054562Y-114532850D01*
G36*
X198931893Y-119767892D02*
G01*
X198943301Y-119774029D01*
X198953850Y-119784691D01*
X198965136Y-119798811D01*
X198969589Y-119804772D01*
X198975588Y-119815268D01*
X198980167Y-119829093D01*
X198983519Y-119848998D01*
X198985833Y-119877732D01*
X198987301Y-119918045D01*
X198988113Y-119972687D01*
X198988460Y-120044407D01*
X198988534Y-120135956D01*
X198988511Y-120194486D01*
X198988292Y-120273573D01*
X198987683Y-120334516D01*
X198986492Y-120380062D01*
X198984529Y-120412963D01*
X198981603Y-120435968D01*
X198977523Y-120451826D01*
X198972097Y-120463286D01*
X198965136Y-120473100D01*
X198934708Y-120497493D01*
X198899765Y-120500372D01*
X198862784Y-120481282D01*
X198858600Y-120477807D01*
X198850424Y-120469279D01*
X198844364Y-120457728D01*
X198839981Y-120439896D01*
X198836839Y-120412524D01*
X198834502Y-120372354D01*
X198832531Y-120316128D01*
X198830489Y-120240589D01*
X198824845Y-120021458D01*
X198559556Y-120262099D01*
X198485722Y-120328875D01*
X198420542Y-120386991D01*
X198368348Y-120431949D01*
X198327273Y-120464871D01*
X198295455Y-120486879D01*
X198271026Y-120499094D01*
X198252124Y-120502639D01*
X198236883Y-120498636D01*
X198223439Y-120488207D01*
X198209927Y-120472474D01*
X198203682Y-120463991D01*
X198198050Y-120453413D01*
X198193839Y-120439255D01*
X198190887Y-120418803D01*
X198189032Y-120389342D01*
X198188113Y-120348161D01*
X198187968Y-120292544D01*
X198188435Y-120219779D01*
X198189352Y-120127151D01*
X198192667Y-119812199D01*
X198219318Y-119790633D01*
X198245383Y-119774441D01*
X198278241Y-119771670D01*
X198312772Y-119790623D01*
X198317084Y-119794208D01*
X198325216Y-119802737D01*
X198331245Y-119814329D01*
X198335606Y-119832235D01*
X198338734Y-119859706D01*
X198341063Y-119899994D01*
X198343029Y-119956351D01*
X198345067Y-120032029D01*
X198350711Y-120251878D01*
X198531334Y-120088084D01*
X198618072Y-120009451D01*
X198693843Y-119941058D01*
X198755980Y-119885708D01*
X198806078Y-119842338D01*
X198845735Y-119809881D01*
X198876548Y-119787273D01*
X198900114Y-119773448D01*
X198918030Y-119767343D01*
X198931893Y-119767892D01*
G37*
X198931893Y-119767892D02*
X198943301Y-119774029D01*
X198953850Y-119784691D01*
X198965136Y-119798811D01*
X198969589Y-119804772D01*
X198975588Y-119815268D01*
X198980167Y-119829093D01*
X198983519Y-119848998D01*
X198985833Y-119877732D01*
X198987301Y-119918045D01*
X198988113Y-119972687D01*
X198988460Y-120044407D01*
X198988534Y-120135956D01*
X198988511Y-120194486D01*
X198988292Y-120273573D01*
X198987683Y-120334516D01*
X198986492Y-120380062D01*
X198984529Y-120412963D01*
X198981603Y-120435968D01*
X198977523Y-120451826D01*
X198972097Y-120463286D01*
X198965136Y-120473100D01*
X198934708Y-120497493D01*
X198899765Y-120500372D01*
X198862784Y-120481282D01*
X198858600Y-120477807D01*
X198850424Y-120469279D01*
X198844364Y-120457728D01*
X198839981Y-120439896D01*
X198836839Y-120412524D01*
X198834502Y-120372354D01*
X198832531Y-120316128D01*
X198830489Y-120240589D01*
X198824845Y-120021458D01*
X198559556Y-120262099D01*
X198485722Y-120328875D01*
X198420542Y-120386991D01*
X198368348Y-120431949D01*
X198327273Y-120464871D01*
X198295455Y-120486879D01*
X198271026Y-120499094D01*
X198252124Y-120502639D01*
X198236883Y-120498636D01*
X198223439Y-120488207D01*
X198209927Y-120472474D01*
X198203682Y-120463991D01*
X198198050Y-120453413D01*
X198193839Y-120439255D01*
X198190887Y-120418803D01*
X198189032Y-120389342D01*
X198188113Y-120348161D01*
X198187968Y-120292544D01*
X198188435Y-120219779D01*
X198189352Y-120127151D01*
X198192667Y-119812199D01*
X198219318Y-119790633D01*
X198245383Y-119774441D01*
X198278241Y-119771670D01*
X198312772Y-119790623D01*
X198317084Y-119794208D01*
X198325216Y-119802737D01*
X198331245Y-119814329D01*
X198335606Y-119832235D01*
X198338734Y-119859706D01*
X198341063Y-119899994D01*
X198343029Y-119956351D01*
X198345067Y-120032029D01*
X198350711Y-120251878D01*
X198531334Y-120088084D01*
X198618072Y-120009451D01*
X198693843Y-119941058D01*
X198755980Y-119885708D01*
X198806078Y-119842338D01*
X198845735Y-119809881D01*
X198876548Y-119787273D01*
X198900114Y-119773448D01*
X198918030Y-119767343D01*
X198931893Y-119767892D01*
G36*
X202456734Y-119769083D02*
G01*
X202533831Y-119769275D01*
X202592777Y-119769860D01*
X202636364Y-119771051D01*
X202667383Y-119773064D01*
X202688625Y-119776112D01*
X202702882Y-119780409D01*
X202712945Y-119786172D01*
X202721606Y-119793612D01*
X202723391Y-119795293D01*
X202730635Y-119802832D01*
X202736277Y-119811850D01*
X202740517Y-119824984D01*
X202743556Y-119844872D01*
X202745594Y-119874151D01*
X202746830Y-119915458D01*
X202747465Y-119971431D01*
X202747700Y-120044707D01*
X202747734Y-120137923D01*
X202747697Y-120210713D01*
X202747448Y-120288889D01*
X202746812Y-120349103D01*
X202745615Y-120393982D01*
X202743684Y-120426152D01*
X202740846Y-120448239D01*
X202736927Y-120462870D01*
X202731755Y-120472670D01*
X202725156Y-120480267D01*
X202721822Y-120483444D01*
X202713300Y-120489554D01*
X202701298Y-120494229D01*
X202683087Y-120497659D01*
X202655940Y-120500036D01*
X202617129Y-120501552D01*
X202563924Y-120502398D01*
X202493598Y-120502765D01*
X202403422Y-120502845D01*
X202361314Y-120502833D01*
X202280167Y-120502651D01*
X202217675Y-120502098D01*
X202171109Y-120500982D01*
X202137741Y-120499113D01*
X202114844Y-120496298D01*
X202099688Y-120492346D01*
X202089546Y-120487066D01*
X202081689Y-120480267D01*
X202066963Y-120458667D01*
X202059111Y-120429467D01*
X202064610Y-120405560D01*
X202081689Y-120378667D01*
X202086668Y-120374059D01*
X202096443Y-120367772D01*
X202110559Y-120363146D01*
X202132054Y-120359930D01*
X202163968Y-120357870D01*
X202209342Y-120356712D01*
X202271213Y-120356202D01*
X202352622Y-120356089D01*
X202600978Y-120356089D01*
X202600978Y-120198045D01*
X202439801Y-120198045D01*
X202403983Y-120197899D01*
X202338359Y-120196176D01*
X202291118Y-120191741D01*
X202259383Y-120183637D01*
X202240277Y-120170906D01*
X202230923Y-120152592D01*
X202228445Y-120127738D01*
X202229242Y-120107482D01*
X202234494Y-120085656D01*
X202247288Y-120070304D01*
X202270628Y-120060309D01*
X202307517Y-120054553D01*
X202360959Y-120051919D01*
X202433958Y-120051289D01*
X202602105Y-120051289D01*
X202598719Y-119986378D01*
X202595334Y-119921467D01*
X202347617Y-119918418D01*
X202285026Y-119917539D01*
X202216565Y-119916095D01*
X202165661Y-119914164D01*
X202129408Y-119911514D01*
X202104901Y-119907910D01*
X202089235Y-119903121D01*
X202079506Y-119896913D01*
X202073491Y-119890510D01*
X202060482Y-119858828D01*
X202064043Y-119823142D01*
X202083818Y-119792084D01*
X202087069Y-119789161D01*
X202096049Y-119782810D01*
X202108153Y-119777957D01*
X202126159Y-119774403D01*
X202152847Y-119771946D01*
X202190997Y-119770385D01*
X202243386Y-119769518D01*
X202312794Y-119769146D01*
X202402001Y-119769067D01*
X202456734Y-119769083D01*
G37*
X202456734Y-119769083D02*
X202533831Y-119769275D01*
X202592777Y-119769860D01*
X202636364Y-119771051D01*
X202667383Y-119773064D01*
X202688625Y-119776112D01*
X202702882Y-119780409D01*
X202712945Y-119786172D01*
X202721606Y-119793612D01*
X202723391Y-119795293D01*
X202730635Y-119802832D01*
X202736277Y-119811850D01*
X202740517Y-119824984D01*
X202743556Y-119844872D01*
X202745594Y-119874151D01*
X202746830Y-119915458D01*
X202747465Y-119971431D01*
X202747700Y-120044707D01*
X202747734Y-120137923D01*
X202747697Y-120210713D01*
X202747448Y-120288889D01*
X202746812Y-120349103D01*
X202745615Y-120393982D01*
X202743684Y-120426152D01*
X202740846Y-120448239D01*
X202736927Y-120462870D01*
X202731755Y-120472670D01*
X202725156Y-120480267D01*
X202721822Y-120483444D01*
X202713300Y-120489554D01*
X202701298Y-120494229D01*
X202683087Y-120497659D01*
X202655940Y-120500036D01*
X202617129Y-120501552D01*
X202563924Y-120502398D01*
X202493598Y-120502765D01*
X202403422Y-120502845D01*
X202361314Y-120502833D01*
X202280167Y-120502651D01*
X202217675Y-120502098D01*
X202171109Y-120500982D01*
X202137741Y-120499113D01*
X202114844Y-120496298D01*
X202099688Y-120492346D01*
X202089546Y-120487066D01*
X202081689Y-120480267D01*
X202066963Y-120458667D01*
X202059111Y-120429467D01*
X202064610Y-120405560D01*
X202081689Y-120378667D01*
X202086668Y-120374059D01*
X202096443Y-120367772D01*
X202110559Y-120363146D01*
X202132054Y-120359930D01*
X202163968Y-120357870D01*
X202209342Y-120356712D01*
X202271213Y-120356202D01*
X202352622Y-120356089D01*
X202600978Y-120356089D01*
X202600978Y-120198045D01*
X202439801Y-120198045D01*
X202403983Y-120197899D01*
X202338359Y-120196176D01*
X202291118Y-120191741D01*
X202259383Y-120183637D01*
X202240277Y-120170906D01*
X202230923Y-120152592D01*
X202228445Y-120127738D01*
X202229242Y-120107482D01*
X202234494Y-120085656D01*
X202247288Y-120070304D01*
X202270628Y-120060309D01*
X202307517Y-120054553D01*
X202360959Y-120051919D01*
X202433958Y-120051289D01*
X202602105Y-120051289D01*
X202598719Y-119986378D01*
X202595334Y-119921467D01*
X202347617Y-119918418D01*
X202285026Y-119917539D01*
X202216565Y-119916095D01*
X202165661Y-119914164D01*
X202129408Y-119911514D01*
X202104901Y-119907910D01*
X202089235Y-119903121D01*
X202079506Y-119896913D01*
X202073491Y-119890510D01*
X202060482Y-119858828D01*
X202064043Y-119823142D01*
X202083818Y-119792084D01*
X202087069Y-119789161D01*
X202096049Y-119782810D01*
X202108153Y-119777957D01*
X202126159Y-119774403D01*
X202152847Y-119771946D01*
X202190997Y-119770385D01*
X202243386Y-119769518D01*
X202312794Y-119769146D01*
X202402001Y-119769067D01*
X202456734Y-119769083D01*
G36*
X197779803Y-119798811D02*
G01*
X197784752Y-119805495D01*
X197790596Y-119816066D01*
X197795057Y-119830153D01*
X197798321Y-119850478D01*
X197800574Y-119879765D01*
X197802002Y-119920737D01*
X197802792Y-119976117D01*
X197803129Y-120048628D01*
X197803200Y-120140994D01*
X197803171Y-120206911D01*
X197802939Y-120285228D01*
X197802319Y-120345496D01*
X197801126Y-120390393D01*
X197799179Y-120422602D01*
X197796294Y-120444800D01*
X197792288Y-120459669D01*
X197786979Y-120469889D01*
X197780183Y-120478138D01*
X197775668Y-120482795D01*
X197767438Y-120489282D01*
X197756078Y-120494194D01*
X197738810Y-120497749D01*
X197712855Y-120500167D01*
X197675436Y-120501667D01*
X197623773Y-120502467D01*
X197555089Y-120502787D01*
X197466606Y-120502845D01*
X197446931Y-120502838D01*
X197359906Y-120502572D01*
X197292254Y-120501806D01*
X197241299Y-120500392D01*
X197204367Y-120498180D01*
X197178783Y-120495022D01*
X197161871Y-120490769D01*
X197150957Y-120485271D01*
X197140464Y-120475285D01*
X197127203Y-120444168D01*
X197128386Y-120408280D01*
X197144550Y-120376733D01*
X197146739Y-120374457D01*
X197155427Y-120368189D01*
X197168769Y-120363523D01*
X197189752Y-120360227D01*
X197221363Y-120358068D01*
X197266590Y-120356814D01*
X197328420Y-120356231D01*
X197409839Y-120356089D01*
X197656445Y-120356089D01*
X197656445Y-120198045D01*
X197494006Y-120198045D01*
X197458338Y-120197964D01*
X197402568Y-120197167D01*
X197363430Y-120195162D01*
X197336976Y-120191521D01*
X197319259Y-120185812D01*
X197306329Y-120177607D01*
X197302686Y-120174423D01*
X197284278Y-120143448D01*
X197283644Y-120107112D01*
X197301183Y-120073493D01*
X197301245Y-120073424D01*
X197310916Y-120064798D01*
X197324209Y-120058742D01*
X197344917Y-120054811D01*
X197376828Y-120052556D01*
X197423734Y-120051531D01*
X197489424Y-120051289D01*
X197657571Y-120051289D01*
X197654186Y-119986378D01*
X197650800Y-119921467D01*
X197408723Y-119918414D01*
X197383707Y-119918086D01*
X197302087Y-119916606D01*
X197239768Y-119914222D01*
X197194154Y-119910227D01*
X197162652Y-119903913D01*
X197142667Y-119894574D01*
X197131604Y-119881503D01*
X197126869Y-119863992D01*
X197125867Y-119841335D01*
X197125873Y-119838970D01*
X197127027Y-119818939D01*
X197131824Y-119803146D01*
X197142632Y-119791090D01*
X197161817Y-119782267D01*
X197191745Y-119776175D01*
X197234783Y-119772311D01*
X197293299Y-119770174D01*
X197369657Y-119769260D01*
X197466226Y-119769067D01*
X197756406Y-119769067D01*
X197779803Y-119798811D01*
G37*
X197779803Y-119798811D02*
X197784752Y-119805495D01*
X197790596Y-119816066D01*
X197795057Y-119830153D01*
X197798321Y-119850478D01*
X197800574Y-119879765D01*
X197802002Y-119920737D01*
X197802792Y-119976117D01*
X197803129Y-120048628D01*
X197803200Y-120140994D01*
X197803171Y-120206911D01*
X197802939Y-120285228D01*
X197802319Y-120345496D01*
X197801126Y-120390393D01*
X197799179Y-120422602D01*
X197796294Y-120444800D01*
X197792288Y-120459669D01*
X197786979Y-120469889D01*
X197780183Y-120478138D01*
X197775668Y-120482795D01*
X197767438Y-120489282D01*
X197756078Y-120494194D01*
X197738810Y-120497749D01*
X197712855Y-120500167D01*
X197675436Y-120501667D01*
X197623773Y-120502467D01*
X197555089Y-120502787D01*
X197466606Y-120502845D01*
X197446931Y-120502838D01*
X197359906Y-120502572D01*
X197292254Y-120501806D01*
X197241299Y-120500392D01*
X197204367Y-120498180D01*
X197178783Y-120495022D01*
X197161871Y-120490769D01*
X197150957Y-120485271D01*
X197140464Y-120475285D01*
X197127203Y-120444168D01*
X197128386Y-120408280D01*
X197144550Y-120376733D01*
X197146739Y-120374457D01*
X197155427Y-120368189D01*
X197168769Y-120363523D01*
X197189752Y-120360227D01*
X197221363Y-120358068D01*
X197266590Y-120356814D01*
X197328420Y-120356231D01*
X197409839Y-120356089D01*
X197656445Y-120356089D01*
X197656445Y-120198045D01*
X197494006Y-120198045D01*
X197458338Y-120197964D01*
X197402568Y-120197167D01*
X197363430Y-120195162D01*
X197336976Y-120191521D01*
X197319259Y-120185812D01*
X197306329Y-120177607D01*
X197302686Y-120174423D01*
X197284278Y-120143448D01*
X197283644Y-120107112D01*
X197301183Y-120073493D01*
X197301245Y-120073424D01*
X197310916Y-120064798D01*
X197324209Y-120058742D01*
X197344917Y-120054811D01*
X197376828Y-120052556D01*
X197423734Y-120051531D01*
X197489424Y-120051289D01*
X197657571Y-120051289D01*
X197654186Y-119986378D01*
X197650800Y-119921467D01*
X197408723Y-119918414D01*
X197383707Y-119918086D01*
X197302087Y-119916606D01*
X197239768Y-119914222D01*
X197194154Y-119910227D01*
X197162652Y-119903913D01*
X197142667Y-119894574D01*
X197131604Y-119881503D01*
X197126869Y-119863992D01*
X197125867Y-119841335D01*
X197125873Y-119838970D01*
X197127027Y-119818939D01*
X197131824Y-119803146D01*
X197142632Y-119791090D01*
X197161817Y-119782267D01*
X197191745Y-119776175D01*
X197234783Y-119772311D01*
X197293299Y-119770174D01*
X197369657Y-119769260D01*
X197466226Y-119769067D01*
X197756406Y-119769067D01*
X197779803Y-119798811D01*
G36*
X193455406Y-119774949D02*
G01*
X193481127Y-119790647D01*
X193507778Y-119812227D01*
X193507778Y-120459684D01*
X193481127Y-120481264D01*
X193449767Y-120498739D01*
X193413966Y-120499575D01*
X193382528Y-120479082D01*
X193378652Y-120474416D01*
X193373186Y-120464949D01*
X193368979Y-120451267D01*
X193365867Y-120430748D01*
X193363687Y-120400768D01*
X193362276Y-120358704D01*
X193361471Y-120301932D01*
X193361107Y-120227830D01*
X193361022Y-120133773D01*
X193361022Y-119812227D01*
X193387673Y-119790647D01*
X193411386Y-119775877D01*
X193434400Y-119769067D01*
X193455406Y-119774949D01*
G37*
X193455406Y-119774949D02*
X193481127Y-119790647D01*
X193507778Y-119812227D01*
X193507778Y-120459684D01*
X193481127Y-120481264D01*
X193449767Y-120498739D01*
X193413966Y-120499575D01*
X193382528Y-120479082D01*
X193378652Y-120474416D01*
X193373186Y-120464949D01*
X193368979Y-120451267D01*
X193365867Y-120430748D01*
X193363687Y-120400768D01*
X193362276Y-120358704D01*
X193361471Y-120301932D01*
X193361107Y-120227830D01*
X193361022Y-120133773D01*
X193361022Y-119812227D01*
X193387673Y-119790647D01*
X193411386Y-119775877D01*
X193434400Y-119769067D01*
X193455406Y-119774949D01*
G36*
X192079734Y-119791645D02*
G01*
X192085366Y-119797835D01*
X192090456Y-119806041D01*
X192094543Y-119817817D01*
X192097721Y-119835276D01*
X192100087Y-119860530D01*
X192101738Y-119895690D01*
X192102769Y-119942869D01*
X192103277Y-120004177D01*
X192103359Y-120081727D01*
X192103109Y-120177631D01*
X192102625Y-120294000D01*
X192102557Y-120308175D01*
X192101971Y-120369937D01*
X192100648Y-120413620D01*
X192098103Y-120443001D01*
X192093848Y-120461855D01*
X192087396Y-120473959D01*
X192078262Y-120483089D01*
X192044804Y-120500506D01*
X192009856Y-120497604D01*
X191978953Y-120473100D01*
X191969944Y-120459897D01*
X191962492Y-120441361D01*
X191958124Y-120415333D01*
X191956069Y-120376787D01*
X191955556Y-120320700D01*
X191955556Y-120198045D01*
X191458845Y-120198045D01*
X191458845Y-120332871D01*
X191458772Y-120368662D01*
X191458009Y-120414992D01*
X191455833Y-120445526D01*
X191451536Y-120464557D01*
X191444412Y-120476374D01*
X191433755Y-120485271D01*
X191401504Y-120500341D01*
X191366217Y-120497673D01*
X191335486Y-120473100D01*
X191330831Y-120466845D01*
X191324895Y-120456321D01*
X191320364Y-120442391D01*
X191317048Y-120422317D01*
X191314759Y-120393360D01*
X191313308Y-120352780D01*
X191312505Y-120297840D01*
X191312162Y-120225799D01*
X191312089Y-120133920D01*
X191312089Y-119824485D01*
X191339798Y-119796776D01*
X191371177Y-119774533D01*
X191404406Y-119771844D01*
X191436267Y-119791645D01*
X191444553Y-119801415D01*
X191451965Y-119817307D01*
X191456302Y-119841275D01*
X191458338Y-119878148D01*
X191458845Y-119932756D01*
X191458845Y-120051289D01*
X191955556Y-120051289D01*
X191955556Y-119935776D01*
X191955994Y-119884078D01*
X191957958Y-119849554D01*
X191962474Y-119826978D01*
X191970567Y-119811126D01*
X191983265Y-119796776D01*
X192014643Y-119774533D01*
X192047872Y-119771844D01*
X192079734Y-119791645D01*
G37*
X192079734Y-119791645D02*
X192085366Y-119797835D01*
X192090456Y-119806041D01*
X192094543Y-119817817D01*
X192097721Y-119835276D01*
X192100087Y-119860530D01*
X192101738Y-119895690D01*
X192102769Y-119942869D01*
X192103277Y-120004177D01*
X192103359Y-120081727D01*
X192103109Y-120177631D01*
X192102625Y-120294000D01*
X192102557Y-120308175D01*
X192101971Y-120369937D01*
X192100648Y-120413620D01*
X192098103Y-120443001D01*
X192093848Y-120461855D01*
X192087396Y-120473959D01*
X192078262Y-120483089D01*
X192044804Y-120500506D01*
X192009856Y-120497604D01*
X191978953Y-120473100D01*
X191969944Y-120459897D01*
X191962492Y-120441361D01*
X191958124Y-120415333D01*
X191956069Y-120376787D01*
X191955556Y-120320700D01*
X191955556Y-120198045D01*
X191458845Y-120198045D01*
X191458845Y-120332871D01*
X191458772Y-120368662D01*
X191458009Y-120414992D01*
X191455833Y-120445526D01*
X191451536Y-120464557D01*
X191444412Y-120476374D01*
X191433755Y-120485271D01*
X191401504Y-120500341D01*
X191366217Y-120497673D01*
X191335486Y-120473100D01*
X191330831Y-120466845D01*
X191324895Y-120456321D01*
X191320364Y-120442391D01*
X191317048Y-120422317D01*
X191314759Y-120393360D01*
X191313308Y-120352780D01*
X191312505Y-120297840D01*
X191312162Y-120225799D01*
X191312089Y-120133920D01*
X191312089Y-119824485D01*
X191339798Y-119796776D01*
X191371177Y-119774533D01*
X191404406Y-119771844D01*
X191436267Y-119791645D01*
X191444553Y-119801415D01*
X191451965Y-119817307D01*
X191456302Y-119841275D01*
X191458338Y-119878148D01*
X191458845Y-119932756D01*
X191458845Y-120051289D01*
X191955556Y-120051289D01*
X191955556Y-119935776D01*
X191955994Y-119884078D01*
X191957958Y-119849554D01*
X191962474Y-119826978D01*
X191970567Y-119811126D01*
X191983265Y-119796776D01*
X192014643Y-119774533D01*
X192047872Y-119771844D01*
X192079734Y-119791645D01*
G36*
X199729150Y-119774179D02*
G01*
X199835157Y-119790494D01*
X199928969Y-119818545D01*
X200007765Y-119857452D01*
X200068719Y-119906334D01*
X200094789Y-119939195D01*
X200124297Y-119988394D01*
X200149568Y-120042252D01*
X200167218Y-120093419D01*
X200173858Y-120134544D01*
X200172298Y-120154259D01*
X200159357Y-120205592D01*
X200136194Y-120262118D01*
X200106302Y-120316035D01*
X200073173Y-120359539D01*
X200062977Y-120369887D01*
X199995892Y-120421662D01*
X199915766Y-120461554D01*
X199829556Y-120485956D01*
X199774592Y-120494068D01*
X199681139Y-120500673D01*
X199591358Y-120498586D01*
X199508869Y-120488340D01*
X199437286Y-120470470D01*
X199380228Y-120445508D01*
X199341311Y-120413988D01*
X199339936Y-120412012D01*
X199332848Y-120386786D01*
X199328609Y-120339535D01*
X199327200Y-120270071D01*
X199328060Y-120207838D01*
X199332780Y-120160456D01*
X199344470Y-120128353D01*
X199366239Y-120108800D01*
X199401198Y-120099070D01*
X199452456Y-120096433D01*
X199523123Y-120098161D01*
X199571743Y-120101173D01*
X199621939Y-120109366D01*
X199654433Y-120123419D01*
X199671892Y-120144654D01*
X199676983Y-120174394D01*
X199676877Y-120178936D01*
X199668175Y-120213730D01*
X199644165Y-120237147D01*
X199602900Y-120250347D01*
X199542431Y-120254489D01*
X199473956Y-120254489D01*
X199473956Y-120292841D01*
X199474006Y-120301976D01*
X199476227Y-120319227D01*
X199485494Y-120329521D01*
X199506875Y-120336459D01*
X199545436Y-120343641D01*
X199550910Y-120344575D01*
X199647860Y-120354478D01*
X199737852Y-120351559D01*
X199818760Y-120336829D01*
X199888459Y-120311299D01*
X199944824Y-120275978D01*
X199985729Y-120231879D01*
X200009051Y-120180012D01*
X200012663Y-120121388D01*
X200007145Y-120092494D01*
X199980461Y-120036604D01*
X199934273Y-119990945D01*
X199869291Y-119956108D01*
X199786229Y-119932690D01*
X199761555Y-119928241D01*
X199672226Y-119917742D01*
X199592419Y-119918971D01*
X199514326Y-119931906D01*
X199479183Y-119938696D01*
X199433745Y-119939713D01*
X199402430Y-119927182D01*
X199382277Y-119900395D01*
X199375893Y-119872148D01*
X199385379Y-119840924D01*
X199394708Y-119827499D01*
X199428943Y-119803967D01*
X199481565Y-119786095D01*
X199550081Y-119774599D01*
X199632000Y-119770192D01*
X199729150Y-119774179D01*
G37*
X199729150Y-119774179D02*
X199835157Y-119790494D01*
X199928969Y-119818545D01*
X200007765Y-119857452D01*
X200068719Y-119906334D01*
X200094789Y-119939195D01*
X200124297Y-119988394D01*
X200149568Y-120042252D01*
X200167218Y-120093419D01*
X200173858Y-120134544D01*
X200172298Y-120154259D01*
X200159357Y-120205592D01*
X200136194Y-120262118D01*
X200106302Y-120316035D01*
X200073173Y-120359539D01*
X200062977Y-120369887D01*
X199995892Y-120421662D01*
X199915766Y-120461554D01*
X199829556Y-120485956D01*
X199774592Y-120494068D01*
X199681139Y-120500673D01*
X199591358Y-120498586D01*
X199508869Y-120488340D01*
X199437286Y-120470470D01*
X199380228Y-120445508D01*
X199341311Y-120413988D01*
X199339936Y-120412012D01*
X199332848Y-120386786D01*
X199328609Y-120339535D01*
X199327200Y-120270071D01*
X199328060Y-120207838D01*
X199332780Y-120160456D01*
X199344470Y-120128353D01*
X199366239Y-120108800D01*
X199401198Y-120099070D01*
X199452456Y-120096433D01*
X199523123Y-120098161D01*
X199571743Y-120101173D01*
X199621939Y-120109366D01*
X199654433Y-120123419D01*
X199671892Y-120144654D01*
X199676983Y-120174394D01*
X199676877Y-120178936D01*
X199668175Y-120213730D01*
X199644165Y-120237147D01*
X199602900Y-120250347D01*
X199542431Y-120254489D01*
X199473956Y-120254489D01*
X199473956Y-120292841D01*
X199474006Y-120301976D01*
X199476227Y-120319227D01*
X199485494Y-120329521D01*
X199506875Y-120336459D01*
X199545436Y-120343641D01*
X199550910Y-120344575D01*
X199647860Y-120354478D01*
X199737852Y-120351559D01*
X199818760Y-120336829D01*
X199888459Y-120311299D01*
X199944824Y-120275978D01*
X199985729Y-120231879D01*
X200009051Y-120180012D01*
X200012663Y-120121388D01*
X200007145Y-120092494D01*
X199980461Y-120036604D01*
X199934273Y-119990945D01*
X199869291Y-119956108D01*
X199786229Y-119932690D01*
X199761555Y-119928241D01*
X199672226Y-119917742D01*
X199592419Y-119918971D01*
X199514326Y-119931906D01*
X199479183Y-119938696D01*
X199433745Y-119939713D01*
X199402430Y-119927182D01*
X199382277Y-119900395D01*
X199375893Y-119872148D01*
X199385379Y-119840924D01*
X199394708Y-119827499D01*
X199428943Y-119803967D01*
X199481565Y-119786095D01*
X199550081Y-119774599D01*
X199632000Y-119770192D01*
X199729150Y-119774179D01*
G36*
X196785775Y-120356089D02*
G01*
X196785133Y-120380396D01*
X196783163Y-120413175D01*
X196780235Y-120436095D01*
X196776158Y-120451897D01*
X196770743Y-120463319D01*
X196763803Y-120473100D01*
X196740406Y-120502845D01*
X196574714Y-120502251D01*
X196539918Y-120501953D01*
X196441435Y-120498522D01*
X196360473Y-120490839D01*
X196293379Y-120478282D01*
X196236496Y-120460227D01*
X196186169Y-120436052D01*
X196182810Y-120434135D01*
X196124998Y-120397417D01*
X196082644Y-120360451D01*
X196049828Y-120316966D01*
X196020628Y-120260689D01*
X196016346Y-120251073D01*
X195993769Y-120187887D01*
X195988034Y-120142333D01*
X196137279Y-120142333D01*
X196142892Y-120167061D01*
X196148618Y-120182939D01*
X196181548Y-120242847D01*
X196228886Y-120288600D01*
X196292652Y-120321736D01*
X196374861Y-120343790D01*
X196377655Y-120344292D01*
X196423940Y-120350255D01*
X196480336Y-120354483D01*
X196535274Y-120356089D01*
X196629156Y-120356089D01*
X196629156Y-119915822D01*
X196541667Y-119916270D01*
X196474747Y-119918746D01*
X196382349Y-119929998D01*
X196303034Y-119949537D01*
X196241060Y-119976511D01*
X196210120Y-119997240D01*
X196182000Y-120027006D01*
X196158660Y-120069434D01*
X196151533Y-120085400D01*
X196139709Y-120117902D01*
X196137279Y-120142333D01*
X195988034Y-120142333D01*
X195986797Y-120132509D01*
X195995399Y-120077483D01*
X196019541Y-120015351D01*
X196020337Y-120013658D01*
X196060788Y-119944236D01*
X196111473Y-119887638D01*
X196174198Y-119843070D01*
X196250774Y-119809741D01*
X196343009Y-119786861D01*
X196452712Y-119773636D01*
X196581691Y-119769275D01*
X196585263Y-119769270D01*
X196645283Y-119769410D01*
X196687214Y-119770446D01*
X196715328Y-119773040D01*
X196733897Y-119777853D01*
X196747194Y-119785544D01*
X196759491Y-119796776D01*
X196787200Y-119824485D01*
X196787200Y-120133920D01*
X196787175Y-120195526D01*
X196786950Y-120274311D01*
X196786332Y-120335021D01*
X196785775Y-120356089D01*
G37*
X196785775Y-120356089D02*
X196785133Y-120380396D01*
X196783163Y-120413175D01*
X196780235Y-120436095D01*
X196776158Y-120451897D01*
X196770743Y-120463319D01*
X196763803Y-120473100D01*
X196740406Y-120502845D01*
X196574714Y-120502251D01*
X196539918Y-120501953D01*
X196441435Y-120498522D01*
X196360473Y-120490839D01*
X196293379Y-120478282D01*
X196236496Y-120460227D01*
X196186169Y-120436052D01*
X196182810Y-120434135D01*
X196124998Y-120397417D01*
X196082644Y-120360451D01*
X196049828Y-120316966D01*
X196020628Y-120260689D01*
X196016346Y-120251073D01*
X195993769Y-120187887D01*
X195988034Y-120142333D01*
X196137279Y-120142333D01*
X196142892Y-120167061D01*
X196148618Y-120182939D01*
X196181548Y-120242847D01*
X196228886Y-120288600D01*
X196292652Y-120321736D01*
X196374861Y-120343790D01*
X196377655Y-120344292D01*
X196423940Y-120350255D01*
X196480336Y-120354483D01*
X196535274Y-120356089D01*
X196629156Y-120356089D01*
X196629156Y-119915822D01*
X196541667Y-119916270D01*
X196474747Y-119918746D01*
X196382349Y-119929998D01*
X196303034Y-119949537D01*
X196241060Y-119976511D01*
X196210120Y-119997240D01*
X196182000Y-120027006D01*
X196158660Y-120069434D01*
X196151533Y-120085400D01*
X196139709Y-120117902D01*
X196137279Y-120142333D01*
X195988034Y-120142333D01*
X195986797Y-120132509D01*
X195995399Y-120077483D01*
X196019541Y-120015351D01*
X196020337Y-120013658D01*
X196060788Y-119944236D01*
X196111473Y-119887638D01*
X196174198Y-119843070D01*
X196250774Y-119809741D01*
X196343009Y-119786861D01*
X196452712Y-119773636D01*
X196581691Y-119769275D01*
X196585263Y-119769270D01*
X196645283Y-119769410D01*
X196687214Y-119770446D01*
X196715328Y-119773040D01*
X196733897Y-119777853D01*
X196747194Y-119785544D01*
X196759491Y-119796776D01*
X196787200Y-119824485D01*
X196787200Y-120133920D01*
X196787175Y-120195526D01*
X196786950Y-120274311D01*
X196786332Y-120335021D01*
X196785775Y-120356089D01*
G36*
X197588711Y-115462033D02*
G01*
X197684268Y-115479523D01*
X197848558Y-115524564D01*
X198002589Y-115587656D01*
X198148509Y-115669915D01*
X198288466Y-115772457D01*
X198424608Y-115896399D01*
X198468473Y-115941661D01*
X198580758Y-116073865D01*
X198673972Y-116211832D01*
X198750719Y-116359750D01*
X198813603Y-116521803D01*
X198817420Y-116533391D01*
X198867507Y-116719392D01*
X198900899Y-116915521D01*
X198917584Y-117117568D01*
X198917551Y-117321325D01*
X198900791Y-117522581D01*
X198867292Y-117717128D01*
X198817044Y-117900756D01*
X198773190Y-118018053D01*
X198695348Y-118180951D01*
X198601828Y-118334866D01*
X198494822Y-118476671D01*
X198376519Y-118603239D01*
X198249111Y-118711441D01*
X198171606Y-118764120D01*
X198044725Y-118833750D01*
X197907243Y-118892468D01*
X197765716Y-118937587D01*
X197626702Y-118966422D01*
X197612597Y-118968106D01*
X197569153Y-118971434D01*
X197511723Y-118974275D01*
X197446122Y-118976373D01*
X197378167Y-118977468D01*
X197251378Y-118975140D01*
X197103673Y-118962136D01*
X196965779Y-118937133D01*
X196832014Y-118899318D01*
X196808562Y-118890889D01*
X196760612Y-118871408D01*
X196704140Y-118846473D01*
X196642379Y-118817722D01*
X196578563Y-118786790D01*
X196515926Y-118755315D01*
X196457703Y-118724934D01*
X196407127Y-118697283D01*
X196367433Y-118673999D01*
X196341854Y-118656718D01*
X196333625Y-118647079D01*
X196335076Y-118643984D01*
X196346250Y-118624079D01*
X196367134Y-118588420D01*
X196396265Y-118539459D01*
X196432181Y-118479646D01*
X196473420Y-118411433D01*
X196518517Y-118337271D01*
X196699785Y-118040008D01*
X196746315Y-118084539D01*
X196837723Y-118162865D01*
X196951334Y-118237439D01*
X197069122Y-118291474D01*
X197189559Y-118324290D01*
X197311117Y-118335211D01*
X197352585Y-118333868D01*
X197470080Y-118315612D01*
X197580089Y-118276617D01*
X197681430Y-118217670D01*
X197772921Y-118139557D01*
X197853380Y-118043064D01*
X197921627Y-117928978D01*
X197937908Y-117894724D01*
X197983982Y-117771240D01*
X198019106Y-117632918D01*
X198043197Y-117483561D01*
X198056173Y-117326973D01*
X198057949Y-117166956D01*
X198048443Y-117007314D01*
X198027572Y-116851850D01*
X197995252Y-116704366D01*
X197951399Y-116568667D01*
X197913982Y-116482076D01*
X197849185Y-116368688D01*
X197773772Y-116275070D01*
X197687418Y-116200959D01*
X197589795Y-116146094D01*
X197480577Y-116110212D01*
X197359439Y-116093051D01*
X197290038Y-116091880D01*
X197167168Y-116106141D01*
X197051664Y-116141241D01*
X196944953Y-116196682D01*
X196848464Y-116271964D01*
X196832720Y-116286440D01*
X196802150Y-116312962D01*
X196779809Y-116330138D01*
X196769691Y-116334787D01*
X196767706Y-116332597D01*
X196753241Y-116313721D01*
X196729400Y-116280397D01*
X196698029Y-116235380D01*
X196660974Y-116181425D01*
X196620083Y-116121285D01*
X196577202Y-116057718D01*
X196534178Y-115993476D01*
X196492857Y-115931315D01*
X196455086Y-115873991D01*
X196422712Y-115824257D01*
X196397582Y-115784868D01*
X196381542Y-115758580D01*
X196376439Y-115748147D01*
X196381050Y-115743941D01*
X196400267Y-115738933D01*
X196409838Y-115736386D01*
X196437809Y-115725249D01*
X196479448Y-115706802D01*
X196530995Y-115682725D01*
X196588690Y-115654699D01*
X196599957Y-115649154D01*
X196777687Y-115569889D01*
X196947490Y-115510385D01*
X197111430Y-115470245D01*
X197271571Y-115449071D01*
X197429977Y-115446466D01*
X197588711Y-115462033D01*
G37*
X197588711Y-115462033D02*
X197684268Y-115479523D01*
X197848558Y-115524564D01*
X198002589Y-115587656D01*
X198148509Y-115669915D01*
X198288466Y-115772457D01*
X198424608Y-115896399D01*
X198468473Y-115941661D01*
X198580758Y-116073865D01*
X198673972Y-116211832D01*
X198750719Y-116359750D01*
X198813603Y-116521803D01*
X198817420Y-116533391D01*
X198867507Y-116719392D01*
X198900899Y-116915521D01*
X198917584Y-117117568D01*
X198917551Y-117321325D01*
X198900791Y-117522581D01*
X198867292Y-117717128D01*
X198817044Y-117900756D01*
X198773190Y-118018053D01*
X198695348Y-118180951D01*
X198601828Y-118334866D01*
X198494822Y-118476671D01*
X198376519Y-118603239D01*
X198249111Y-118711441D01*
X198171606Y-118764120D01*
X198044725Y-118833750D01*
X197907243Y-118892468D01*
X197765716Y-118937587D01*
X197626702Y-118966422D01*
X197612597Y-118968106D01*
X197569153Y-118971434D01*
X197511723Y-118974275D01*
X197446122Y-118976373D01*
X197378167Y-118977468D01*
X197251378Y-118975140D01*
X197103673Y-118962136D01*
X196965779Y-118937133D01*
X196832014Y-118899318D01*
X196808562Y-118890889D01*
X196760612Y-118871408D01*
X196704140Y-118846473D01*
X196642379Y-118817722D01*
X196578563Y-118786790D01*
X196515926Y-118755315D01*
X196457703Y-118724934D01*
X196407127Y-118697283D01*
X196367433Y-118673999D01*
X196341854Y-118656718D01*
X196333625Y-118647079D01*
X196335076Y-118643984D01*
X196346250Y-118624079D01*
X196367134Y-118588420D01*
X196396265Y-118539459D01*
X196432181Y-118479646D01*
X196473420Y-118411433D01*
X196518517Y-118337271D01*
X196699785Y-118040008D01*
X196746315Y-118084539D01*
X196837723Y-118162865D01*
X196951334Y-118237439D01*
X197069122Y-118291474D01*
X197189559Y-118324290D01*
X197311117Y-118335211D01*
X197352585Y-118333868D01*
X197470080Y-118315612D01*
X197580089Y-118276617D01*
X197681430Y-118217670D01*
X197772921Y-118139557D01*
X197853380Y-118043064D01*
X197921627Y-117928978D01*
X197937908Y-117894724D01*
X197983982Y-117771240D01*
X198019106Y-117632918D01*
X198043197Y-117483561D01*
X198056173Y-117326973D01*
X198057949Y-117166956D01*
X198048443Y-117007314D01*
X198027572Y-116851850D01*
X197995252Y-116704366D01*
X197951399Y-116568667D01*
X197913982Y-116482076D01*
X197849185Y-116368688D01*
X197773772Y-116275070D01*
X197687418Y-116200959D01*
X197589795Y-116146094D01*
X197480577Y-116110212D01*
X197359439Y-116093051D01*
X197290038Y-116091880D01*
X197167168Y-116106141D01*
X197051664Y-116141241D01*
X196944953Y-116196682D01*
X196848464Y-116271964D01*
X196832720Y-116286440D01*
X196802150Y-116312962D01*
X196779809Y-116330138D01*
X196769691Y-116334787D01*
X196767706Y-116332597D01*
X196753241Y-116313721D01*
X196729400Y-116280397D01*
X196698029Y-116235380D01*
X196660974Y-116181425D01*
X196620083Y-116121285D01*
X196577202Y-116057718D01*
X196534178Y-115993476D01*
X196492857Y-115931315D01*
X196455086Y-115873991D01*
X196422712Y-115824257D01*
X196397582Y-115784868D01*
X196381542Y-115758580D01*
X196376439Y-115748147D01*
X196381050Y-115743941D01*
X196400267Y-115738933D01*
X196409838Y-115736386D01*
X196437809Y-115725249D01*
X196479448Y-115706802D01*
X196530995Y-115682725D01*
X196588690Y-115654699D01*
X196599957Y-115649154D01*
X196777687Y-115569889D01*
X196947490Y-115510385D01*
X197111430Y-115470245D01*
X197271571Y-115449071D01*
X197429977Y-115446466D01*
X197588711Y-115462033D01*
G36*
X200586137Y-119773463D02*
G01*
X200620291Y-119796776D01*
X200648000Y-119824485D01*
X200648000Y-120137537D01*
X200647959Y-120221567D01*
X200647701Y-120295789D01*
X200647030Y-120352541D01*
X200645752Y-120394512D01*
X200643673Y-120424389D01*
X200640599Y-120444861D01*
X200636334Y-120458614D01*
X200630684Y-120468337D01*
X200623455Y-120476717D01*
X200591991Y-120498181D01*
X200556826Y-120499947D01*
X200523822Y-120480267D01*
X200518516Y-120474398D01*
X200513066Y-120465314D01*
X200508900Y-120451973D01*
X200505846Y-120431757D01*
X200503732Y-120402049D01*
X200502386Y-120360232D01*
X200501638Y-120303689D01*
X200501314Y-120229802D01*
X200501245Y-120135956D01*
X200501284Y-120060294D01*
X200501539Y-119982385D01*
X200502183Y-119922375D01*
X200503387Y-119877648D01*
X200505324Y-119845585D01*
X200508164Y-119823571D01*
X200512079Y-119808987D01*
X200517242Y-119799218D01*
X200523822Y-119791645D01*
X200553006Y-119772623D01*
X200586137Y-119773463D01*
G37*
X200586137Y-119773463D02*
X200620291Y-119796776D01*
X200648000Y-119824485D01*
X200648000Y-120137537D01*
X200647959Y-120221567D01*
X200647701Y-120295789D01*
X200647030Y-120352541D01*
X200645752Y-120394512D01*
X200643673Y-120424389D01*
X200640599Y-120444861D01*
X200636334Y-120458614D01*
X200630684Y-120468337D01*
X200623455Y-120476717D01*
X200591991Y-120498181D01*
X200556826Y-120499947D01*
X200523822Y-120480267D01*
X200518516Y-120474398D01*
X200513066Y-120465314D01*
X200508900Y-120451973D01*
X200505846Y-120431757D01*
X200503732Y-120402049D01*
X200502386Y-120360232D01*
X200501638Y-120303689D01*
X200501314Y-120229802D01*
X200501245Y-120135956D01*
X200501284Y-120060294D01*
X200501539Y-119982385D01*
X200502183Y-119922375D01*
X200503387Y-119877648D01*
X200505324Y-119845585D01*
X200508164Y-119823571D01*
X200512079Y-119808987D01*
X200517242Y-119799218D01*
X200523822Y-119791645D01*
X200553006Y-119772623D01*
X200586137Y-119773463D01*
G36*
X196327690Y-118140282D02*
G01*
X196327755Y-118143467D01*
X196327261Y-118177363D01*
X196323632Y-118252202D01*
X196316022Y-118314401D01*
X196303688Y-118370984D01*
X196259313Y-118497076D01*
X196196400Y-118611679D01*
X196116238Y-118712568D01*
X196019740Y-118798924D01*
X195907822Y-118869932D01*
X195781397Y-118924776D01*
X195641378Y-118962638D01*
X195605149Y-118968351D01*
X195526155Y-118974313D01*
X195437841Y-118974646D01*
X195348075Y-118969659D01*
X195264722Y-118959666D01*
X195195651Y-118944978D01*
X195109187Y-118914749D01*
X194999286Y-118860057D01*
X194901956Y-118792543D01*
X194839867Y-118741556D01*
X194836605Y-118837622D01*
X194833343Y-118933689D01*
X194410450Y-118933689D01*
X194399543Y-118933686D01*
X194305056Y-118933380D01*
X194218331Y-118932616D01*
X194141837Y-118931451D01*
X194078043Y-118929942D01*
X194029418Y-118928147D01*
X193998433Y-118926121D01*
X193987556Y-118923922D01*
X193987578Y-118923463D01*
X193994614Y-118907910D01*
X194010434Y-118885071D01*
X194014734Y-118879638D01*
X194025777Y-118865606D01*
X194035311Y-118852186D01*
X194043461Y-118837722D01*
X194050352Y-118820556D01*
X194056111Y-118799034D01*
X194060862Y-118771498D01*
X194064731Y-118736292D01*
X194067844Y-118691760D01*
X194070325Y-118636246D01*
X194072300Y-118568093D01*
X194073894Y-118485645D01*
X194075234Y-118387246D01*
X194076444Y-118271239D01*
X194076896Y-118220462D01*
X194879378Y-118220462D01*
X194924048Y-118276973D01*
X194936785Y-118292212D01*
X194983604Y-118334844D01*
X195044255Y-118370672D01*
X195054897Y-118375850D01*
X195093676Y-118392745D01*
X195128692Y-118402909D01*
X195168722Y-118408325D01*
X195222541Y-118410978D01*
X195240648Y-118411383D01*
X195316011Y-118408540D01*
X195376743Y-118396620D01*
X195428452Y-118374037D01*
X195476746Y-118339211D01*
X195481803Y-118334798D01*
X195530272Y-118279160D01*
X195558459Y-118215333D01*
X195567752Y-118140282D01*
X195560520Y-118068693D01*
X195535796Y-118005645D01*
X195491249Y-117947758D01*
X195436319Y-117900808D01*
X195363894Y-117860961D01*
X195277340Y-117833263D01*
X195174670Y-117817096D01*
X195053894Y-117811842D01*
X195045007Y-117811857D01*
X194989660Y-117812655D01*
X194942736Y-117814488D01*
X194908953Y-117817111D01*
X194893028Y-117820274D01*
X194888943Y-117826741D01*
X194884572Y-117848875D01*
X194881604Y-117887988D01*
X194879914Y-117945939D01*
X194879378Y-118024586D01*
X194879378Y-118220462D01*
X194076896Y-118220462D01*
X194077649Y-118135968D01*
X194078975Y-117979778D01*
X194080228Y-117837012D01*
X194081651Y-117691942D01*
X194083176Y-117566027D01*
X194084933Y-117457436D01*
X194087051Y-117364334D01*
X194089660Y-117284891D01*
X194092890Y-117217273D01*
X194096869Y-117159649D01*
X194101728Y-117110185D01*
X194107597Y-117067050D01*
X194114604Y-117028410D01*
X194122880Y-116992434D01*
X194132554Y-116957289D01*
X194143756Y-116921142D01*
X194156616Y-116882161D01*
X194172090Y-116839091D01*
X194214994Y-116746871D01*
X194268735Y-116667099D01*
X194337576Y-116592965D01*
X194415185Y-116529405D01*
X194519761Y-116467725D01*
X194639244Y-116420202D01*
X194774508Y-116386567D01*
X194926426Y-116366552D01*
X195095872Y-116359889D01*
X195153890Y-116360287D01*
X195219398Y-116362335D01*
X195280693Y-116366704D01*
X195342097Y-116374035D01*
X195407932Y-116384969D01*
X195482520Y-116400147D01*
X195570184Y-116420209D01*
X195675245Y-116445797D01*
X195703806Y-116452820D01*
X195779054Y-116470776D01*
X195849388Y-116486820D01*
X195910567Y-116500028D01*
X195958354Y-116509474D01*
X195988511Y-116514231D01*
X196016783Y-116517910D01*
X196043060Y-116523187D01*
X196053059Y-116527942D01*
X196049952Y-116536781D01*
X196039194Y-116564072D01*
X196021864Y-116606906D01*
X195999126Y-116662425D01*
X195972147Y-116727772D01*
X195942090Y-116800089D01*
X195935493Y-116815879D01*
X195896907Y-116906484D01*
X195865768Y-116976217D01*
X195841917Y-117025405D01*
X195825198Y-117054374D01*
X195815454Y-117063452D01*
X195807766Y-117061405D01*
X195781415Y-117051760D01*
X195742982Y-117036190D01*
X195697822Y-117016815D01*
X195603293Y-116978814D01*
X195466480Y-116937780D01*
X195325289Y-116912612D01*
X195287314Y-116908611D01*
X195184059Y-116906447D01*
X195096952Y-116919622D01*
X195025129Y-116948756D01*
X194967731Y-116994466D01*
X194923896Y-117057372D01*
X194892762Y-117138092D01*
X194873470Y-117237245D01*
X194866050Y-117296224D01*
X195027936Y-117289445D01*
X195154495Y-117287813D01*
X195305951Y-117294194D01*
X195454396Y-117308777D01*
X195590578Y-117330882D01*
X195655245Y-117345821D01*
X195787490Y-117388741D01*
X195909762Y-117445340D01*
X196019685Y-117514017D01*
X196114883Y-117593170D01*
X196192980Y-117681196D01*
X196251599Y-117776493D01*
X196275595Y-117828864D01*
X196301232Y-117899590D01*
X196317478Y-117970812D01*
X196325822Y-118049712D01*
X196327690Y-118140282D01*
G37*
X196327690Y-118140282D02*
X196327755Y-118143467D01*
X196327261Y-118177363D01*
X196323632Y-118252202D01*
X196316022Y-118314401D01*
X196303688Y-118370984D01*
X196259313Y-118497076D01*
X196196400Y-118611679D01*
X196116238Y-118712568D01*
X196019740Y-118798924D01*
X195907822Y-118869932D01*
X195781397Y-118924776D01*
X195641378Y-118962638D01*
X195605149Y-118968351D01*
X195526155Y-118974313D01*
X195437841Y-118974646D01*
X195348075Y-118969659D01*
X195264722Y-118959666D01*
X195195651Y-118944978D01*
X195109187Y-118914749D01*
X194999286Y-118860057D01*
X194901956Y-118792543D01*
X194839867Y-118741556D01*
X194836605Y-118837622D01*
X194833343Y-118933689D01*
X194410450Y-118933689D01*
X194399543Y-118933686D01*
X194305056Y-118933380D01*
X194218331Y-118932616D01*
X194141837Y-118931451D01*
X194078043Y-118929942D01*
X194029418Y-118928147D01*
X193998433Y-118926121D01*
X193987556Y-118923922D01*
X193987578Y-118923463D01*
X193994614Y-118907910D01*
X194010434Y-118885071D01*
X194014734Y-118879638D01*
X194025777Y-118865606D01*
X194035311Y-118852186D01*
X194043461Y-118837722D01*
X194050352Y-118820556D01*
X194056111Y-118799034D01*
X194060862Y-118771498D01*
X194064731Y-118736292D01*
X194067844Y-118691760D01*
X194070325Y-118636246D01*
X194072300Y-118568093D01*
X194073894Y-118485645D01*
X194075234Y-118387246D01*
X194076444Y-118271239D01*
X194076896Y-118220462D01*
X194879378Y-118220462D01*
X194924048Y-118276973D01*
X194936785Y-118292212D01*
X194983604Y-118334844D01*
X195044255Y-118370672D01*
X195054897Y-118375850D01*
X195093676Y-118392745D01*
X195128692Y-118402909D01*
X195168722Y-118408325D01*
X195222541Y-118410978D01*
X195240648Y-118411383D01*
X195316011Y-118408540D01*
X195376743Y-118396620D01*
X195428452Y-118374037D01*
X195476746Y-118339211D01*
X195481803Y-118334798D01*
X195530272Y-118279160D01*
X195558459Y-118215333D01*
X195567752Y-118140282D01*
X195560520Y-118068693D01*
X195535796Y-118005645D01*
X195491249Y-117947758D01*
X195436319Y-117900808D01*
X195363894Y-117860961D01*
X195277340Y-117833263D01*
X195174670Y-117817096D01*
X195053894Y-117811842D01*
X195045007Y-117811857D01*
X194989660Y-117812655D01*
X194942736Y-117814488D01*
X194908953Y-117817111D01*
X194893028Y-117820274D01*
X194888943Y-117826741D01*
X194884572Y-117848875D01*
X194881604Y-117887988D01*
X194879914Y-117945939D01*
X194879378Y-118024586D01*
X194879378Y-118220462D01*
X194076896Y-118220462D01*
X194077649Y-118135968D01*
X194078975Y-117979778D01*
X194080228Y-117837012D01*
X194081651Y-117691942D01*
X194083176Y-117566027D01*
X194084933Y-117457436D01*
X194087051Y-117364334D01*
X194089660Y-117284891D01*
X194092890Y-117217273D01*
X194096869Y-117159649D01*
X194101728Y-117110185D01*
X194107597Y-117067050D01*
X194114604Y-117028410D01*
X194122880Y-116992434D01*
X194132554Y-116957289D01*
X194143756Y-116921142D01*
X194156616Y-116882161D01*
X194172090Y-116839091D01*
X194214994Y-116746871D01*
X194268735Y-116667099D01*
X194337576Y-116592965D01*
X194415185Y-116529405D01*
X194519761Y-116467725D01*
X194639244Y-116420202D01*
X194774508Y-116386567D01*
X194926426Y-116366552D01*
X195095872Y-116359889D01*
X195153890Y-116360287D01*
X195219398Y-116362335D01*
X195280693Y-116366704D01*
X195342097Y-116374035D01*
X195407932Y-116384969D01*
X195482520Y-116400147D01*
X195570184Y-116420209D01*
X195675245Y-116445797D01*
X195703806Y-116452820D01*
X195779054Y-116470776D01*
X195849388Y-116486820D01*
X195910567Y-116500028D01*
X195958354Y-116509474D01*
X195988511Y-116514231D01*
X196016783Y-116517910D01*
X196043060Y-116523187D01*
X196053059Y-116527942D01*
X196049952Y-116536781D01*
X196039194Y-116564072D01*
X196021864Y-116606906D01*
X195999126Y-116662425D01*
X195972147Y-116727772D01*
X195942090Y-116800089D01*
X195935493Y-116815879D01*
X195896907Y-116906484D01*
X195865768Y-116976217D01*
X195841917Y-117025405D01*
X195825198Y-117054374D01*
X195815454Y-117063452D01*
X195807766Y-117061405D01*
X195781415Y-117051760D01*
X195742982Y-117036190D01*
X195697822Y-117016815D01*
X195603293Y-116978814D01*
X195466480Y-116937780D01*
X195325289Y-116912612D01*
X195287314Y-116908611D01*
X195184059Y-116906447D01*
X195096952Y-116919622D01*
X195025129Y-116948756D01*
X194967731Y-116994466D01*
X194923896Y-117057372D01*
X194892762Y-117138092D01*
X194873470Y-117237245D01*
X194866050Y-117296224D01*
X195027936Y-117289445D01*
X195154495Y-117287813D01*
X195305951Y-117294194D01*
X195454396Y-117308777D01*
X195590578Y-117330882D01*
X195655245Y-117345821D01*
X195787490Y-117388741D01*
X195909762Y-117445340D01*
X196019685Y-117514017D01*
X196114883Y-117593170D01*
X196192980Y-117681196D01*
X196251599Y-117776493D01*
X196275595Y-117828864D01*
X196301232Y-117899590D01*
X196317478Y-117970812D01*
X196325822Y-118049712D01*
X196327690Y-118140282D01*
G36*
X201440853Y-119769936D02*
G01*
X201507100Y-119775366D01*
X201562400Y-119784964D01*
X201613283Y-119799825D01*
X201684595Y-119832958D01*
X201735752Y-119875640D01*
X201766575Y-119927705D01*
X201776889Y-119988983D01*
X201775952Y-120020232D01*
X201770160Y-120045029D01*
X201755353Y-120066699D01*
X201727380Y-120094049D01*
X201719402Y-120101378D01*
X201695692Y-120122281D01*
X201673298Y-120139251D01*
X201649265Y-120153205D01*
X201620637Y-120165056D01*
X201584460Y-120175720D01*
X201537780Y-120186111D01*
X201477641Y-120197146D01*
X201401090Y-120209738D01*
X201305171Y-120224804D01*
X201286808Y-120227838D01*
X201224478Y-120241458D01*
X201179260Y-120257192D01*
X201152976Y-120274263D01*
X201147447Y-120291897D01*
X201150068Y-120296168D01*
X201168000Y-120311233D01*
X201196126Y-120327867D01*
X201208926Y-120333857D01*
X201230224Y-120341050D01*
X201256610Y-120345827D01*
X201292454Y-120348646D01*
X201342128Y-120349964D01*
X201410000Y-120350237D01*
X201427785Y-120350164D01*
X201495406Y-120349053D01*
X201560345Y-120346828D01*
X201615970Y-120343762D01*
X201655651Y-120340127D01*
X201691162Y-120336059D01*
X201720415Y-120335276D01*
X201739315Y-120339876D01*
X201754429Y-120350551D01*
X201758085Y-120354144D01*
X201774427Y-120385918D01*
X201773107Y-120421572D01*
X201754150Y-120452190D01*
X201733780Y-120463796D01*
X201697796Y-120476491D01*
X201655372Y-120486541D01*
X201651922Y-120487140D01*
X201609252Y-120492356D01*
X201551866Y-120496730D01*
X201486849Y-120499818D01*
X201421289Y-120501177D01*
X201405057Y-120501218D01*
X201306744Y-120498741D01*
X201226692Y-120490735D01*
X201161513Y-120476203D01*
X201107817Y-120454149D01*
X201062216Y-120423576D01*
X201021323Y-120383486D01*
X201001202Y-120357259D01*
X200989576Y-120327712D01*
X200986667Y-120287995D01*
X200986808Y-120276026D01*
X200990681Y-120243345D01*
X201003065Y-120216819D01*
X201028230Y-120185971D01*
X201049442Y-120163831D01*
X201075838Y-120141285D01*
X201105555Y-120122917D01*
X201141785Y-120107661D01*
X201187717Y-120094449D01*
X201246544Y-120082214D01*
X201321456Y-120069889D01*
X201415645Y-120056406D01*
X201460957Y-120049396D01*
X201528911Y-120034837D01*
X201578047Y-120018337D01*
X201607614Y-120000439D01*
X201616864Y-119981685D01*
X201605048Y-119962615D01*
X201571416Y-119943771D01*
X201568370Y-119942557D01*
X201522011Y-119930479D01*
X201459361Y-119922279D01*
X201385927Y-119918119D01*
X201307217Y-119918161D01*
X201228739Y-119922569D01*
X201156000Y-119931505D01*
X201152073Y-119932154D01*
X201103257Y-119939861D01*
X201071005Y-119943473D01*
X201050008Y-119942876D01*
X201034954Y-119937954D01*
X201020534Y-119928596D01*
X201019364Y-119927725D01*
X200994847Y-119897351D01*
X200990054Y-119861850D01*
X201005860Y-119827269D01*
X201010406Y-119822813D01*
X201040020Y-119807673D01*
X201087002Y-119794550D01*
X201147306Y-119783750D01*
X201216888Y-119775581D01*
X201291703Y-119770351D01*
X201367706Y-119768367D01*
X201440853Y-119769936D01*
G37*
X201440853Y-119769936D02*
X201507100Y-119775366D01*
X201562400Y-119784964D01*
X201613283Y-119799825D01*
X201684595Y-119832958D01*
X201735752Y-119875640D01*
X201766575Y-119927705D01*
X201776889Y-119988983D01*
X201775952Y-120020232D01*
X201770160Y-120045029D01*
X201755353Y-120066699D01*
X201727380Y-120094049D01*
X201719402Y-120101378D01*
X201695692Y-120122281D01*
X201673298Y-120139251D01*
X201649265Y-120153205D01*
X201620637Y-120165056D01*
X201584460Y-120175720D01*
X201537780Y-120186111D01*
X201477641Y-120197146D01*
X201401090Y-120209738D01*
X201305171Y-120224804D01*
X201286808Y-120227838D01*
X201224478Y-120241458D01*
X201179260Y-120257192D01*
X201152976Y-120274263D01*
X201147447Y-120291897D01*
X201150068Y-120296168D01*
X201168000Y-120311233D01*
X201196126Y-120327867D01*
X201208926Y-120333857D01*
X201230224Y-120341050D01*
X201256610Y-120345827D01*
X201292454Y-120348646D01*
X201342128Y-120349964D01*
X201410000Y-120350237D01*
X201427785Y-120350164D01*
X201495406Y-120349053D01*
X201560345Y-120346828D01*
X201615970Y-120343762D01*
X201655651Y-120340127D01*
X201691162Y-120336059D01*
X201720415Y-120335276D01*
X201739315Y-120339876D01*
X201754429Y-120350551D01*
X201758085Y-120354144D01*
X201774427Y-120385918D01*
X201773107Y-120421572D01*
X201754150Y-120452190D01*
X201733780Y-120463796D01*
X201697796Y-120476491D01*
X201655372Y-120486541D01*
X201651922Y-120487140D01*
X201609252Y-120492356D01*
X201551866Y-120496730D01*
X201486849Y-120499818D01*
X201421289Y-120501177D01*
X201405057Y-120501218D01*
X201306744Y-120498741D01*
X201226692Y-120490735D01*
X201161513Y-120476203D01*
X201107817Y-120454149D01*
X201062216Y-120423576D01*
X201021323Y-120383486D01*
X201001202Y-120357259D01*
X200989576Y-120327712D01*
X200986667Y-120287995D01*
X200986808Y-120276026D01*
X200990681Y-120243345D01*
X201003065Y-120216819D01*
X201028230Y-120185971D01*
X201049442Y-120163831D01*
X201075838Y-120141285D01*
X201105555Y-120122917D01*
X201141785Y-120107661D01*
X201187717Y-120094449D01*
X201246544Y-120082214D01*
X201321456Y-120069889D01*
X201415645Y-120056406D01*
X201460957Y-120049396D01*
X201528911Y-120034837D01*
X201578047Y-120018337D01*
X201607614Y-120000439D01*
X201616864Y-119981685D01*
X201605048Y-119962615D01*
X201571416Y-119943771D01*
X201568370Y-119942557D01*
X201522011Y-119930479D01*
X201459361Y-119922279D01*
X201385927Y-119918119D01*
X201307217Y-119918161D01*
X201228739Y-119922569D01*
X201156000Y-119931505D01*
X201152073Y-119932154D01*
X201103257Y-119939861D01*
X201071005Y-119943473D01*
X201050008Y-119942876D01*
X201034954Y-119937954D01*
X201020534Y-119928596D01*
X201019364Y-119927725D01*
X200994847Y-119897351D01*
X200990054Y-119861850D01*
X201005860Y-119827269D01*
X201010406Y-119822813D01*
X201040020Y-119807673D01*
X201087002Y-119794550D01*
X201147306Y-119783750D01*
X201216888Y-119775581D01*
X201291703Y-119770351D01*
X201367706Y-119768367D01*
X201440853Y-119769936D01*
G36*
X211716724Y-112006410D02*
G01*
X211864401Y-112007682D01*
X212040911Y-112013493D01*
X212199628Y-112024913D01*
X212350342Y-112042935D01*
X212502843Y-112068552D01*
X212666918Y-112102757D01*
X212799742Y-112135195D01*
X213139661Y-112242522D01*
X213470815Y-112381816D01*
X213789965Y-112551051D01*
X214093870Y-112748201D01*
X214379289Y-112971241D01*
X214642981Y-113218147D01*
X214881706Y-113486891D01*
X214886234Y-113492513D01*
X215100079Y-113786275D01*
X215286723Y-114101024D01*
X215445262Y-114434616D01*
X215574791Y-114784910D01*
X215674407Y-115149763D01*
X215743203Y-115527034D01*
X215751207Y-115603754D01*
X215758056Y-115718354D01*
X215762223Y-115851598D01*
X215763712Y-115994715D01*
X215762524Y-116138933D01*
X215758663Y-116275481D01*
X215752130Y-116395588D01*
X215742929Y-116490482D01*
X215739559Y-116515295D01*
X215671662Y-116883323D01*
X215571955Y-117242747D01*
X215441774Y-117590408D01*
X215282450Y-117923149D01*
X215095316Y-118237810D01*
X214881706Y-118531232D01*
X214833313Y-118589827D01*
X214656130Y-118783315D01*
X214456083Y-118974584D01*
X214241854Y-119156143D01*
X214022124Y-119320497D01*
X213805574Y-119460152D01*
X213731684Y-119502435D01*
X213449396Y-119644643D01*
X213150486Y-119767548D01*
X212843337Y-119868305D01*
X212536335Y-119944069D01*
X212237862Y-119991997D01*
X212228506Y-119992972D01*
X212164328Y-119997548D01*
X212074315Y-120001711D01*
X211966089Y-120005208D01*
X211847271Y-120007781D01*
X211725483Y-120009175D01*
X211344483Y-120011448D01*
X211344483Y-118776420D01*
X211725483Y-118776451D01*
X211819152Y-118776273D01*
X211932619Y-118775088D01*
X212023040Y-118772351D01*
X212097552Y-118767552D01*
X212163296Y-118760183D01*
X212227412Y-118749735D01*
X212297038Y-118735697D01*
X212304587Y-118734072D01*
X212613795Y-118649874D01*
X212906493Y-118535227D01*
X213181360Y-118391021D01*
X213437075Y-118218148D01*
X213672318Y-118017496D01*
X213885767Y-117789958D01*
X214076101Y-117536423D01*
X214088623Y-117517418D01*
X214163273Y-117392423D01*
X214237792Y-117249843D01*
X214308099Y-117098873D01*
X214370113Y-116948705D01*
X214419752Y-116808533D01*
X214452935Y-116687551D01*
X214465336Y-116630620D01*
X212132759Y-116630620D01*
X212132759Y-115386896D01*
X214465336Y-115386896D01*
X214452935Y-115329965D01*
X214444866Y-115296073D01*
X214408483Y-115175709D01*
X214357759Y-115038281D01*
X214296644Y-114892844D01*
X214229088Y-114748452D01*
X214159041Y-114614160D01*
X214090452Y-114499022D01*
X214057827Y-114449936D01*
X213872104Y-114207687D01*
X213660776Y-113987864D01*
X213426178Y-113792059D01*
X213170644Y-113621860D01*
X212896507Y-113478857D01*
X212606101Y-113364640D01*
X212301761Y-113280798D01*
X212256873Y-113271360D01*
X212195037Y-113260370D01*
X212132155Y-113252408D01*
X212061431Y-113247004D01*
X211976068Y-113243685D01*
X211869270Y-113241980D01*
X211734240Y-113241417D01*
X211344480Y-113241034D01*
X211344482Y-112623551D01*
X211344483Y-112006069D01*
X211716724Y-112006410D01*
G37*
X211716724Y-112006410D02*
X211864401Y-112007682D01*
X212040911Y-112013493D01*
X212199628Y-112024913D01*
X212350342Y-112042935D01*
X212502843Y-112068552D01*
X212666918Y-112102757D01*
X212799742Y-112135195D01*
X213139661Y-112242522D01*
X213470815Y-112381816D01*
X213789965Y-112551051D01*
X214093870Y-112748201D01*
X214379289Y-112971241D01*
X214642981Y-113218147D01*
X214881706Y-113486891D01*
X214886234Y-113492513D01*
X215100079Y-113786275D01*
X215286723Y-114101024D01*
X215445262Y-114434616D01*
X215574791Y-114784910D01*
X215674407Y-115149763D01*
X215743203Y-115527034D01*
X215751207Y-115603754D01*
X215758056Y-115718354D01*
X215762223Y-115851598D01*
X215763712Y-115994715D01*
X215762524Y-116138933D01*
X215758663Y-116275481D01*
X215752130Y-116395588D01*
X215742929Y-116490482D01*
X215739559Y-116515295D01*
X215671662Y-116883323D01*
X215571955Y-117242747D01*
X215441774Y-117590408D01*
X215282450Y-117923149D01*
X215095316Y-118237810D01*
X214881706Y-118531232D01*
X214833313Y-118589827D01*
X214656130Y-118783315D01*
X214456083Y-118974584D01*
X214241854Y-119156143D01*
X214022124Y-119320497D01*
X213805574Y-119460152D01*
X213731684Y-119502435D01*
X213449396Y-119644643D01*
X213150486Y-119767548D01*
X212843337Y-119868305D01*
X212536335Y-119944069D01*
X212237862Y-119991997D01*
X212228506Y-119992972D01*
X212164328Y-119997548D01*
X212074315Y-120001711D01*
X211966089Y-120005208D01*
X211847271Y-120007781D01*
X211725483Y-120009175D01*
X211344483Y-120011448D01*
X211344483Y-118776420D01*
X211725483Y-118776451D01*
X211819152Y-118776273D01*
X211932619Y-118775088D01*
X212023040Y-118772351D01*
X212097552Y-118767552D01*
X212163296Y-118760183D01*
X212227412Y-118749735D01*
X212297038Y-118735697D01*
X212304587Y-118734072D01*
X212613795Y-118649874D01*
X212906493Y-118535227D01*
X213181360Y-118391021D01*
X213437075Y-118218148D01*
X213672318Y-118017496D01*
X213885767Y-117789958D01*
X214076101Y-117536423D01*
X214088623Y-117517418D01*
X214163273Y-117392423D01*
X214237792Y-117249843D01*
X214308099Y-117098873D01*
X214370113Y-116948705D01*
X214419752Y-116808533D01*
X214452935Y-116687551D01*
X214465336Y-116630620D01*
X212132759Y-116630620D01*
X212132759Y-115386896D01*
X214465336Y-115386896D01*
X214452935Y-115329965D01*
X214444866Y-115296073D01*
X214408483Y-115175709D01*
X214357759Y-115038281D01*
X214296644Y-114892844D01*
X214229088Y-114748452D01*
X214159041Y-114614160D01*
X214090452Y-114499022D01*
X214057827Y-114449936D01*
X213872104Y-114207687D01*
X213660776Y-113987864D01*
X213426178Y-113792059D01*
X213170644Y-113621860D01*
X212896507Y-113478857D01*
X212606101Y-113364640D01*
X212301761Y-113280798D01*
X212256873Y-113271360D01*
X212195037Y-113260370D01*
X212132155Y-113252408D01*
X212061431Y-113247004D01*
X211976068Y-113243685D01*
X211869270Y-113241980D01*
X211734240Y-113241417D01*
X211344480Y-113241034D01*
X211344482Y-112623551D01*
X211344483Y-112006069D01*
X211716724Y-112006410D01*
G36*
X218570433Y-112007211D02*
G01*
X218687864Y-112009596D01*
X218803024Y-112013302D01*
X218909435Y-112018225D01*
X219000621Y-112024263D01*
X219070104Y-112031311D01*
X219322751Y-112072926D01*
X219685170Y-112161526D01*
X220034959Y-112281782D01*
X220370311Y-112432636D01*
X220689419Y-112613032D01*
X220990477Y-112821913D01*
X221271677Y-113058222D01*
X221531213Y-113320902D01*
X221767277Y-113608896D01*
X221871651Y-113755609D01*
X222066938Y-114074223D01*
X222230769Y-114408007D01*
X222362805Y-114756124D01*
X222462706Y-115117734D01*
X222530132Y-115492000D01*
X222535165Y-115534529D01*
X222544925Y-115658391D01*
X222551191Y-115803834D01*
X222553965Y-115961450D01*
X222553246Y-116121833D01*
X222549034Y-116275577D01*
X222541329Y-116413273D01*
X222530132Y-116525517D01*
X222512630Y-116643146D01*
X222435649Y-117009500D01*
X222327269Y-117362630D01*
X222188800Y-117700952D01*
X222021553Y-118022883D01*
X221826840Y-118326838D01*
X221605970Y-118611235D01*
X221360254Y-118874489D01*
X221091003Y-119115017D01*
X220799528Y-119331236D01*
X220487139Y-119521562D01*
X220155147Y-119684411D01*
X219804862Y-119818200D01*
X219697498Y-119851476D01*
X219528544Y-119897048D01*
X219353141Y-119937598D01*
X219184180Y-119970217D01*
X219034552Y-119991997D01*
X219033879Y-119992073D01*
X218973835Y-119996952D01*
X218891066Y-120001099D01*
X218791985Y-120004454D01*
X218683009Y-120006951D01*
X218570552Y-120008529D01*
X218461029Y-120009123D01*
X218360856Y-120008672D01*
X218276448Y-120007110D01*
X218214220Y-120004377D01*
X218180586Y-120000407D01*
X218141173Y-119989844D01*
X218141173Y-118775640D01*
X218504655Y-118776061D01*
X218577674Y-118775859D01*
X218743865Y-118772322D01*
X218887073Y-118763497D01*
X219015828Y-118748200D01*
X219138658Y-118725247D01*
X219264095Y-118693453D01*
X219400666Y-118651633D01*
X219643630Y-118560003D01*
X219919124Y-118423081D01*
X220175395Y-118258607D01*
X220410739Y-118068527D01*
X220623449Y-117854784D01*
X220811820Y-117619326D01*
X220974146Y-117364097D01*
X221108722Y-117091043D01*
X221213842Y-116802109D01*
X221287800Y-116499241D01*
X221289439Y-116490239D01*
X221305287Y-116371515D01*
X221315836Y-116230185D01*
X221321077Y-116075786D01*
X221321000Y-115917858D01*
X221315596Y-115765938D01*
X221304855Y-115629564D01*
X221288768Y-115518275D01*
X221262075Y-115395701D01*
X221171956Y-115091897D01*
X221051165Y-114803501D01*
X220900602Y-114532220D01*
X220721165Y-114279761D01*
X220513755Y-114047831D01*
X220435262Y-113971962D01*
X220233467Y-113801039D01*
X220018109Y-113653598D01*
X219779035Y-113522377D01*
X219678788Y-113474752D01*
X219436953Y-113376669D01*
X219197830Y-113305478D01*
X218953607Y-113259540D01*
X218696476Y-113237216D01*
X218418626Y-113236867D01*
X218141173Y-113246495D01*
X218141173Y-112027672D01*
X218180586Y-112017109D01*
X218207530Y-112012949D01*
X218269278Y-112009016D01*
X218354663Y-112006817D01*
X218457207Y-112006250D01*
X218570433Y-112007211D01*
G37*
X218570433Y-112007211D02*
X218687864Y-112009596D01*
X218803024Y-112013302D01*
X218909435Y-112018225D01*
X219000621Y-112024263D01*
X219070104Y-112031311D01*
X219322751Y-112072926D01*
X219685170Y-112161526D01*
X220034959Y-112281782D01*
X220370311Y-112432636D01*
X220689419Y-112613032D01*
X220990477Y-112821913D01*
X221271677Y-113058222D01*
X221531213Y-113320902D01*
X221767277Y-113608896D01*
X221871651Y-113755609D01*
X222066938Y-114074223D01*
X222230769Y-114408007D01*
X222362805Y-114756124D01*
X222462706Y-115117734D01*
X222530132Y-115492000D01*
X222535165Y-115534529D01*
X222544925Y-115658391D01*
X222551191Y-115803834D01*
X222553965Y-115961450D01*
X222553246Y-116121833D01*
X222549034Y-116275577D01*
X222541329Y-116413273D01*
X222530132Y-116525517D01*
X222512630Y-116643146D01*
X222435649Y-117009500D01*
X222327269Y-117362630D01*
X222188800Y-117700952D01*
X222021553Y-118022883D01*
X221826840Y-118326838D01*
X221605970Y-118611235D01*
X221360254Y-118874489D01*
X221091003Y-119115017D01*
X220799528Y-119331236D01*
X220487139Y-119521562D01*
X220155147Y-119684411D01*
X219804862Y-119818200D01*
X219697498Y-119851476D01*
X219528544Y-119897048D01*
X219353141Y-119937598D01*
X219184180Y-119970217D01*
X219034552Y-119991997D01*
X219033879Y-119992073D01*
X218973835Y-119996952D01*
X218891066Y-120001099D01*
X218791985Y-120004454D01*
X218683009Y-120006951D01*
X218570552Y-120008529D01*
X218461029Y-120009123D01*
X218360856Y-120008672D01*
X218276448Y-120007110D01*
X218214220Y-120004377D01*
X218180586Y-120000407D01*
X218141173Y-119989844D01*
X218141173Y-118775640D01*
X218504655Y-118776061D01*
X218577674Y-118775859D01*
X218743865Y-118772322D01*
X218887073Y-118763497D01*
X219015828Y-118748200D01*
X219138658Y-118725247D01*
X219264095Y-118693453D01*
X219400666Y-118651633D01*
X219643630Y-118560003D01*
X219919124Y-118423081D01*
X220175395Y-118258607D01*
X220410739Y-118068527D01*
X220623449Y-117854784D01*
X220811820Y-117619326D01*
X220974146Y-117364097D01*
X221108722Y-117091043D01*
X221213842Y-116802109D01*
X221287800Y-116499241D01*
X221289439Y-116490239D01*
X221305287Y-116371515D01*
X221315836Y-116230185D01*
X221321077Y-116075786D01*
X221321000Y-115917858D01*
X221315596Y-115765938D01*
X221304855Y-115629564D01*
X221288768Y-115518275D01*
X221262075Y-115395701D01*
X221171956Y-115091897D01*
X221051165Y-114803501D01*
X220900602Y-114532220D01*
X220721165Y-114279761D01*
X220513755Y-114047831D01*
X220435262Y-113971962D01*
X220233467Y-113801039D01*
X220018109Y-113653598D01*
X219779035Y-113522377D01*
X219678788Y-113474752D01*
X219436953Y-113376669D01*
X219197830Y-113305478D01*
X218953607Y-113259540D01*
X218696476Y-113237216D01*
X218418626Y-113236867D01*
X218141173Y-113246495D01*
X218141173Y-112027672D01*
X218180586Y-112017109D01*
X218207530Y-112012949D01*
X218269278Y-112009016D01*
X218354663Y-112006817D01*
X218457207Y-112006250D01*
X218570433Y-112007211D01*
%TD*%
M02*
