%TF.GenerationSoftware,KiCad,Pcbnew,(7.0.0)*%
%TF.CreationDate,2024-12-23T20:55:22+00:00*%
%TF.ProjectId,5v Voltage Regulator,35762056-6f6c-4746-9167-652052656775,rev?*%
%TF.SameCoordinates,Original*%
%TF.FileFunction,Legend,Top*%
%TF.FilePolarity,Positive*%
%FSLAX46Y46*%
G04 Gerber Fmt 4.6, Leading zero omitted, Abs format (unit mm)*
G04 Created by KiCad (PCBNEW (7.0.0)) date 2024-12-23 20:55:22*
%MOMM*%
%LPD*%
G01*
G04 APERTURE LIST*
%ADD10C,0.150000*%
%ADD11C,0.010000*%
%ADD12C,0.120000*%
G04 APERTURE END LIST*
D10*
X224478571Y-112832380D02*
X224669047Y-112832380D01*
X224669047Y-112832380D02*
X224764285Y-112880000D01*
X224764285Y-112880000D02*
X224859523Y-112975238D01*
X224859523Y-112975238D02*
X224907142Y-113165714D01*
X224907142Y-113165714D02*
X224907142Y-113499047D01*
X224907142Y-113499047D02*
X224859523Y-113689523D01*
X224859523Y-113689523D02*
X224764285Y-113784761D01*
X224764285Y-113784761D02*
X224669047Y-113832380D01*
X224669047Y-113832380D02*
X224478571Y-113832380D01*
X224478571Y-113832380D02*
X224383333Y-113784761D01*
X224383333Y-113784761D02*
X224288095Y-113689523D01*
X224288095Y-113689523D02*
X224240476Y-113499047D01*
X224240476Y-113499047D02*
X224240476Y-113165714D01*
X224240476Y-113165714D02*
X224288095Y-112975238D01*
X224288095Y-112975238D02*
X224383333Y-112880000D01*
X224383333Y-112880000D02*
X224478571Y-112832380D01*
X225335714Y-112832380D02*
X225335714Y-113641904D01*
X225335714Y-113641904D02*
X225383333Y-113737142D01*
X225383333Y-113737142D02*
X225430952Y-113784761D01*
X225430952Y-113784761D02*
X225526190Y-113832380D01*
X225526190Y-113832380D02*
X225716666Y-113832380D01*
X225716666Y-113832380D02*
X225811904Y-113784761D01*
X225811904Y-113784761D02*
X225859523Y-113737142D01*
X225859523Y-113737142D02*
X225907142Y-113641904D01*
X225907142Y-113641904D02*
X225907142Y-112832380D01*
X226240476Y-112832380D02*
X226811904Y-112832380D01*
X226526190Y-113832380D02*
X226526190Y-112832380D01*
X227745238Y-113451428D02*
X228507143Y-113451428D01*
X228126190Y-113832380D02*
X228126190Y-113070476D01*
X229459523Y-112832380D02*
X228983333Y-112832380D01*
X228983333Y-112832380D02*
X228935714Y-113308571D01*
X228935714Y-113308571D02*
X228983333Y-113260952D01*
X228983333Y-113260952D02*
X229078571Y-113213333D01*
X229078571Y-113213333D02*
X229316666Y-113213333D01*
X229316666Y-113213333D02*
X229411904Y-113260952D01*
X229411904Y-113260952D02*
X229459523Y-113308571D01*
X229459523Y-113308571D02*
X229507142Y-113403809D01*
X229507142Y-113403809D02*
X229507142Y-113641904D01*
X229507142Y-113641904D02*
X229459523Y-113737142D01*
X229459523Y-113737142D02*
X229411904Y-113784761D01*
X229411904Y-113784761D02*
X229316666Y-113832380D01*
X229316666Y-113832380D02*
X229078571Y-113832380D01*
X229078571Y-113832380D02*
X228983333Y-113784761D01*
X228983333Y-113784761D02*
X228935714Y-113737142D01*
X229792857Y-112832380D02*
X230126190Y-113832380D01*
X230126190Y-113832380D02*
X230459523Y-112832380D01*
X175288095Y-97632380D02*
X175288095Y-96632380D01*
X175764285Y-97632380D02*
X175764285Y-96632380D01*
X175764285Y-96632380D02*
X176335713Y-97632380D01*
X176335713Y-97632380D02*
X176335713Y-96632380D01*
X177411904Y-97251428D02*
X178173809Y-97251428D01*
X177792856Y-97632380D02*
X177792856Y-96870476D01*
X179173808Y-97632380D02*
X178602380Y-97632380D01*
X178888094Y-97632380D02*
X178888094Y-96632380D01*
X178888094Y-96632380D02*
X178792856Y-96775238D01*
X178792856Y-96775238D02*
X178697618Y-96870476D01*
X178697618Y-96870476D02*
X178602380Y-96918095D01*
X179554761Y-96727619D02*
X179602380Y-96680000D01*
X179602380Y-96680000D02*
X179697618Y-96632380D01*
X179697618Y-96632380D02*
X179935713Y-96632380D01*
X179935713Y-96632380D02*
X180030951Y-96680000D01*
X180030951Y-96680000D02*
X180078570Y-96727619D01*
X180078570Y-96727619D02*
X180126189Y-96822857D01*
X180126189Y-96822857D02*
X180126189Y-96918095D01*
X180126189Y-96918095D02*
X180078570Y-97060952D01*
X180078570Y-97060952D02*
X179507142Y-97632380D01*
X179507142Y-97632380D02*
X180126189Y-97632380D01*
X180411904Y-96632380D02*
X180745237Y-97632380D01*
X180745237Y-97632380D02*
X181078570Y-96632380D01*
X194850000Y-117400000D02*
X215050000Y-117400000D01*
X215050000Y-117400000D02*
X215050000Y-120300000D01*
X215050000Y-120300000D02*
X194850000Y-120300000D01*
X194850000Y-120300000D02*
X194850000Y-117400000D01*
X195488095Y-119382380D02*
X195488095Y-118382380D01*
X195488095Y-118382380D02*
X195726190Y-118382380D01*
X195726190Y-118382380D02*
X195869047Y-118430000D01*
X195869047Y-118430000D02*
X195964285Y-118525238D01*
X195964285Y-118525238D02*
X196011904Y-118620476D01*
X196011904Y-118620476D02*
X196059523Y-118810952D01*
X196059523Y-118810952D02*
X196059523Y-118953809D01*
X196059523Y-118953809D02*
X196011904Y-119144285D01*
X196011904Y-119144285D02*
X195964285Y-119239523D01*
X195964285Y-119239523D02*
X195869047Y-119334761D01*
X195869047Y-119334761D02*
X195726190Y-119382380D01*
X195726190Y-119382380D02*
X195488095Y-119382380D01*
X196869047Y-119334761D02*
X196773809Y-119382380D01*
X196773809Y-119382380D02*
X196583333Y-119382380D01*
X196583333Y-119382380D02*
X196488095Y-119334761D01*
X196488095Y-119334761D02*
X196440476Y-119239523D01*
X196440476Y-119239523D02*
X196440476Y-118858571D01*
X196440476Y-118858571D02*
X196488095Y-118763333D01*
X196488095Y-118763333D02*
X196583333Y-118715714D01*
X196583333Y-118715714D02*
X196773809Y-118715714D01*
X196773809Y-118715714D02*
X196869047Y-118763333D01*
X196869047Y-118763333D02*
X196916666Y-118858571D01*
X196916666Y-118858571D02*
X196916666Y-118953809D01*
X196916666Y-118953809D02*
X196440476Y-119049047D01*
X197297619Y-119334761D02*
X197392857Y-119382380D01*
X197392857Y-119382380D02*
X197583333Y-119382380D01*
X197583333Y-119382380D02*
X197678571Y-119334761D01*
X197678571Y-119334761D02*
X197726190Y-119239523D01*
X197726190Y-119239523D02*
X197726190Y-119191904D01*
X197726190Y-119191904D02*
X197678571Y-119096666D01*
X197678571Y-119096666D02*
X197583333Y-119049047D01*
X197583333Y-119049047D02*
X197440476Y-119049047D01*
X197440476Y-119049047D02*
X197345238Y-119001428D01*
X197345238Y-119001428D02*
X197297619Y-118906190D01*
X197297619Y-118906190D02*
X197297619Y-118858571D01*
X197297619Y-118858571D02*
X197345238Y-118763333D01*
X197345238Y-118763333D02*
X197440476Y-118715714D01*
X197440476Y-118715714D02*
X197583333Y-118715714D01*
X197583333Y-118715714D02*
X197678571Y-118763333D01*
X198154762Y-119382380D02*
X198154762Y-118715714D01*
X198154762Y-118382380D02*
X198107143Y-118430000D01*
X198107143Y-118430000D02*
X198154762Y-118477619D01*
X198154762Y-118477619D02*
X198202381Y-118430000D01*
X198202381Y-118430000D02*
X198154762Y-118382380D01*
X198154762Y-118382380D02*
X198154762Y-118477619D01*
X199059523Y-118715714D02*
X199059523Y-119525238D01*
X199059523Y-119525238D02*
X199011904Y-119620476D01*
X199011904Y-119620476D02*
X198964285Y-119668095D01*
X198964285Y-119668095D02*
X198869047Y-119715714D01*
X198869047Y-119715714D02*
X198726190Y-119715714D01*
X198726190Y-119715714D02*
X198630952Y-119668095D01*
X199059523Y-119334761D02*
X198964285Y-119382380D01*
X198964285Y-119382380D02*
X198773809Y-119382380D01*
X198773809Y-119382380D02*
X198678571Y-119334761D01*
X198678571Y-119334761D02*
X198630952Y-119287142D01*
X198630952Y-119287142D02*
X198583333Y-119191904D01*
X198583333Y-119191904D02*
X198583333Y-118906190D01*
X198583333Y-118906190D02*
X198630952Y-118810952D01*
X198630952Y-118810952D02*
X198678571Y-118763333D01*
X198678571Y-118763333D02*
X198773809Y-118715714D01*
X198773809Y-118715714D02*
X198964285Y-118715714D01*
X198964285Y-118715714D02*
X199059523Y-118763333D01*
X199535714Y-118715714D02*
X199535714Y-119382380D01*
X199535714Y-118810952D02*
X199583333Y-118763333D01*
X199583333Y-118763333D02*
X199678571Y-118715714D01*
X199678571Y-118715714D02*
X199821428Y-118715714D01*
X199821428Y-118715714D02*
X199916666Y-118763333D01*
X199916666Y-118763333D02*
X199964285Y-118858571D01*
X199964285Y-118858571D02*
X199964285Y-119382380D01*
X200821428Y-119334761D02*
X200726190Y-119382380D01*
X200726190Y-119382380D02*
X200535714Y-119382380D01*
X200535714Y-119382380D02*
X200440476Y-119334761D01*
X200440476Y-119334761D02*
X200392857Y-119239523D01*
X200392857Y-119239523D02*
X200392857Y-118858571D01*
X200392857Y-118858571D02*
X200440476Y-118763333D01*
X200440476Y-118763333D02*
X200535714Y-118715714D01*
X200535714Y-118715714D02*
X200726190Y-118715714D01*
X200726190Y-118715714D02*
X200821428Y-118763333D01*
X200821428Y-118763333D02*
X200869047Y-118858571D01*
X200869047Y-118858571D02*
X200869047Y-118953809D01*
X200869047Y-118953809D02*
X200392857Y-119049047D01*
X201726190Y-119382380D02*
X201726190Y-118382380D01*
X201726190Y-119334761D02*
X201630952Y-119382380D01*
X201630952Y-119382380D02*
X201440476Y-119382380D01*
X201440476Y-119382380D02*
X201345238Y-119334761D01*
X201345238Y-119334761D02*
X201297619Y-119287142D01*
X201297619Y-119287142D02*
X201250000Y-119191904D01*
X201250000Y-119191904D02*
X201250000Y-118906190D01*
X201250000Y-118906190D02*
X201297619Y-118810952D01*
X201297619Y-118810952D02*
X201345238Y-118763333D01*
X201345238Y-118763333D02*
X201440476Y-118715714D01*
X201440476Y-118715714D02*
X201630952Y-118715714D01*
X201630952Y-118715714D02*
X201726190Y-118763333D01*
X202802381Y-119382380D02*
X202802381Y-118382380D01*
X202802381Y-118763333D02*
X202897619Y-118715714D01*
X202897619Y-118715714D02*
X203088095Y-118715714D01*
X203088095Y-118715714D02*
X203183333Y-118763333D01*
X203183333Y-118763333D02*
X203230952Y-118810952D01*
X203230952Y-118810952D02*
X203278571Y-118906190D01*
X203278571Y-118906190D02*
X203278571Y-119191904D01*
X203278571Y-119191904D02*
X203230952Y-119287142D01*
X203230952Y-119287142D02*
X203183333Y-119334761D01*
X203183333Y-119334761D02*
X203088095Y-119382380D01*
X203088095Y-119382380D02*
X202897619Y-119382380D01*
X202897619Y-119382380D02*
X202802381Y-119334761D01*
X203611905Y-118715714D02*
X203850000Y-119382380D01*
X204088095Y-118715714D02*
X203850000Y-119382380D01*
X203850000Y-119382380D02*
X203754762Y-119620476D01*
X203754762Y-119620476D02*
X203707143Y-119668095D01*
X203707143Y-119668095D02*
X203611905Y-119715714D01*
X205640476Y-119287142D02*
X205592857Y-119334761D01*
X205592857Y-119334761D02*
X205450000Y-119382380D01*
X205450000Y-119382380D02*
X205354762Y-119382380D01*
X205354762Y-119382380D02*
X205211905Y-119334761D01*
X205211905Y-119334761D02*
X205116667Y-119239523D01*
X205116667Y-119239523D02*
X205069048Y-119144285D01*
X205069048Y-119144285D02*
X205021429Y-118953809D01*
X205021429Y-118953809D02*
X205021429Y-118810952D01*
X205021429Y-118810952D02*
X205069048Y-118620476D01*
X205069048Y-118620476D02*
X205116667Y-118525238D01*
X205116667Y-118525238D02*
X205211905Y-118430000D01*
X205211905Y-118430000D02*
X205354762Y-118382380D01*
X205354762Y-118382380D02*
X205450000Y-118382380D01*
X205450000Y-118382380D02*
X205592857Y-118430000D01*
X205592857Y-118430000D02*
X205640476Y-118477619D01*
X206211905Y-119382380D02*
X206116667Y-119334761D01*
X206116667Y-119334761D02*
X206069048Y-119239523D01*
X206069048Y-119239523D02*
X206069048Y-118382380D01*
X206592858Y-119382380D02*
X206592858Y-118715714D01*
X206592858Y-118382380D02*
X206545239Y-118430000D01*
X206545239Y-118430000D02*
X206592858Y-118477619D01*
X206592858Y-118477619D02*
X206640477Y-118430000D01*
X206640477Y-118430000D02*
X206592858Y-118382380D01*
X206592858Y-118382380D02*
X206592858Y-118477619D01*
X207069048Y-118715714D02*
X207069048Y-119382380D01*
X207069048Y-118810952D02*
X207116667Y-118763333D01*
X207116667Y-118763333D02*
X207211905Y-118715714D01*
X207211905Y-118715714D02*
X207354762Y-118715714D01*
X207354762Y-118715714D02*
X207450000Y-118763333D01*
X207450000Y-118763333D02*
X207497619Y-118858571D01*
X207497619Y-118858571D02*
X207497619Y-119382380D01*
X207830953Y-118715714D02*
X208211905Y-118715714D01*
X207973810Y-118382380D02*
X207973810Y-119239523D01*
X207973810Y-119239523D02*
X208021429Y-119334761D01*
X208021429Y-119334761D02*
X208116667Y-119382380D01*
X208116667Y-119382380D02*
X208211905Y-119382380D01*
X208688096Y-119382380D02*
X208592858Y-119334761D01*
X208592858Y-119334761D02*
X208545239Y-119287142D01*
X208545239Y-119287142D02*
X208497620Y-119191904D01*
X208497620Y-119191904D02*
X208497620Y-118906190D01*
X208497620Y-118906190D02*
X208545239Y-118810952D01*
X208545239Y-118810952D02*
X208592858Y-118763333D01*
X208592858Y-118763333D02*
X208688096Y-118715714D01*
X208688096Y-118715714D02*
X208830953Y-118715714D01*
X208830953Y-118715714D02*
X208926191Y-118763333D01*
X208926191Y-118763333D02*
X208973810Y-118810952D01*
X208973810Y-118810952D02*
X209021429Y-118906190D01*
X209021429Y-118906190D02*
X209021429Y-119191904D01*
X209021429Y-119191904D02*
X208973810Y-119287142D01*
X208973810Y-119287142D02*
X208926191Y-119334761D01*
X208926191Y-119334761D02*
X208830953Y-119382380D01*
X208830953Y-119382380D02*
X208688096Y-119382380D01*
X209450001Y-118715714D02*
X209450001Y-119382380D01*
X209450001Y-118810952D02*
X209497620Y-118763333D01*
X209497620Y-118763333D02*
X209592858Y-118715714D01*
X209592858Y-118715714D02*
X209735715Y-118715714D01*
X209735715Y-118715714D02*
X209830953Y-118763333D01*
X209830953Y-118763333D02*
X209878572Y-118858571D01*
X209878572Y-118858571D02*
X209878572Y-119382380D01*
X210907144Y-119096666D02*
X211383334Y-119096666D01*
X210811906Y-119382380D02*
X211145239Y-118382380D01*
X211145239Y-118382380D02*
X211478572Y-119382380D01*
X211811906Y-118715714D02*
X211811906Y-119382380D01*
X211811906Y-118810952D02*
X211859525Y-118763333D01*
X211859525Y-118763333D02*
X211954763Y-118715714D01*
X211954763Y-118715714D02*
X212097620Y-118715714D01*
X212097620Y-118715714D02*
X212192858Y-118763333D01*
X212192858Y-118763333D02*
X212240477Y-118858571D01*
X212240477Y-118858571D02*
X212240477Y-119382380D01*
X213145239Y-119382380D02*
X213145239Y-118858571D01*
X213145239Y-118858571D02*
X213097620Y-118763333D01*
X213097620Y-118763333D02*
X213002382Y-118715714D01*
X213002382Y-118715714D02*
X212811906Y-118715714D01*
X212811906Y-118715714D02*
X212716668Y-118763333D01*
X213145239Y-119334761D02*
X213050001Y-119382380D01*
X213050001Y-119382380D02*
X212811906Y-119382380D01*
X212811906Y-119382380D02*
X212716668Y-119334761D01*
X212716668Y-119334761D02*
X212669049Y-119239523D01*
X212669049Y-119239523D02*
X212669049Y-119144285D01*
X212669049Y-119144285D02*
X212716668Y-119049047D01*
X212716668Y-119049047D02*
X212811906Y-119001428D01*
X212811906Y-119001428D02*
X213050001Y-119001428D01*
X213050001Y-119001428D02*
X213145239Y-118953809D01*
X213621430Y-118715714D02*
X213621430Y-119382380D01*
X213621430Y-118810952D02*
X213669049Y-118763333D01*
X213669049Y-118763333D02*
X213764287Y-118715714D01*
X213764287Y-118715714D02*
X213907144Y-118715714D01*
X213907144Y-118715714D02*
X214002382Y-118763333D01*
X214002382Y-118763333D02*
X214050001Y-118858571D01*
X214050001Y-118858571D02*
X214050001Y-119382380D01*
X214526192Y-119382380D02*
X214526192Y-118715714D01*
X214526192Y-118382380D02*
X214478573Y-118430000D01*
X214478573Y-118430000D02*
X214526192Y-118477619D01*
X214526192Y-118477619D02*
X214573811Y-118430000D01*
X214573811Y-118430000D02*
X214526192Y-118382380D01*
X214526192Y-118382380D02*
X214526192Y-118477619D01*
%TO.C,U1*%
X207642380Y-106761904D02*
X208451904Y-106761904D01*
X208451904Y-106761904D02*
X208547142Y-106714285D01*
X208547142Y-106714285D02*
X208594761Y-106666666D01*
X208594761Y-106666666D02*
X208642380Y-106571428D01*
X208642380Y-106571428D02*
X208642380Y-106380952D01*
X208642380Y-106380952D02*
X208594761Y-106285714D01*
X208594761Y-106285714D02*
X208547142Y-106238095D01*
X208547142Y-106238095D02*
X208451904Y-106190476D01*
X208451904Y-106190476D02*
X207642380Y-106190476D01*
X208642380Y-105190476D02*
X208642380Y-105761904D01*
X208642380Y-105476190D02*
X207642380Y-105476190D01*
X207642380Y-105476190D02*
X207785238Y-105571428D01*
X207785238Y-105571428D02*
X207880476Y-105666666D01*
X207880476Y-105666666D02*
X207928095Y-105761904D01*
%TO.C,R2*%
X212483333Y-96847380D02*
X212150000Y-96371190D01*
X211911905Y-96847380D02*
X211911905Y-95847380D01*
X211911905Y-95847380D02*
X212292857Y-95847380D01*
X212292857Y-95847380D02*
X212388095Y-95895000D01*
X212388095Y-95895000D02*
X212435714Y-95942619D01*
X212435714Y-95942619D02*
X212483333Y-96037857D01*
X212483333Y-96037857D02*
X212483333Y-96180714D01*
X212483333Y-96180714D02*
X212435714Y-96275952D01*
X212435714Y-96275952D02*
X212388095Y-96323571D01*
X212388095Y-96323571D02*
X212292857Y-96371190D01*
X212292857Y-96371190D02*
X211911905Y-96371190D01*
X212864286Y-95942619D02*
X212911905Y-95895000D01*
X212911905Y-95895000D02*
X213007143Y-95847380D01*
X213007143Y-95847380D02*
X213245238Y-95847380D01*
X213245238Y-95847380D02*
X213340476Y-95895000D01*
X213340476Y-95895000D02*
X213388095Y-95942619D01*
X213388095Y-95942619D02*
X213435714Y-96037857D01*
X213435714Y-96037857D02*
X213435714Y-96133095D01*
X213435714Y-96133095D02*
X213388095Y-96275952D01*
X213388095Y-96275952D02*
X212816667Y-96847380D01*
X212816667Y-96847380D02*
X213435714Y-96847380D01*
%TO.C,R1*%
X182533333Y-116887380D02*
X182200000Y-116411190D01*
X181961905Y-116887380D02*
X181961905Y-115887380D01*
X181961905Y-115887380D02*
X182342857Y-115887380D01*
X182342857Y-115887380D02*
X182438095Y-115935000D01*
X182438095Y-115935000D02*
X182485714Y-115982619D01*
X182485714Y-115982619D02*
X182533333Y-116077857D01*
X182533333Y-116077857D02*
X182533333Y-116220714D01*
X182533333Y-116220714D02*
X182485714Y-116315952D01*
X182485714Y-116315952D02*
X182438095Y-116363571D01*
X182438095Y-116363571D02*
X182342857Y-116411190D01*
X182342857Y-116411190D02*
X181961905Y-116411190D01*
X183485714Y-116887380D02*
X182914286Y-116887380D01*
X183200000Y-116887380D02*
X183200000Y-115887380D01*
X183200000Y-115887380D02*
X183104762Y-116030238D01*
X183104762Y-116030238D02*
X183009524Y-116125476D01*
X183009524Y-116125476D02*
X182914286Y-116173095D01*
%TO.C,J2*%
X214717380Y-106533333D02*
X215431666Y-106533333D01*
X215431666Y-106533333D02*
X215574523Y-106580952D01*
X215574523Y-106580952D02*
X215669761Y-106676190D01*
X215669761Y-106676190D02*
X215717380Y-106819047D01*
X215717380Y-106819047D02*
X215717380Y-106914285D01*
X214812619Y-106104761D02*
X214765000Y-106057142D01*
X214765000Y-106057142D02*
X214717380Y-105961904D01*
X214717380Y-105961904D02*
X214717380Y-105723809D01*
X214717380Y-105723809D02*
X214765000Y-105628571D01*
X214765000Y-105628571D02*
X214812619Y-105580952D01*
X214812619Y-105580952D02*
X214907857Y-105533333D01*
X214907857Y-105533333D02*
X215003095Y-105533333D01*
X215003095Y-105533333D02*
X215145952Y-105580952D01*
X215145952Y-105580952D02*
X215717380Y-106152380D01*
X215717380Y-106152380D02*
X215717380Y-105533333D01*
%TO.C,J1*%
X184567380Y-104933333D02*
X185281666Y-104933333D01*
X185281666Y-104933333D02*
X185424523Y-104980952D01*
X185424523Y-104980952D02*
X185519761Y-105076190D01*
X185519761Y-105076190D02*
X185567380Y-105219047D01*
X185567380Y-105219047D02*
X185567380Y-105314285D01*
X185567380Y-103933333D02*
X185567380Y-104504761D01*
X185567380Y-104219047D02*
X184567380Y-104219047D01*
X184567380Y-104219047D02*
X184710238Y-104314285D01*
X184710238Y-104314285D02*
X184805476Y-104409523D01*
X184805476Y-104409523D02*
X184853095Y-104504761D01*
%TO.C,D2*%
X224211905Y-98267380D02*
X224211905Y-97267380D01*
X224211905Y-97267380D02*
X224450000Y-97267380D01*
X224450000Y-97267380D02*
X224592857Y-97315000D01*
X224592857Y-97315000D02*
X224688095Y-97410238D01*
X224688095Y-97410238D02*
X224735714Y-97505476D01*
X224735714Y-97505476D02*
X224783333Y-97695952D01*
X224783333Y-97695952D02*
X224783333Y-97838809D01*
X224783333Y-97838809D02*
X224735714Y-98029285D01*
X224735714Y-98029285D02*
X224688095Y-98124523D01*
X224688095Y-98124523D02*
X224592857Y-98219761D01*
X224592857Y-98219761D02*
X224450000Y-98267380D01*
X224450000Y-98267380D02*
X224211905Y-98267380D01*
X225164286Y-97362619D02*
X225211905Y-97315000D01*
X225211905Y-97315000D02*
X225307143Y-97267380D01*
X225307143Y-97267380D02*
X225545238Y-97267380D01*
X225545238Y-97267380D02*
X225640476Y-97315000D01*
X225640476Y-97315000D02*
X225688095Y-97362619D01*
X225688095Y-97362619D02*
X225735714Y-97457857D01*
X225735714Y-97457857D02*
X225735714Y-97553095D01*
X225735714Y-97553095D02*
X225688095Y-97695952D01*
X225688095Y-97695952D02*
X225116667Y-98267380D01*
X225116667Y-98267380D02*
X225735714Y-98267380D01*
%TO.C,D1*%
X171911905Y-113867380D02*
X171911905Y-112867380D01*
X171911905Y-112867380D02*
X172150000Y-112867380D01*
X172150000Y-112867380D02*
X172292857Y-112915000D01*
X172292857Y-112915000D02*
X172388095Y-113010238D01*
X172388095Y-113010238D02*
X172435714Y-113105476D01*
X172435714Y-113105476D02*
X172483333Y-113295952D01*
X172483333Y-113295952D02*
X172483333Y-113438809D01*
X172483333Y-113438809D02*
X172435714Y-113629285D01*
X172435714Y-113629285D02*
X172388095Y-113724523D01*
X172388095Y-113724523D02*
X172292857Y-113819761D01*
X172292857Y-113819761D02*
X172150000Y-113867380D01*
X172150000Y-113867380D02*
X171911905Y-113867380D01*
X173435714Y-113867380D02*
X172864286Y-113867380D01*
X173150000Y-113867380D02*
X173150000Y-112867380D01*
X173150000Y-112867380D02*
X173054762Y-113010238D01*
X173054762Y-113010238D02*
X172959524Y-113105476D01*
X172959524Y-113105476D02*
X172864286Y-113153095D01*
%TO.C,C3*%
X198133333Y-109514642D02*
X198085714Y-109562261D01*
X198085714Y-109562261D02*
X197942857Y-109609880D01*
X197942857Y-109609880D02*
X197847619Y-109609880D01*
X197847619Y-109609880D02*
X197704762Y-109562261D01*
X197704762Y-109562261D02*
X197609524Y-109467023D01*
X197609524Y-109467023D02*
X197561905Y-109371785D01*
X197561905Y-109371785D02*
X197514286Y-109181309D01*
X197514286Y-109181309D02*
X197514286Y-109038452D01*
X197514286Y-109038452D02*
X197561905Y-108847976D01*
X197561905Y-108847976D02*
X197609524Y-108752738D01*
X197609524Y-108752738D02*
X197704762Y-108657500D01*
X197704762Y-108657500D02*
X197847619Y-108609880D01*
X197847619Y-108609880D02*
X197942857Y-108609880D01*
X197942857Y-108609880D02*
X198085714Y-108657500D01*
X198085714Y-108657500D02*
X198133333Y-108705119D01*
X198466667Y-108609880D02*
X199085714Y-108609880D01*
X199085714Y-108609880D02*
X198752381Y-108990833D01*
X198752381Y-108990833D02*
X198895238Y-108990833D01*
X198895238Y-108990833D02*
X198990476Y-109038452D01*
X198990476Y-109038452D02*
X199038095Y-109086071D01*
X199038095Y-109086071D02*
X199085714Y-109181309D01*
X199085714Y-109181309D02*
X199085714Y-109419404D01*
X199085714Y-109419404D02*
X199038095Y-109514642D01*
X199038095Y-109514642D02*
X198990476Y-109562261D01*
X198990476Y-109562261D02*
X198895238Y-109609880D01*
X198895238Y-109609880D02*
X198609524Y-109609880D01*
X198609524Y-109609880D02*
X198514286Y-109562261D01*
X198514286Y-109562261D02*
X198466667Y-109514642D01*
%TO.C,C2*%
X198133333Y-102979642D02*
X198085714Y-103027261D01*
X198085714Y-103027261D02*
X197942857Y-103074880D01*
X197942857Y-103074880D02*
X197847619Y-103074880D01*
X197847619Y-103074880D02*
X197704762Y-103027261D01*
X197704762Y-103027261D02*
X197609524Y-102932023D01*
X197609524Y-102932023D02*
X197561905Y-102836785D01*
X197561905Y-102836785D02*
X197514286Y-102646309D01*
X197514286Y-102646309D02*
X197514286Y-102503452D01*
X197514286Y-102503452D02*
X197561905Y-102312976D01*
X197561905Y-102312976D02*
X197609524Y-102217738D01*
X197609524Y-102217738D02*
X197704762Y-102122500D01*
X197704762Y-102122500D02*
X197847619Y-102074880D01*
X197847619Y-102074880D02*
X197942857Y-102074880D01*
X197942857Y-102074880D02*
X198085714Y-102122500D01*
X198085714Y-102122500D02*
X198133333Y-102170119D01*
X198514286Y-102170119D02*
X198561905Y-102122500D01*
X198561905Y-102122500D02*
X198657143Y-102074880D01*
X198657143Y-102074880D02*
X198895238Y-102074880D01*
X198895238Y-102074880D02*
X198990476Y-102122500D01*
X198990476Y-102122500D02*
X199038095Y-102170119D01*
X199038095Y-102170119D02*
X199085714Y-102265357D01*
X199085714Y-102265357D02*
X199085714Y-102360595D01*
X199085714Y-102360595D02*
X199038095Y-102503452D01*
X199038095Y-102503452D02*
X198466667Y-103074880D01*
X198466667Y-103074880D02*
X199085714Y-103074880D01*
%TO.C,C1*%
X198133333Y-96444642D02*
X198085714Y-96492261D01*
X198085714Y-96492261D02*
X197942857Y-96539880D01*
X197942857Y-96539880D02*
X197847619Y-96539880D01*
X197847619Y-96539880D02*
X197704762Y-96492261D01*
X197704762Y-96492261D02*
X197609524Y-96397023D01*
X197609524Y-96397023D02*
X197561905Y-96301785D01*
X197561905Y-96301785D02*
X197514286Y-96111309D01*
X197514286Y-96111309D02*
X197514286Y-95968452D01*
X197514286Y-95968452D02*
X197561905Y-95777976D01*
X197561905Y-95777976D02*
X197609524Y-95682738D01*
X197609524Y-95682738D02*
X197704762Y-95587500D01*
X197704762Y-95587500D02*
X197847619Y-95539880D01*
X197847619Y-95539880D02*
X197942857Y-95539880D01*
X197942857Y-95539880D02*
X198085714Y-95587500D01*
X198085714Y-95587500D02*
X198133333Y-95635119D01*
X199085714Y-96539880D02*
X198514286Y-96539880D01*
X198800000Y-96539880D02*
X198800000Y-95539880D01*
X198800000Y-95539880D02*
X198704762Y-95682738D01*
X198704762Y-95682738D02*
X198609524Y-95777976D01*
X198609524Y-95777976D02*
X198514286Y-95825595D01*
%TO.C,REF\u002A\u002A*%
G36*
X193667822Y-120122971D02*
G01*
X192800198Y-120122971D01*
X192800198Y-116602178D01*
X193667822Y-116602178D01*
X193667822Y-120122971D01*
G37*
D11*
X193667822Y-120122971D02*
X192800198Y-120122971D01*
X192800198Y-116602178D01*
X193667822Y-116602178D01*
X193667822Y-120122971D01*
G36*
X188084852Y-119091881D02*
G01*
X188084852Y-118986048D01*
X188086029Y-118937355D01*
X188089165Y-118899405D01*
X188093671Y-118878308D01*
X188095495Y-118876023D01*
X188098295Y-118862641D01*
X188097148Y-118830074D01*
X188092393Y-118783916D01*
X188088003Y-118752376D01*
X188079378Y-118695188D01*
X188071591Y-118642886D01*
X188065847Y-118603582D01*
X188064215Y-118592055D01*
X188054888Y-118561937D01*
X188040272Y-118551188D01*
X188182893Y-118551188D01*
X188191496Y-118636065D01*
X188198756Y-118695368D01*
X188208379Y-118758551D01*
X188215252Y-118796386D01*
X188230407Y-118871832D01*
X188321095Y-118875526D01*
X188411782Y-118879221D01*
X188411782Y-117464698D01*
X188362786Y-117512542D01*
X188302324Y-117586850D01*
X188255691Y-117678816D01*
X188222249Y-117789998D01*
X188203753Y-117900471D01*
X188195122Y-117972773D01*
X188286040Y-117972773D01*
X188286040Y-118551188D01*
X188182893Y-118551188D01*
X188040272Y-118551188D01*
X188034320Y-118547920D01*
X188029778Y-118536230D01*
X188026470Y-118513288D01*
X188024215Y-118476265D01*
X188022834Y-118422332D01*
X188022150Y-118348660D01*
X188021980Y-118261980D01*
X188022077Y-118169471D01*
X188022530Y-118099094D01*
X188023062Y-118073367D01*
X188122575Y-118073367D01*
X188122575Y-118450594D01*
X188185446Y-118450594D01*
X188185446Y-118073367D01*
X188122575Y-118073367D01*
X188023062Y-118073367D01*
X188023590Y-118047836D01*
X188025503Y-118012680D01*
X188028519Y-117990611D01*
X188032885Y-117978615D01*
X188038849Y-117973676D01*
X188045784Y-117972773D01*
X188067795Y-117965079D01*
X188080321Y-117939879D01*
X188084788Y-117893991D01*
X188084852Y-117885736D01*
X188092868Y-117808027D01*
X188114936Y-117719767D01*
X188148084Y-117628915D01*
X188189339Y-117543430D01*
X188235731Y-117471274D01*
X188243082Y-117461928D01*
X188266998Y-117431467D01*
X188276576Y-117413428D01*
X188273480Y-117400831D01*
X188260704Y-117387900D01*
X188235678Y-117349707D01*
X188226071Y-117300002D01*
X188231067Y-117246476D01*
X188249851Y-117196822D01*
X188281606Y-117158733D01*
X188285297Y-117155975D01*
X188344575Y-117127474D01*
X188405934Y-117122172D01*
X188464427Y-117139482D01*
X188515104Y-117178820D01*
X188519289Y-117183630D01*
X188539167Y-117211560D01*
X188547921Y-117239898D01*
X188548553Y-117279737D01*
X188547992Y-117289689D01*
X188546562Y-117328668D01*
X188549839Y-117348746D01*
X188559728Y-117356015D01*
X188568961Y-117356760D01*
X188595744Y-117358284D01*
X188636025Y-117362065D01*
X188660124Y-117364782D01*
X188698401Y-117368723D01*
X188717996Y-117367084D01*
X188725158Y-117357579D01*
X188726139Y-117340649D01*
X188722901Y-117330608D01*
X188712420Y-117314410D01*
X188693548Y-117290855D01*
X188665135Y-117258743D01*
X188639126Y-117230891D01*
X188821172Y-117230891D01*
X188902179Y-117312624D01*
X188951428Y-117358730D01*
X188989159Y-117386306D01*
X189011840Y-117394357D01*
X189027270Y-117392529D01*
X189035867Y-117383277D01*
X189039613Y-117360950D01*
X189040489Y-117319895D01*
X189040495Y-117312624D01*
X189040495Y-117230891D01*
X188821172Y-117230891D01*
X188639126Y-117230891D01*
X188626035Y-117216872D01*
X188575097Y-117164043D01*
X188511173Y-117099055D01*
X188433114Y-117020709D01*
X188339772Y-116927803D01*
X188229998Y-116819137D01*
X188176952Y-116766769D01*
X187627767Y-116224951D01*
X187714848Y-116225570D01*
X187801931Y-116226189D01*
X188260891Y-116677914D01*
X188719852Y-117129639D01*
X188930471Y-117129968D01*
X189141089Y-117130297D01*
X189141089Y-117405390D01*
X189194530Y-117412478D01*
X189218888Y-117415162D01*
X189264759Y-117419687D01*
X189329405Y-117425809D01*
X189410091Y-117433288D01*
X189504081Y-117441881D01*
X189608637Y-117451346D01*
X189721025Y-117461442D01*
X189838507Y-117471926D01*
X189958348Y-117482556D01*
X190077811Y-117493091D01*
X190194159Y-117503287D01*
X190304657Y-117512905D01*
X190406569Y-117521700D01*
X190497158Y-117529432D01*
X190573687Y-117535858D01*
X190633421Y-117540737D01*
X190673624Y-117543825D01*
X190691559Y-117544883D01*
X190691644Y-117544882D01*
X190706035Y-117537173D01*
X190735748Y-117514019D01*
X190781131Y-117475105D01*
X190842529Y-117420116D01*
X190920288Y-117348736D01*
X191014754Y-117260651D01*
X191126272Y-117155546D01*
X191255188Y-117033105D01*
X191291287Y-116998690D01*
X191863416Y-116452863D01*
X191951436Y-116541119D01*
X191873758Y-116612515D01*
X191845686Y-116638634D01*
X191802274Y-116679434D01*
X191746366Y-116732223D01*
X191680808Y-116794309D01*
X191608441Y-116863000D01*
X191532112Y-116935604D01*
X191486524Y-116979040D01*
X191401119Y-117060584D01*
X191332710Y-117126496D01*
X191280053Y-117178456D01*
X191241905Y-117218145D01*
X191217020Y-117247243D01*
X191204156Y-117267431D01*
X191202068Y-117280390D01*
X191209513Y-117287800D01*
X191225246Y-117291342D01*
X191248023Y-117292697D01*
X191254239Y-117292879D01*
X191297061Y-117302297D01*
X191348819Y-117325503D01*
X191401328Y-117357864D01*
X191446403Y-117394748D01*
X191460328Y-117409507D01*
X191509047Y-117485233D01*
X191536306Y-117573692D01*
X191542773Y-117651900D01*
X191530576Y-117740532D01*
X191494813Y-117822388D01*
X191436722Y-117894836D01*
X191422262Y-117908203D01*
X191366733Y-117957082D01*
X191366733Y-118802674D01*
X191542773Y-118802674D01*
X191542773Y-119029010D01*
X191460531Y-119029010D01*
X191404386Y-119031850D01*
X191365416Y-119041393D01*
X191344219Y-119052991D01*
X191329052Y-119061277D01*
X191307062Y-119068373D01*
X191274987Y-119074748D01*
X191229569Y-119080872D01*
X191167548Y-119087216D01*
X191085662Y-119094250D01*
X191024746Y-119099066D01*
X190739343Y-119121161D01*
X191288805Y-119663565D01*
X191388228Y-119761637D01*
X191483815Y-119855784D01*
X191573810Y-119944285D01*
X191656457Y-120025420D01*
X191730001Y-120097469D01*
X191792684Y-120158712D01*
X191842752Y-120207427D01*
X191878448Y-120241896D01*
X191897995Y-120260379D01*
X191928944Y-120290743D01*
X191950530Y-120316071D01*
X191957723Y-120329695D01*
X191949297Y-120347095D01*
X191928245Y-120372460D01*
X191919671Y-120381058D01*
X191881620Y-120417514D01*
X191677658Y-120216802D01*
X191625699Y-120165596D01*
X191558820Y-120099569D01*
X191479950Y-120021618D01*
X191392014Y-119934638D01*
X191297941Y-119841526D01*
X191200658Y-119745179D01*
X191103093Y-119648492D01*
X191033145Y-119579134D01*
X190926550Y-119473703D01*
X190836307Y-119385129D01*
X190761192Y-119312281D01*
X190699986Y-119254023D01*
X190651466Y-119209225D01*
X190626129Y-119187021D01*
X190614411Y-119176751D01*
X190587599Y-119155471D01*
X190569808Y-119144251D01*
X190561570Y-119141754D01*
X190543590Y-119142700D01*
X190502892Y-119145573D01*
X190441819Y-119150187D01*
X190362713Y-119156358D01*
X190267914Y-119163898D01*
X190159767Y-119172621D01*
X190040612Y-119182343D01*
X189912791Y-119192876D01*
X189810635Y-119201365D01*
X189234674Y-119249396D01*
X189090726Y-119261401D01*
X188459158Y-119861938D01*
X187827589Y-120462475D01*
X187739315Y-120462034D01*
X187651040Y-120461592D01*
X187754666Y-120364583D01*
X187812463Y-120310291D01*
X187880368Y-120246192D01*
X187956572Y-120174016D01*
X188039269Y-120095492D01*
X188126653Y-120012349D01*
X188216915Y-119926319D01*
X188308250Y-119839130D01*
X188398849Y-119752513D01*
X188486907Y-119668197D01*
X188570615Y-119587912D01*
X188648167Y-119513387D01*
X188717757Y-119446354D01*
X188777576Y-119388541D01*
X188825818Y-119341679D01*
X188860676Y-119307496D01*
X188880343Y-119287724D01*
X188884116Y-119283390D01*
X188870992Y-119283092D01*
X188837389Y-119284731D01*
X188787880Y-119288023D01*
X188727037Y-119292682D01*
X188702732Y-119294682D01*
X188524951Y-119309577D01*
X188524951Y-119469109D01*
X188411782Y-119469109D01*
X188411782Y-119401314D01*
X188410696Y-119361662D01*
X188405454Y-119340116D01*
X188402334Y-119337480D01*
X188393081Y-119329662D01*
X188379604Y-119325442D01*
X188344627Y-119308219D01*
X188302579Y-119275138D01*
X188259356Y-119231893D01*
X188220854Y-119184174D01*
X188200801Y-119152830D01*
X188178851Y-119117123D01*
X188160967Y-119099371D01*
X188311188Y-119099371D01*
X188319254Y-119117987D01*
X188338820Y-119145183D01*
X188362944Y-119172448D01*
X188384682Y-119191267D01*
X188387508Y-119192943D01*
X188402334Y-119198616D01*
X188407856Y-119192955D01*
X188524951Y-119192955D01*
X188553243Y-119186934D01*
X188575618Y-119183863D01*
X188617717Y-119179548D01*
X188674178Y-119174488D01*
X188739635Y-119169181D01*
X188763862Y-119167344D01*
X188833421Y-119161927D01*
X188898018Y-119156459D01*
X188951548Y-119151488D01*
X188987910Y-119147561D01*
X188994509Y-119146675D01*
X189008056Y-119143334D01*
X189023914Y-119136101D01*
X189040135Y-119125805D01*
X189234674Y-119125805D01*
X189247104Y-119125273D01*
X189282110Y-119122769D01*
X189337215Y-119118496D01*
X189409943Y-119112653D01*
X189497814Y-119105443D01*
X189598351Y-119097066D01*
X189709077Y-119087723D01*
X189814205Y-119078758D01*
X189933483Y-119068602D01*
X190046080Y-119059142D01*
X190149305Y-119050596D01*
X190240473Y-119043179D01*
X190316895Y-119037108D01*
X190375883Y-119032601D01*
X190414749Y-119029873D01*
X190429844Y-119029116D01*
X190439238Y-119027935D01*
X190442966Y-119023256D01*
X190439471Y-119013276D01*
X190427199Y-118996190D01*
X190404594Y-118970196D01*
X190370100Y-118933490D01*
X190322162Y-118884267D01*
X190259224Y-118820726D01*
X190191968Y-118753305D01*
X189916477Y-118477601D01*
X189914406Y-118479533D01*
X189806295Y-118580409D01*
X189750377Y-118632768D01*
X189687948Y-118691535D01*
X189621443Y-118754385D01*
X189553298Y-118818995D01*
X189485948Y-118883042D01*
X189421828Y-118944203D01*
X189363372Y-119000153D01*
X189313018Y-119048570D01*
X189273198Y-119087130D01*
X189246350Y-119113509D01*
X189234908Y-119125384D01*
X189234674Y-119125805D01*
X189040135Y-119125805D01*
X189043861Y-119123440D01*
X189069673Y-119103811D01*
X189103129Y-119075678D01*
X189146007Y-119037502D01*
X189200083Y-118987746D01*
X189267136Y-118924871D01*
X189348943Y-118847341D01*
X189431950Y-118768251D01*
X189514094Y-118689564D01*
X189590169Y-118616112D01*
X189658325Y-118549724D01*
X189716712Y-118492227D01*
X189763481Y-118445451D01*
X189796782Y-118411224D01*
X189812222Y-118394182D01*
X190013046Y-118394182D01*
X190022170Y-118405722D01*
X190047200Y-118432710D01*
X190086052Y-118473021D01*
X190136643Y-118524529D01*
X190196888Y-118585109D01*
X190264704Y-118652636D01*
X190320565Y-118707826D01*
X190626129Y-119008724D01*
X190911555Y-118986401D01*
X190995219Y-118979669D01*
X191071727Y-118973157D01*
X191137081Y-118967234D01*
X191187281Y-118962268D01*
X191218329Y-118958629D01*
X191225273Y-118957458D01*
X191253565Y-118950838D01*
X191253565Y-118001364D01*
X191174606Y-117995026D01*
X191081315Y-117975890D01*
X190998791Y-117935846D01*
X190930038Y-117877418D01*
X190878063Y-117803129D01*
X190846863Y-117719748D01*
X190832228Y-117692698D01*
X190800819Y-117679156D01*
X190799434Y-117678872D01*
X190786174Y-117677247D01*
X190772595Y-117679256D01*
X190756181Y-117686858D01*
X190734411Y-117702016D01*
X190704767Y-117726688D01*
X190664732Y-117762836D01*
X190611785Y-117812420D01*
X190543409Y-117877401D01*
X190539005Y-117881599D01*
X190465611Y-117951493D01*
X190387437Y-118025800D01*
X190309864Y-118099414D01*
X190238275Y-118167229D01*
X190178051Y-118224140D01*
X190164587Y-118236832D01*
X190113820Y-118285487D01*
X190070375Y-118328709D01*
X190037241Y-118363395D01*
X190017405Y-118386444D01*
X190013046Y-118394182D01*
X189812222Y-118394182D01*
X189814767Y-118391373D01*
X189817442Y-118387140D01*
X189807741Y-118376003D01*
X189782441Y-118349971D01*
X189744082Y-118311570D01*
X189695200Y-118263328D01*
X189638334Y-118207770D01*
X189596906Y-118167592D01*
X189380000Y-117957831D01*
X189380000Y-118576337D01*
X189141089Y-118576337D01*
X189141089Y-117821881D01*
X189247542Y-117821881D01*
X189109654Y-117683565D01*
X189011840Y-117585447D01*
X188971766Y-117545248D01*
X188848952Y-117545248D01*
X188792450Y-117544863D01*
X188756505Y-117543100D01*
X188736530Y-117539050D01*
X188733438Y-117536442D01*
X189145703Y-117536442D01*
X189152854Y-117546334D01*
X189175841Y-117571524D01*
X189212439Y-117609810D01*
X189260422Y-117658989D01*
X189317566Y-117716861D01*
X189381647Y-117781222D01*
X189450438Y-117849871D01*
X189521716Y-117920605D01*
X189593255Y-117991222D01*
X189662830Y-118059520D01*
X189728217Y-118123296D01*
X189787191Y-118180350D01*
X189837527Y-118228478D01*
X189876999Y-118265478D01*
X189903383Y-118289148D01*
X189914406Y-118297290D01*
X189925780Y-118288984D01*
X189952563Y-118265733D01*
X189992292Y-118229865D01*
X190042507Y-118183713D01*
X190100746Y-118129606D01*
X190164547Y-118069874D01*
X190231449Y-118006848D01*
X190298990Y-117942858D01*
X190364710Y-117880236D01*
X190426146Y-117821310D01*
X190480837Y-117768412D01*
X190526322Y-117723872D01*
X190560138Y-117690020D01*
X190579826Y-117669188D01*
X190583837Y-117663506D01*
X190570891Y-117661634D01*
X190535134Y-117657746D01*
X190478804Y-117652057D01*
X190404140Y-117644781D01*
X190313380Y-117636131D01*
X190208762Y-117626322D01*
X190092526Y-117615566D01*
X189966908Y-117604079D01*
X189865618Y-117594907D01*
X189734279Y-117583174D01*
X189610552Y-117572335D01*
X189496681Y-117562570D01*
X189394911Y-117554063D01*
X189307487Y-117546995D01*
X189236653Y-117541549D01*
X189184653Y-117537908D01*
X189153732Y-117536253D01*
X189145703Y-117536442D01*
X188733438Y-117536442D01*
X188727937Y-117531801D01*
X188726139Y-117520870D01*
X188723498Y-117508712D01*
X188712912Y-117499727D01*
X188690381Y-117492826D01*
X188651909Y-117486924D01*
X188593498Y-117480935D01*
X188572104Y-117479013D01*
X188524951Y-117474852D01*
X188524951Y-119192955D01*
X188407856Y-119192955D01*
X188409462Y-119191308D01*
X188411662Y-119165993D01*
X188411782Y-119148908D01*
X188411782Y-119091881D01*
X188361485Y-119091881D01*
X188329976Y-119093544D01*
X188312463Y-119097697D01*
X188311188Y-119099371D01*
X188160967Y-119099371D01*
X188160411Y-119098819D01*
X188138668Y-119092388D01*
X188125718Y-119091894D01*
X188122575Y-119091894D01*
X188084852Y-119091881D01*
G37*
X188084852Y-119091881D02*
X188084852Y-118986048D01*
X188086029Y-118937355D01*
X188089165Y-118899405D01*
X188093671Y-118878308D01*
X188095495Y-118876023D01*
X188098295Y-118862641D01*
X188097148Y-118830074D01*
X188092393Y-118783916D01*
X188088003Y-118752376D01*
X188079378Y-118695188D01*
X188071591Y-118642886D01*
X188065847Y-118603582D01*
X188064215Y-118592055D01*
X188054888Y-118561937D01*
X188040272Y-118551188D01*
X188182893Y-118551188D01*
X188191496Y-118636065D01*
X188198756Y-118695368D01*
X188208379Y-118758551D01*
X188215252Y-118796386D01*
X188230407Y-118871832D01*
X188321095Y-118875526D01*
X188411782Y-118879221D01*
X188411782Y-117464698D01*
X188362786Y-117512542D01*
X188302324Y-117586850D01*
X188255691Y-117678816D01*
X188222249Y-117789998D01*
X188203753Y-117900471D01*
X188195122Y-117972773D01*
X188286040Y-117972773D01*
X188286040Y-118551188D01*
X188182893Y-118551188D01*
X188040272Y-118551188D01*
X188034320Y-118547920D01*
X188029778Y-118536230D01*
X188026470Y-118513288D01*
X188024215Y-118476265D01*
X188022834Y-118422332D01*
X188022150Y-118348660D01*
X188021980Y-118261980D01*
X188022077Y-118169471D01*
X188022530Y-118099094D01*
X188023062Y-118073367D01*
X188122575Y-118073367D01*
X188122575Y-118450594D01*
X188185446Y-118450594D01*
X188185446Y-118073367D01*
X188122575Y-118073367D01*
X188023062Y-118073367D01*
X188023590Y-118047836D01*
X188025503Y-118012680D01*
X188028519Y-117990611D01*
X188032885Y-117978615D01*
X188038849Y-117973676D01*
X188045784Y-117972773D01*
X188067795Y-117965079D01*
X188080321Y-117939879D01*
X188084788Y-117893991D01*
X188084852Y-117885736D01*
X188092868Y-117808027D01*
X188114936Y-117719767D01*
X188148084Y-117628915D01*
X188189339Y-117543430D01*
X188235731Y-117471274D01*
X188243082Y-117461928D01*
X188266998Y-117431467D01*
X188276576Y-117413428D01*
X188273480Y-117400831D01*
X188260704Y-117387900D01*
X188235678Y-117349707D01*
X188226071Y-117300002D01*
X188231067Y-117246476D01*
X188249851Y-117196822D01*
X188281606Y-117158733D01*
X188285297Y-117155975D01*
X188344575Y-117127474D01*
X188405934Y-117122172D01*
X188464427Y-117139482D01*
X188515104Y-117178820D01*
X188519289Y-117183630D01*
X188539167Y-117211560D01*
X188547921Y-117239898D01*
X188548553Y-117279737D01*
X188547992Y-117289689D01*
X188546562Y-117328668D01*
X188549839Y-117348746D01*
X188559728Y-117356015D01*
X188568961Y-117356760D01*
X188595744Y-117358284D01*
X188636025Y-117362065D01*
X188660124Y-117364782D01*
X188698401Y-117368723D01*
X188717996Y-117367084D01*
X188725158Y-117357579D01*
X188726139Y-117340649D01*
X188722901Y-117330608D01*
X188712420Y-117314410D01*
X188693548Y-117290855D01*
X188665135Y-117258743D01*
X188639126Y-117230891D01*
X188821172Y-117230891D01*
X188902179Y-117312624D01*
X188951428Y-117358730D01*
X188989159Y-117386306D01*
X189011840Y-117394357D01*
X189027270Y-117392529D01*
X189035867Y-117383277D01*
X189039613Y-117360950D01*
X189040489Y-117319895D01*
X189040495Y-117312624D01*
X189040495Y-117230891D01*
X188821172Y-117230891D01*
X188639126Y-117230891D01*
X188626035Y-117216872D01*
X188575097Y-117164043D01*
X188511173Y-117099055D01*
X188433114Y-117020709D01*
X188339772Y-116927803D01*
X188229998Y-116819137D01*
X188176952Y-116766769D01*
X187627767Y-116224951D01*
X187714848Y-116225570D01*
X187801931Y-116226189D01*
X188260891Y-116677914D01*
X188719852Y-117129639D01*
X188930471Y-117129968D01*
X189141089Y-117130297D01*
X189141089Y-117405390D01*
X189194530Y-117412478D01*
X189218888Y-117415162D01*
X189264759Y-117419687D01*
X189329405Y-117425809D01*
X189410091Y-117433288D01*
X189504081Y-117441881D01*
X189608637Y-117451346D01*
X189721025Y-117461442D01*
X189838507Y-117471926D01*
X189958348Y-117482556D01*
X190077811Y-117493091D01*
X190194159Y-117503287D01*
X190304657Y-117512905D01*
X190406569Y-117521700D01*
X190497158Y-117529432D01*
X190573687Y-117535858D01*
X190633421Y-117540737D01*
X190673624Y-117543825D01*
X190691559Y-117544883D01*
X190691644Y-117544882D01*
X190706035Y-117537173D01*
X190735748Y-117514019D01*
X190781131Y-117475105D01*
X190842529Y-117420116D01*
X190920288Y-117348736D01*
X191014754Y-117260651D01*
X191126272Y-117155546D01*
X191255188Y-117033105D01*
X191291287Y-116998690D01*
X191863416Y-116452863D01*
X191951436Y-116541119D01*
X191873758Y-116612515D01*
X191845686Y-116638634D01*
X191802274Y-116679434D01*
X191746366Y-116732223D01*
X191680808Y-116794309D01*
X191608441Y-116863000D01*
X191532112Y-116935604D01*
X191486524Y-116979040D01*
X191401119Y-117060584D01*
X191332710Y-117126496D01*
X191280053Y-117178456D01*
X191241905Y-117218145D01*
X191217020Y-117247243D01*
X191204156Y-117267431D01*
X191202068Y-117280390D01*
X191209513Y-117287800D01*
X191225246Y-117291342D01*
X191248023Y-117292697D01*
X191254239Y-117292879D01*
X191297061Y-117302297D01*
X191348819Y-117325503D01*
X191401328Y-117357864D01*
X191446403Y-117394748D01*
X191460328Y-117409507D01*
X191509047Y-117485233D01*
X191536306Y-117573692D01*
X191542773Y-117651900D01*
X191530576Y-117740532D01*
X191494813Y-117822388D01*
X191436722Y-117894836D01*
X191422262Y-117908203D01*
X191366733Y-117957082D01*
X191366733Y-118802674D01*
X191542773Y-118802674D01*
X191542773Y-119029010D01*
X191460531Y-119029010D01*
X191404386Y-119031850D01*
X191365416Y-119041393D01*
X191344219Y-119052991D01*
X191329052Y-119061277D01*
X191307062Y-119068373D01*
X191274987Y-119074748D01*
X191229569Y-119080872D01*
X191167548Y-119087216D01*
X191085662Y-119094250D01*
X191024746Y-119099066D01*
X190739343Y-119121161D01*
X191288805Y-119663565D01*
X191388228Y-119761637D01*
X191483815Y-119855784D01*
X191573810Y-119944285D01*
X191656457Y-120025420D01*
X191730001Y-120097469D01*
X191792684Y-120158712D01*
X191842752Y-120207427D01*
X191878448Y-120241896D01*
X191897995Y-120260379D01*
X191928944Y-120290743D01*
X191950530Y-120316071D01*
X191957723Y-120329695D01*
X191949297Y-120347095D01*
X191928245Y-120372460D01*
X191919671Y-120381058D01*
X191881620Y-120417514D01*
X191677658Y-120216802D01*
X191625699Y-120165596D01*
X191558820Y-120099569D01*
X191479950Y-120021618D01*
X191392014Y-119934638D01*
X191297941Y-119841526D01*
X191200658Y-119745179D01*
X191103093Y-119648492D01*
X191033145Y-119579134D01*
X190926550Y-119473703D01*
X190836307Y-119385129D01*
X190761192Y-119312281D01*
X190699986Y-119254023D01*
X190651466Y-119209225D01*
X190626129Y-119187021D01*
X190614411Y-119176751D01*
X190587599Y-119155471D01*
X190569808Y-119144251D01*
X190561570Y-119141754D01*
X190543590Y-119142700D01*
X190502892Y-119145573D01*
X190441819Y-119150187D01*
X190362713Y-119156358D01*
X190267914Y-119163898D01*
X190159767Y-119172621D01*
X190040612Y-119182343D01*
X189912791Y-119192876D01*
X189810635Y-119201365D01*
X189234674Y-119249396D01*
X189090726Y-119261401D01*
X188459158Y-119861938D01*
X187827589Y-120462475D01*
X187739315Y-120462034D01*
X187651040Y-120461592D01*
X187754666Y-120364583D01*
X187812463Y-120310291D01*
X187880368Y-120246192D01*
X187956572Y-120174016D01*
X188039269Y-120095492D01*
X188126653Y-120012349D01*
X188216915Y-119926319D01*
X188308250Y-119839130D01*
X188398849Y-119752513D01*
X188486907Y-119668197D01*
X188570615Y-119587912D01*
X188648167Y-119513387D01*
X188717757Y-119446354D01*
X188777576Y-119388541D01*
X188825818Y-119341679D01*
X188860676Y-119307496D01*
X188880343Y-119287724D01*
X188884116Y-119283390D01*
X188870992Y-119283092D01*
X188837389Y-119284731D01*
X188787880Y-119288023D01*
X188727037Y-119292682D01*
X188702732Y-119294682D01*
X188524951Y-119309577D01*
X188524951Y-119469109D01*
X188411782Y-119469109D01*
X188411782Y-119401314D01*
X188410696Y-119361662D01*
X188405454Y-119340116D01*
X188402334Y-119337480D01*
X188393081Y-119329662D01*
X188379604Y-119325442D01*
X188344627Y-119308219D01*
X188302579Y-119275138D01*
X188259356Y-119231893D01*
X188220854Y-119184174D01*
X188200801Y-119152830D01*
X188178851Y-119117123D01*
X188160967Y-119099371D01*
X188311188Y-119099371D01*
X188319254Y-119117987D01*
X188338820Y-119145183D01*
X188362944Y-119172448D01*
X188384682Y-119191267D01*
X188387508Y-119192943D01*
X188402334Y-119198616D01*
X188407856Y-119192955D01*
X188524951Y-119192955D01*
X188553243Y-119186934D01*
X188575618Y-119183863D01*
X188617717Y-119179548D01*
X188674178Y-119174488D01*
X188739635Y-119169181D01*
X188763862Y-119167344D01*
X188833421Y-119161927D01*
X188898018Y-119156459D01*
X188951548Y-119151488D01*
X188987910Y-119147561D01*
X188994509Y-119146675D01*
X189008056Y-119143334D01*
X189023914Y-119136101D01*
X189040135Y-119125805D01*
X189234674Y-119125805D01*
X189247104Y-119125273D01*
X189282110Y-119122769D01*
X189337215Y-119118496D01*
X189409943Y-119112653D01*
X189497814Y-119105443D01*
X189598351Y-119097066D01*
X189709077Y-119087723D01*
X189814205Y-119078758D01*
X189933483Y-119068602D01*
X190046080Y-119059142D01*
X190149305Y-119050596D01*
X190240473Y-119043179D01*
X190316895Y-119037108D01*
X190375883Y-119032601D01*
X190414749Y-119029873D01*
X190429844Y-119029116D01*
X190439238Y-119027935D01*
X190442966Y-119023256D01*
X190439471Y-119013276D01*
X190427199Y-118996190D01*
X190404594Y-118970196D01*
X190370100Y-118933490D01*
X190322162Y-118884267D01*
X190259224Y-118820726D01*
X190191968Y-118753305D01*
X189916477Y-118477601D01*
X189914406Y-118479533D01*
X189806295Y-118580409D01*
X189750377Y-118632768D01*
X189687948Y-118691535D01*
X189621443Y-118754385D01*
X189553298Y-118818995D01*
X189485948Y-118883042D01*
X189421828Y-118944203D01*
X189363372Y-119000153D01*
X189313018Y-119048570D01*
X189273198Y-119087130D01*
X189246350Y-119113509D01*
X189234908Y-119125384D01*
X189234674Y-119125805D01*
X189040135Y-119125805D01*
X189043861Y-119123440D01*
X189069673Y-119103811D01*
X189103129Y-119075678D01*
X189146007Y-119037502D01*
X189200083Y-118987746D01*
X189267136Y-118924871D01*
X189348943Y-118847341D01*
X189431950Y-118768251D01*
X189514094Y-118689564D01*
X189590169Y-118616112D01*
X189658325Y-118549724D01*
X189716712Y-118492227D01*
X189763481Y-118445451D01*
X189796782Y-118411224D01*
X189812222Y-118394182D01*
X190013046Y-118394182D01*
X190022170Y-118405722D01*
X190047200Y-118432710D01*
X190086052Y-118473021D01*
X190136643Y-118524529D01*
X190196888Y-118585109D01*
X190264704Y-118652636D01*
X190320565Y-118707826D01*
X190626129Y-119008724D01*
X190911555Y-118986401D01*
X190995219Y-118979669D01*
X191071727Y-118973157D01*
X191137081Y-118967234D01*
X191187281Y-118962268D01*
X191218329Y-118958629D01*
X191225273Y-118957458D01*
X191253565Y-118950838D01*
X191253565Y-118001364D01*
X191174606Y-117995026D01*
X191081315Y-117975890D01*
X190998791Y-117935846D01*
X190930038Y-117877418D01*
X190878063Y-117803129D01*
X190846863Y-117719748D01*
X190832228Y-117692698D01*
X190800819Y-117679156D01*
X190799434Y-117678872D01*
X190786174Y-117677247D01*
X190772595Y-117679256D01*
X190756181Y-117686858D01*
X190734411Y-117702016D01*
X190704767Y-117726688D01*
X190664732Y-117762836D01*
X190611785Y-117812420D01*
X190543409Y-117877401D01*
X190539005Y-117881599D01*
X190465611Y-117951493D01*
X190387437Y-118025800D01*
X190309864Y-118099414D01*
X190238275Y-118167229D01*
X190178051Y-118224140D01*
X190164587Y-118236832D01*
X190113820Y-118285487D01*
X190070375Y-118328709D01*
X190037241Y-118363395D01*
X190017405Y-118386444D01*
X190013046Y-118394182D01*
X189812222Y-118394182D01*
X189814767Y-118391373D01*
X189817442Y-118387140D01*
X189807741Y-118376003D01*
X189782441Y-118349971D01*
X189744082Y-118311570D01*
X189695200Y-118263328D01*
X189638334Y-118207770D01*
X189596906Y-118167592D01*
X189380000Y-117957831D01*
X189380000Y-118576337D01*
X189141089Y-118576337D01*
X189141089Y-117821881D01*
X189247542Y-117821881D01*
X189109654Y-117683565D01*
X189011840Y-117585447D01*
X188971766Y-117545248D01*
X188848952Y-117545248D01*
X188792450Y-117544863D01*
X188756505Y-117543100D01*
X188736530Y-117539050D01*
X188733438Y-117536442D01*
X189145703Y-117536442D01*
X189152854Y-117546334D01*
X189175841Y-117571524D01*
X189212439Y-117609810D01*
X189260422Y-117658989D01*
X189317566Y-117716861D01*
X189381647Y-117781222D01*
X189450438Y-117849871D01*
X189521716Y-117920605D01*
X189593255Y-117991222D01*
X189662830Y-118059520D01*
X189728217Y-118123296D01*
X189787191Y-118180350D01*
X189837527Y-118228478D01*
X189876999Y-118265478D01*
X189903383Y-118289148D01*
X189914406Y-118297290D01*
X189925780Y-118288984D01*
X189952563Y-118265733D01*
X189992292Y-118229865D01*
X190042507Y-118183713D01*
X190100746Y-118129606D01*
X190164547Y-118069874D01*
X190231449Y-118006848D01*
X190298990Y-117942858D01*
X190364710Y-117880236D01*
X190426146Y-117821310D01*
X190480837Y-117768412D01*
X190526322Y-117723872D01*
X190560138Y-117690020D01*
X190579826Y-117669188D01*
X190583837Y-117663506D01*
X190570891Y-117661634D01*
X190535134Y-117657746D01*
X190478804Y-117652057D01*
X190404140Y-117644781D01*
X190313380Y-117636131D01*
X190208762Y-117626322D01*
X190092526Y-117615566D01*
X189966908Y-117604079D01*
X189865618Y-117594907D01*
X189734279Y-117583174D01*
X189610552Y-117572335D01*
X189496681Y-117562570D01*
X189394911Y-117554063D01*
X189307487Y-117546995D01*
X189236653Y-117541549D01*
X189184653Y-117537908D01*
X189153732Y-117536253D01*
X189145703Y-117536442D01*
X188733438Y-117536442D01*
X188727937Y-117531801D01*
X188726139Y-117520870D01*
X188723498Y-117508712D01*
X188712912Y-117499727D01*
X188690381Y-117492826D01*
X188651909Y-117486924D01*
X188593498Y-117480935D01*
X188572104Y-117479013D01*
X188524951Y-117474852D01*
X188524951Y-119192955D01*
X188407856Y-119192955D01*
X188409462Y-119191308D01*
X188411662Y-119165993D01*
X188411782Y-119148908D01*
X188411782Y-119091881D01*
X188361485Y-119091881D01*
X188329976Y-119093544D01*
X188312463Y-119097697D01*
X188311188Y-119099371D01*
X188160967Y-119099371D01*
X188160411Y-119098819D01*
X188138668Y-119092388D01*
X188125718Y-119091894D01*
X188122575Y-119091894D01*
X188084852Y-119091881D01*
G36*
X220067590Y-118303766D02*
G01*
X220202376Y-118303766D01*
X220206917Y-118376732D01*
X220219986Y-118432334D01*
X220240756Y-118467861D01*
X220255552Y-118478020D01*
X220293464Y-118485104D01*
X220338527Y-118483007D01*
X220377487Y-118472812D01*
X220387704Y-118467204D01*
X220414659Y-118434538D01*
X220432451Y-118384545D01*
X220440024Y-118323705D01*
X220436325Y-118258497D01*
X220428057Y-118219253D01*
X220404320Y-118173805D01*
X220366849Y-118145396D01*
X220321720Y-118135573D01*
X220275011Y-118145887D01*
X220239132Y-118171112D01*
X220220277Y-118191925D01*
X220209272Y-118212439D01*
X220204026Y-118240203D01*
X220202449Y-118282762D01*
X220202376Y-118303766D01*
X220067590Y-118303766D01*
X220068094Y-118247580D01*
X220085388Y-118160501D01*
X220119029Y-118092530D01*
X220169018Y-118043664D01*
X220235356Y-118013899D01*
X220249601Y-118010448D01*
X220335210Y-118002345D01*
X220410762Y-118016055D01*
X220474363Y-118050692D01*
X220524123Y-118105372D01*
X220547568Y-118149842D01*
X220557634Y-118189121D01*
X220564156Y-118245116D01*
X220566951Y-118309621D01*
X220565836Y-118374429D01*
X220560626Y-118431334D01*
X220554541Y-118461727D01*
X220534014Y-118503306D01*
X220498463Y-118547468D01*
X220455619Y-118586087D01*
X220413211Y-118611034D01*
X220412177Y-118611430D01*
X220359553Y-118622331D01*
X220297188Y-118622601D01*
X220237924Y-118612676D01*
X220215040Y-118604722D01*
X220156102Y-118571300D01*
X220113890Y-118527511D01*
X220086156Y-118469538D01*
X220070651Y-118393565D01*
X220067143Y-118353771D01*
X220067590Y-118303766D01*
G37*
X220067590Y-118303766D02*
X220202376Y-118303766D01*
X220206917Y-118376732D01*
X220219986Y-118432334D01*
X220240756Y-118467861D01*
X220255552Y-118478020D01*
X220293464Y-118485104D01*
X220338527Y-118483007D01*
X220377487Y-118472812D01*
X220387704Y-118467204D01*
X220414659Y-118434538D01*
X220432451Y-118384545D01*
X220440024Y-118323705D01*
X220436325Y-118258497D01*
X220428057Y-118219253D01*
X220404320Y-118173805D01*
X220366849Y-118145396D01*
X220321720Y-118135573D01*
X220275011Y-118145887D01*
X220239132Y-118171112D01*
X220220277Y-118191925D01*
X220209272Y-118212439D01*
X220204026Y-118240203D01*
X220202449Y-118282762D01*
X220202376Y-118303766D01*
X220067590Y-118303766D01*
X220068094Y-118247580D01*
X220085388Y-118160501D01*
X220119029Y-118092530D01*
X220169018Y-118043664D01*
X220235356Y-118013899D01*
X220249601Y-118010448D01*
X220335210Y-118002345D01*
X220410762Y-118016055D01*
X220474363Y-118050692D01*
X220524123Y-118105372D01*
X220547568Y-118149842D01*
X220557634Y-118189121D01*
X220564156Y-118245116D01*
X220566951Y-118309621D01*
X220565836Y-118374429D01*
X220560626Y-118431334D01*
X220554541Y-118461727D01*
X220534014Y-118503306D01*
X220498463Y-118547468D01*
X220455619Y-118586087D01*
X220413211Y-118611034D01*
X220412177Y-118611430D01*
X220359553Y-118622331D01*
X220297188Y-118622601D01*
X220237924Y-118612676D01*
X220215040Y-118604722D01*
X220156102Y-118571300D01*
X220113890Y-118527511D01*
X220086156Y-118469538D01*
X220070651Y-118393565D01*
X220067143Y-118353771D01*
X220067590Y-118303766D01*
G36*
X218806644Y-118953020D02*
G01*
X218825461Y-118958660D01*
X218831527Y-118971053D01*
X218831782Y-118976647D01*
X218832871Y-118992230D01*
X218840368Y-118994676D01*
X218860619Y-118983993D01*
X218872649Y-118976694D01*
X218910600Y-118961063D01*
X218955928Y-118953334D01*
X219003456Y-118952740D01*
X219048005Y-118958513D01*
X219084398Y-118969884D01*
X219107457Y-118986088D01*
X219112004Y-119006355D01*
X219109709Y-119011843D01*
X219092980Y-119034626D01*
X219067037Y-119062647D01*
X219062345Y-119067177D01*
X219037617Y-119088005D01*
X219016282Y-119094735D01*
X218986445Y-119090038D01*
X218974492Y-119086917D01*
X218937295Y-119079421D01*
X218911141Y-119082792D01*
X218889054Y-119094681D01*
X218868822Y-119110635D01*
X218853921Y-119130700D01*
X218843566Y-119158702D01*
X218836971Y-119198467D01*
X218833351Y-119253823D01*
X218831922Y-119328594D01*
X218831782Y-119373740D01*
X218831782Y-119567822D01*
X218706040Y-119567822D01*
X218706040Y-118951683D01*
X218768911Y-118951683D01*
X218806644Y-118953020D01*
G37*
X218806644Y-118953020D02*
X218825461Y-118958660D01*
X218831527Y-118971053D01*
X218831782Y-118976647D01*
X218832871Y-118992230D01*
X218840368Y-118994676D01*
X218860619Y-118983993D01*
X218872649Y-118976694D01*
X218910600Y-118961063D01*
X218955928Y-118953334D01*
X219003456Y-118952740D01*
X219048005Y-118958513D01*
X219084398Y-118969884D01*
X219107457Y-118986088D01*
X219112004Y-119006355D01*
X219109709Y-119011843D01*
X219092980Y-119034626D01*
X219067037Y-119062647D01*
X219062345Y-119067177D01*
X219037617Y-119088005D01*
X219016282Y-119094735D01*
X218986445Y-119090038D01*
X218974492Y-119086917D01*
X218937295Y-119079421D01*
X218911141Y-119082792D01*
X218889054Y-119094681D01*
X218868822Y-119110635D01*
X218853921Y-119130700D01*
X218843566Y-119158702D01*
X218836971Y-119198467D01*
X218833351Y-119253823D01*
X218831922Y-119328594D01*
X218831782Y-119373740D01*
X218831782Y-119567822D01*
X218706040Y-119567822D01*
X218706040Y-118951683D01*
X218768911Y-118951683D01*
X218806644Y-118953020D01*
G36*
X220793367Y-118204342D02*
G01*
X220794555Y-118296563D01*
X220798897Y-118366610D01*
X220807558Y-118417381D01*
X220821704Y-118451772D01*
X220842500Y-118472679D01*
X220871110Y-118483000D01*
X220906535Y-118485636D01*
X220943636Y-118482682D01*
X220971818Y-118471889D01*
X220992243Y-118450360D01*
X221006079Y-118415199D01*
X221014491Y-118363510D01*
X221018643Y-118292394D01*
X221019703Y-118204342D01*
X221019703Y-118008614D01*
X221158020Y-118008614D01*
X221158020Y-118612179D01*
X221088862Y-118612179D01*
X221047170Y-118610489D01*
X221025701Y-118604556D01*
X221019703Y-118593293D01*
X221016091Y-118583261D01*
X221001714Y-118585383D01*
X220972736Y-118599580D01*
X220906319Y-118621480D01*
X220835875Y-118619928D01*
X220768377Y-118596147D01*
X220736233Y-118577362D01*
X220711715Y-118557022D01*
X220693804Y-118531573D01*
X220681479Y-118497458D01*
X220673723Y-118451121D01*
X220669516Y-118389007D01*
X220667840Y-118307561D01*
X220667624Y-118244578D01*
X220667624Y-118008614D01*
X220793367Y-118008614D01*
X220793367Y-118204342D01*
G37*
X220793367Y-118204342D02*
X220794555Y-118296563D01*
X220798897Y-118366610D01*
X220807558Y-118417381D01*
X220821704Y-118451772D01*
X220842500Y-118472679D01*
X220871110Y-118483000D01*
X220906535Y-118485636D01*
X220943636Y-118482682D01*
X220971818Y-118471889D01*
X220992243Y-118450360D01*
X221006079Y-118415199D01*
X221014491Y-118363510D01*
X221018643Y-118292394D01*
X221019703Y-118204342D01*
X221019703Y-118008614D01*
X221158020Y-118008614D01*
X221158020Y-118612179D01*
X221088862Y-118612179D01*
X221047170Y-118610489D01*
X221025701Y-118604556D01*
X221019703Y-118593293D01*
X221016091Y-118583261D01*
X221001714Y-118585383D01*
X220972736Y-118599580D01*
X220906319Y-118621480D01*
X220835875Y-118619928D01*
X220768377Y-118596147D01*
X220736233Y-118577362D01*
X220711715Y-118557022D01*
X220693804Y-118531573D01*
X220681479Y-118497458D01*
X220673723Y-118451121D01*
X220669516Y-118389007D01*
X220667840Y-118307561D01*
X220667624Y-118244578D01*
X220667624Y-118008614D01*
X220793367Y-118008614D01*
X220793367Y-118204342D01*
G36*
X219045988Y-118019002D02*
G01*
X219077283Y-118033950D01*
X219107591Y-118055541D01*
X219130682Y-118080391D01*
X219147500Y-118112087D01*
X219158994Y-118154214D01*
X219166109Y-118210358D01*
X219169793Y-118284106D01*
X219170992Y-118379044D01*
X219171011Y-118388985D01*
X219171287Y-118612179D01*
X219032970Y-118612179D01*
X219032970Y-118406418D01*
X219032872Y-118330189D01*
X219032191Y-118274939D01*
X219030349Y-118236501D01*
X219026767Y-118210706D01*
X219020868Y-118193384D01*
X219012073Y-118180368D01*
X218999820Y-118167507D01*
X218956953Y-118139873D01*
X218910157Y-118134745D01*
X218865576Y-118152217D01*
X218850072Y-118165221D01*
X218838690Y-118177447D01*
X218830519Y-118190540D01*
X218825026Y-118208615D01*
X218821680Y-118235787D01*
X218819949Y-118276170D01*
X218819303Y-118333879D01*
X218819208Y-118404132D01*
X218819208Y-118612179D01*
X218680891Y-118612179D01*
X218680891Y-118008614D01*
X218750050Y-118008614D01*
X218791572Y-118010256D01*
X218812994Y-118016087D01*
X218819205Y-118027461D01*
X218819208Y-118027798D01*
X218822090Y-118038938D01*
X218834801Y-118037674D01*
X218860074Y-118025434D01*
X218917395Y-118007424D01*
X218982963Y-118005421D01*
X219045988Y-118019002D01*
G37*
X219045988Y-118019002D02*
X219077283Y-118033950D01*
X219107591Y-118055541D01*
X219130682Y-118080391D01*
X219147500Y-118112087D01*
X219158994Y-118154214D01*
X219166109Y-118210358D01*
X219169793Y-118284106D01*
X219170992Y-118379044D01*
X219171011Y-118388985D01*
X219171287Y-118612179D01*
X219032970Y-118612179D01*
X219032970Y-118406418D01*
X219032872Y-118330189D01*
X219032191Y-118274939D01*
X219030349Y-118236501D01*
X219026767Y-118210706D01*
X219020868Y-118193384D01*
X219012073Y-118180368D01*
X218999820Y-118167507D01*
X218956953Y-118139873D01*
X218910157Y-118134745D01*
X218865576Y-118152217D01*
X218850072Y-118165221D01*
X218838690Y-118177447D01*
X218830519Y-118190540D01*
X218825026Y-118208615D01*
X218821680Y-118235787D01*
X218819949Y-118276170D01*
X218819303Y-118333879D01*
X218819208Y-118404132D01*
X218819208Y-118612179D01*
X218680891Y-118612179D01*
X218680891Y-118008614D01*
X218750050Y-118008614D01*
X218791572Y-118010256D01*
X218812994Y-118016087D01*
X218819205Y-118027461D01*
X218819208Y-118027798D01*
X218822090Y-118038938D01*
X218834801Y-118037674D01*
X218860074Y-118025434D01*
X218917395Y-118007424D01*
X218982963Y-118005421D01*
X219045988Y-118019002D01*
G36*
X222187100Y-118235542D02*
G01*
X222314852Y-118235542D01*
X222326584Y-118240822D01*
X222358438Y-118244867D01*
X222405397Y-118247176D01*
X222435154Y-118247525D01*
X222490648Y-118247306D01*
X222525346Y-118245916D01*
X222543601Y-118242251D01*
X222549766Y-118235210D01*
X222548195Y-118223690D01*
X222546878Y-118219233D01*
X222524382Y-118177355D01*
X222489003Y-118143604D01*
X222457780Y-118128773D01*
X222416301Y-118129668D01*
X222374269Y-118148164D01*
X222339012Y-118178786D01*
X222317854Y-118216062D01*
X222314852Y-118235542D01*
X222187100Y-118235542D01*
X222196690Y-118185229D01*
X222228698Y-118114191D01*
X222274701Y-118058779D01*
X222332821Y-118021009D01*
X222401180Y-118002896D01*
X222477898Y-118006457D01*
X222510096Y-118014279D01*
X222571825Y-118042921D01*
X222624610Y-118086667D01*
X222661141Y-118139117D01*
X222666160Y-118150893D01*
X222673045Y-118181740D01*
X222677864Y-118227371D01*
X222679505Y-118273492D01*
X222679505Y-118360693D01*
X222497178Y-118360693D01*
X222421979Y-118360978D01*
X222369003Y-118362704D01*
X222335325Y-118367181D01*
X222318020Y-118375720D01*
X222314163Y-118389630D01*
X222320829Y-118410222D01*
X222332770Y-118434315D01*
X222366080Y-118474525D01*
X222412368Y-118494558D01*
X222468944Y-118493905D01*
X222533031Y-118472101D01*
X222588417Y-118445193D01*
X222634375Y-118481532D01*
X222680333Y-118517872D01*
X222637096Y-118557819D01*
X222579374Y-118595563D01*
X222508386Y-118618320D01*
X222432029Y-118624688D01*
X222358199Y-118613268D01*
X222346287Y-118609393D01*
X222281399Y-118575506D01*
X222233130Y-118524986D01*
X222200465Y-118456325D01*
X222182385Y-118368014D01*
X222182175Y-118366121D01*
X222180556Y-118269878D01*
X222187100Y-118235542D01*
G37*
X222187100Y-118235542D02*
X222314852Y-118235542D01*
X222326584Y-118240822D01*
X222358438Y-118244867D01*
X222405397Y-118247176D01*
X222435154Y-118247525D01*
X222490648Y-118247306D01*
X222525346Y-118245916D01*
X222543601Y-118242251D01*
X222549766Y-118235210D01*
X222548195Y-118223690D01*
X222546878Y-118219233D01*
X222524382Y-118177355D01*
X222489003Y-118143604D01*
X222457780Y-118128773D01*
X222416301Y-118129668D01*
X222374269Y-118148164D01*
X222339012Y-118178786D01*
X222317854Y-118216062D01*
X222314852Y-118235542D01*
X222187100Y-118235542D01*
X222196690Y-118185229D01*
X222228698Y-118114191D01*
X222274701Y-118058779D01*
X222332821Y-118021009D01*
X222401180Y-118002896D01*
X222477898Y-118006457D01*
X222510096Y-118014279D01*
X222571825Y-118042921D01*
X222624610Y-118086667D01*
X222661141Y-118139117D01*
X222666160Y-118150893D01*
X222673045Y-118181740D01*
X222677864Y-118227371D01*
X222679505Y-118273492D01*
X222679505Y-118360693D01*
X222497178Y-118360693D01*
X222421979Y-118360978D01*
X222369003Y-118362704D01*
X222335325Y-118367181D01*
X222318020Y-118375720D01*
X222314163Y-118389630D01*
X222320829Y-118410222D01*
X222332770Y-118434315D01*
X222366080Y-118474525D01*
X222412368Y-118494558D01*
X222468944Y-118493905D01*
X222533031Y-118472101D01*
X222588417Y-118445193D01*
X222634375Y-118481532D01*
X222680333Y-118517872D01*
X222637096Y-118557819D01*
X222579374Y-118595563D01*
X222508386Y-118618320D01*
X222432029Y-118624688D01*
X222358199Y-118613268D01*
X222346287Y-118609393D01*
X222281399Y-118575506D01*
X222233130Y-118524986D01*
X222200465Y-118456325D01*
X222182385Y-118368014D01*
X222182175Y-118366121D01*
X222180556Y-118269878D01*
X222187100Y-118235542D01*
G36*
X221540421Y-119191413D02*
G01*
X221660990Y-119191413D01*
X221672652Y-119196465D01*
X221703998Y-119200429D01*
X221749571Y-119202768D01*
X221780446Y-119203169D01*
X221835981Y-119202783D01*
X221871033Y-119200975D01*
X221890262Y-119196773D01*
X221898330Y-119189203D01*
X221899901Y-119178218D01*
X221889121Y-119144381D01*
X221861980Y-119110940D01*
X221826277Y-119085272D01*
X221790560Y-119074772D01*
X221742048Y-119084086D01*
X221700053Y-119111013D01*
X221670936Y-119149827D01*
X221660990Y-119191413D01*
X221540421Y-119191413D01*
X221542599Y-119160236D01*
X221564055Y-119080949D01*
X221600470Y-119021263D01*
X221652297Y-118980549D01*
X221719990Y-118958179D01*
X221756662Y-118953871D01*
X221832581Y-118954970D01*
X221892685Y-118970597D01*
X221943021Y-119002848D01*
X221967393Y-119026940D01*
X222007345Y-119083895D01*
X222030242Y-119149965D01*
X222038108Y-119231182D01*
X222038148Y-119237748D01*
X222038218Y-119303763D01*
X221658264Y-119303763D01*
X221666363Y-119338342D01*
X221680987Y-119369659D01*
X221706581Y-119402291D01*
X221711935Y-119407500D01*
X221757943Y-119435694D01*
X221810410Y-119440475D01*
X221870803Y-119421926D01*
X221881040Y-119416931D01*
X221912439Y-119401745D01*
X221933470Y-119393094D01*
X221937139Y-119392293D01*
X221949948Y-119400063D01*
X221974378Y-119419072D01*
X221986779Y-119429460D01*
X222012476Y-119453321D01*
X222020915Y-119469077D01*
X222015058Y-119483571D01*
X222011928Y-119487534D01*
X221990725Y-119504879D01*
X221955738Y-119525959D01*
X221931337Y-119538265D01*
X221862072Y-119559946D01*
X221785388Y-119566971D01*
X221712765Y-119558647D01*
X221692426Y-119552686D01*
X221629476Y-119518952D01*
X221582815Y-119467045D01*
X221552173Y-119396459D01*
X221537282Y-119306692D01*
X221535647Y-119259753D01*
X221540421Y-119191413D01*
G37*
X221540421Y-119191413D02*
X221660990Y-119191413D01*
X221672652Y-119196465D01*
X221703998Y-119200429D01*
X221749571Y-119202768D01*
X221780446Y-119203169D01*
X221835981Y-119202783D01*
X221871033Y-119200975D01*
X221890262Y-119196773D01*
X221898330Y-119189203D01*
X221899901Y-119178218D01*
X221889121Y-119144381D01*
X221861980Y-119110940D01*
X221826277Y-119085272D01*
X221790560Y-119074772D01*
X221742048Y-119084086D01*
X221700053Y-119111013D01*
X221670936Y-119149827D01*
X221660990Y-119191413D01*
X221540421Y-119191413D01*
X221542599Y-119160236D01*
X221564055Y-119080949D01*
X221600470Y-119021263D01*
X221652297Y-118980549D01*
X221719990Y-118958179D01*
X221756662Y-118953871D01*
X221832581Y-118954970D01*
X221892685Y-118970597D01*
X221943021Y-119002848D01*
X221967393Y-119026940D01*
X222007345Y-119083895D01*
X222030242Y-119149965D01*
X222038108Y-119231182D01*
X222038148Y-119237748D01*
X222038218Y-119303763D01*
X221658264Y-119303763D01*
X221666363Y-119338342D01*
X221680987Y-119369659D01*
X221706581Y-119402291D01*
X221711935Y-119407500D01*
X221757943Y-119435694D01*
X221810410Y-119440475D01*
X221870803Y-119421926D01*
X221881040Y-119416931D01*
X221912439Y-119401745D01*
X221933470Y-119393094D01*
X221937139Y-119392293D01*
X221949948Y-119400063D01*
X221974378Y-119419072D01*
X221986779Y-119429460D01*
X222012476Y-119453321D01*
X222020915Y-119469077D01*
X222015058Y-119483571D01*
X222011928Y-119487534D01*
X221990725Y-119504879D01*
X221955738Y-119525959D01*
X221931337Y-119538265D01*
X221862072Y-119559946D01*
X221785388Y-119566971D01*
X221712765Y-119558647D01*
X221692426Y-119552686D01*
X221629476Y-119518952D01*
X221582815Y-119467045D01*
X221552173Y-119396459D01*
X221537282Y-119306692D01*
X221535647Y-119259753D01*
X221540421Y-119191413D01*
G36*
X222017226Y-118013880D02*
G01*
X222090080Y-118044830D01*
X222113027Y-118059895D01*
X222142354Y-118083048D01*
X222160764Y-118101253D01*
X222163961Y-118107183D01*
X222154935Y-118120340D01*
X222131837Y-118142667D01*
X222113344Y-118158250D01*
X222062728Y-118198926D01*
X222022760Y-118165295D01*
X221991874Y-118143584D01*
X221961759Y-118136090D01*
X221927292Y-118137920D01*
X221872561Y-118151528D01*
X221834886Y-118179772D01*
X221811991Y-118225433D01*
X221801597Y-118291289D01*
X221801595Y-118291331D01*
X221802494Y-118364939D01*
X221816463Y-118418946D01*
X221844328Y-118455716D01*
X221863325Y-118468168D01*
X221913776Y-118483673D01*
X221967663Y-118483683D01*
X222014546Y-118468638D01*
X222025644Y-118461287D01*
X222053476Y-118442511D01*
X222075236Y-118439434D01*
X222098704Y-118453409D01*
X222124649Y-118478510D01*
X222165716Y-118520880D01*
X222120121Y-118558464D01*
X222049674Y-118600882D01*
X221970233Y-118621785D01*
X221887215Y-118620272D01*
X221832694Y-118606411D01*
X221768970Y-118572135D01*
X221718005Y-118518212D01*
X221694851Y-118480149D01*
X221676099Y-118425536D01*
X221666715Y-118356369D01*
X221666643Y-118281407D01*
X221675824Y-118209409D01*
X221694199Y-118149137D01*
X221697093Y-118142958D01*
X221739952Y-118082351D01*
X221797979Y-118038224D01*
X221866591Y-118011493D01*
X221941201Y-118003073D01*
X222017226Y-118013880D01*
G37*
X222017226Y-118013880D02*
X222090080Y-118044830D01*
X222113027Y-118059895D01*
X222142354Y-118083048D01*
X222160764Y-118101253D01*
X222163961Y-118107183D01*
X222154935Y-118120340D01*
X222131837Y-118142667D01*
X222113344Y-118158250D01*
X222062728Y-118198926D01*
X222022760Y-118165295D01*
X221991874Y-118143584D01*
X221961759Y-118136090D01*
X221927292Y-118137920D01*
X221872561Y-118151528D01*
X221834886Y-118179772D01*
X221811991Y-118225433D01*
X221801597Y-118291289D01*
X221801595Y-118291331D01*
X221802494Y-118364939D01*
X221816463Y-118418946D01*
X221844328Y-118455716D01*
X221863325Y-118468168D01*
X221913776Y-118483673D01*
X221967663Y-118483683D01*
X222014546Y-118468638D01*
X222025644Y-118461287D01*
X222053476Y-118442511D01*
X222075236Y-118439434D01*
X222098704Y-118453409D01*
X222124649Y-118478510D01*
X222165716Y-118520880D01*
X222120121Y-118558464D01*
X222049674Y-118600882D01*
X221970233Y-118621785D01*
X221887215Y-118620272D01*
X221832694Y-118606411D01*
X221768970Y-118572135D01*
X221718005Y-118518212D01*
X221694851Y-118480149D01*
X221676099Y-118425536D01*
X221666715Y-118356369D01*
X221666643Y-118281407D01*
X221675824Y-118209409D01*
X221694199Y-118149137D01*
X221697093Y-118142958D01*
X221739952Y-118082351D01*
X221797979Y-118038224D01*
X221866591Y-118011493D01*
X221941201Y-118003073D01*
X222017226Y-118013880D01*
G36*
X220176964Y-113840018D02*
G01*
X220233812Y-114141570D01*
X220653338Y-114314512D01*
X220904984Y-114143395D01*
X220975458Y-114095750D01*
X221039163Y-114053210D01*
X221093126Y-114017715D01*
X221134373Y-113991210D01*
X221159934Y-113975636D01*
X221166895Y-113972278D01*
X221179435Y-113980914D01*
X221206231Y-114004792D01*
X221244280Y-114040859D01*
X221290579Y-114086067D01*
X221342123Y-114137364D01*
X221395909Y-114191701D01*
X221448935Y-114246028D01*
X221498195Y-114297295D01*
X221540687Y-114342451D01*
X221573407Y-114378446D01*
X221593351Y-114402230D01*
X221598119Y-114410190D01*
X221591257Y-114424865D01*
X221572020Y-114457014D01*
X221542430Y-114503492D01*
X221504510Y-114561156D01*
X221460282Y-114626860D01*
X221434654Y-114664336D01*
X221387941Y-114732768D01*
X221346432Y-114794520D01*
X221312140Y-114846519D01*
X221287080Y-114885692D01*
X221273264Y-114908965D01*
X221271188Y-114913855D01*
X221275895Y-114927755D01*
X221288723Y-114960150D01*
X221307738Y-115006485D01*
X221331003Y-115062206D01*
X221356584Y-115122758D01*
X221382545Y-115183586D01*
X221406950Y-115240136D01*
X221427863Y-115287852D01*
X221443349Y-115322181D01*
X221451472Y-115338568D01*
X221451952Y-115339212D01*
X221464707Y-115342341D01*
X221498677Y-115349321D01*
X221550340Y-115359467D01*
X221616176Y-115372092D01*
X221692664Y-115386509D01*
X221737290Y-115394823D01*
X221819021Y-115410384D01*
X221892843Y-115425192D01*
X221955021Y-115438436D01*
X222001822Y-115449305D01*
X222029509Y-115456989D01*
X222035074Y-115459427D01*
X222040526Y-115475930D01*
X222044924Y-115513200D01*
X222048272Y-115566880D01*
X222050574Y-115632612D01*
X222051832Y-115706037D01*
X222052048Y-115782796D01*
X222051227Y-115858532D01*
X222049371Y-115928886D01*
X222046482Y-115989500D01*
X222042565Y-116036016D01*
X222037622Y-116064075D01*
X222034657Y-116069916D01*
X222016934Y-116076917D01*
X221979381Y-116086927D01*
X221926964Y-116098769D01*
X221864652Y-116111267D01*
X221842900Y-116115310D01*
X221738024Y-116134520D01*
X221655180Y-116149991D01*
X221591630Y-116162337D01*
X221544637Y-116172173D01*
X221511463Y-116180114D01*
X221489371Y-116186776D01*
X221475624Y-116192773D01*
X221467484Y-116198719D01*
X221466345Y-116199894D01*
X221454977Y-116218826D01*
X221437635Y-116255669D01*
X221416050Y-116305913D01*
X221391954Y-116365046D01*
X221367079Y-116428556D01*
X221343157Y-116491932D01*
X221321919Y-116550662D01*
X221305097Y-116600235D01*
X221294422Y-116636139D01*
X221291627Y-116653862D01*
X221291860Y-116654483D01*
X221301331Y-116668970D01*
X221322818Y-116700844D01*
X221354063Y-116746789D01*
X221392807Y-116803485D01*
X221436793Y-116867617D01*
X221449319Y-116885842D01*
X221493984Y-116951914D01*
X221533288Y-117012200D01*
X221565088Y-117063235D01*
X221587245Y-117101560D01*
X221597617Y-117123711D01*
X221598119Y-117126432D01*
X221589405Y-117140736D01*
X221565325Y-117169072D01*
X221528976Y-117208396D01*
X221483453Y-117255661D01*
X221431852Y-117307823D01*
X221377267Y-117361835D01*
X221322794Y-117414653D01*
X221271529Y-117463231D01*
X221226567Y-117504523D01*
X221191004Y-117535485D01*
X221167935Y-117553070D01*
X221161554Y-117555941D01*
X221146699Y-117549178D01*
X221116286Y-117530939D01*
X221075268Y-117504297D01*
X221043709Y-117482852D01*
X220986525Y-117443503D01*
X220918806Y-117397171D01*
X220850880Y-117350913D01*
X220814361Y-117326155D01*
X220690752Y-117242547D01*
X220586991Y-117298650D01*
X220539720Y-117323228D01*
X220499523Y-117342331D01*
X220472326Y-117353227D01*
X220465402Y-117354743D01*
X220457077Y-117343549D01*
X220440654Y-117311917D01*
X220417357Y-117262765D01*
X220388414Y-117199010D01*
X220355050Y-117123571D01*
X220318491Y-117039364D01*
X220279964Y-116949308D01*
X220240694Y-116856321D01*
X220201908Y-116763320D01*
X220164830Y-116673223D01*
X220130689Y-116588948D01*
X220100708Y-116513413D01*
X220076116Y-116449534D01*
X220058136Y-116400231D01*
X220047997Y-116368421D01*
X220046366Y-116357496D01*
X220059291Y-116343561D01*
X220087589Y-116320940D01*
X220125346Y-116294333D01*
X220128515Y-116292228D01*
X220226100Y-116214114D01*
X220304786Y-116122982D01*
X220363891Y-116021745D01*
X220402732Y-115913318D01*
X220420628Y-115800614D01*
X220416897Y-115686548D01*
X220390857Y-115574034D01*
X220341825Y-115465985D01*
X220327400Y-115442345D01*
X220252369Y-115346887D01*
X220163730Y-115270232D01*
X220064549Y-115212780D01*
X219957895Y-115174929D01*
X219846836Y-115157078D01*
X219734439Y-115159625D01*
X219623773Y-115182970D01*
X219517906Y-115227510D01*
X219419905Y-115293645D01*
X219389590Y-115320487D01*
X219312438Y-115404512D01*
X219256218Y-115492966D01*
X219217653Y-115592115D01*
X219196174Y-115690303D01*
X219190872Y-115800697D01*
X219208552Y-115911640D01*
X219247419Y-116019381D01*
X219305677Y-116120169D01*
X219381531Y-116210256D01*
X219473183Y-116285892D01*
X219485228Y-116293864D01*
X219523389Y-116319974D01*
X219552399Y-116342595D01*
X219566268Y-116357039D01*
X219566469Y-116357496D01*
X219563492Y-116373121D01*
X219551689Y-116408582D01*
X219532286Y-116460962D01*
X219506512Y-116527345D01*
X219475591Y-116604814D01*
X219440751Y-116690450D01*
X219403217Y-116781337D01*
X219364217Y-116874559D01*
X219324977Y-116967197D01*
X219286724Y-117056335D01*
X219250683Y-117139055D01*
X219218083Y-117212441D01*
X219190148Y-117273575D01*
X219168105Y-117319541D01*
X219153182Y-117347421D01*
X219147172Y-117354743D01*
X219128809Y-117349041D01*
X219094448Y-117333749D01*
X219050016Y-117311599D01*
X219025583Y-117298650D01*
X218921822Y-117242547D01*
X218798213Y-117326155D01*
X218735114Y-117368987D01*
X218666030Y-117416122D01*
X218601293Y-117460503D01*
X218568866Y-117482852D01*
X218523259Y-117513477D01*
X218484640Y-117537747D01*
X218458048Y-117552587D01*
X218449410Y-117555724D01*
X218436839Y-117547261D01*
X218409016Y-117523636D01*
X218368639Y-117487302D01*
X218318405Y-117440711D01*
X218261012Y-117386317D01*
X218224714Y-117351392D01*
X218161210Y-117288996D01*
X218106327Y-117233188D01*
X218062286Y-117186354D01*
X218031305Y-117150882D01*
X218015602Y-117129161D01*
X218014095Y-117124752D01*
X218021086Y-117107985D01*
X218040406Y-117074082D01*
X218069909Y-117026476D01*
X218107455Y-116968599D01*
X218150900Y-116903884D01*
X218163255Y-116885842D01*
X218208273Y-116820267D01*
X218248660Y-116761228D01*
X218282160Y-116712042D01*
X218306514Y-116676028D01*
X218319464Y-116656502D01*
X218320715Y-116654483D01*
X218318844Y-116638922D01*
X218308913Y-116604709D01*
X218292653Y-116556355D01*
X218271795Y-116498371D01*
X218248073Y-116435270D01*
X218223216Y-116371563D01*
X218198958Y-116311761D01*
X218177029Y-116260376D01*
X218159162Y-116221919D01*
X218147087Y-116200902D01*
X218146229Y-116199894D01*
X218138846Y-116193888D01*
X218126375Y-116187948D01*
X218106080Y-116181460D01*
X218075222Y-116173809D01*
X218031066Y-116164380D01*
X217970874Y-116152559D01*
X217891907Y-116137729D01*
X217791430Y-116119277D01*
X217769675Y-116115310D01*
X217705198Y-116102853D01*
X217648989Y-116090666D01*
X217606013Y-116079926D01*
X217581240Y-116071809D01*
X217577918Y-116069916D01*
X217572444Y-116053138D01*
X217567994Y-116015645D01*
X217564572Y-115961794D01*
X217562181Y-115895944D01*
X217560823Y-115822453D01*
X217560501Y-115745680D01*
X217561219Y-115669983D01*
X217562979Y-115599720D01*
X217565784Y-115539250D01*
X217569638Y-115492930D01*
X217574543Y-115465119D01*
X217577500Y-115459427D01*
X217593963Y-115453686D01*
X217631449Y-115444345D01*
X217686225Y-115432215D01*
X217754555Y-115418107D01*
X217832706Y-115402830D01*
X217875284Y-115394823D01*
X217956071Y-115379721D01*
X218028113Y-115366040D01*
X218087889Y-115354467D01*
X218131879Y-115345687D01*
X218156561Y-115340387D01*
X218160623Y-115339212D01*
X218167489Y-115325965D01*
X218182002Y-115294057D01*
X218202229Y-115248047D01*
X218226234Y-115192492D01*
X218252082Y-115131953D01*
X218277840Y-115070986D01*
X218301573Y-115014151D01*
X218321346Y-114966006D01*
X218335224Y-114931110D01*
X218341274Y-114914021D01*
X218341386Y-114913274D01*
X218334528Y-114899793D01*
X218315302Y-114868770D01*
X218285728Y-114823289D01*
X218247827Y-114766432D01*
X218203620Y-114701283D01*
X218177921Y-114663862D01*
X218131093Y-114595247D01*
X218089501Y-114532952D01*
X218055175Y-114480129D01*
X218030143Y-114439927D01*
X218016435Y-114415500D01*
X218014456Y-114410024D01*
X218022966Y-114397278D01*
X218046493Y-114370063D01*
X218082032Y-114331428D01*
X218126577Y-114284423D01*
X218177123Y-114232095D01*
X218230664Y-114177495D01*
X218284195Y-114123670D01*
X218334711Y-114073670D01*
X218379206Y-114030543D01*
X218414675Y-113997339D01*
X218438113Y-113977106D01*
X218445954Y-113972278D01*
X218458720Y-113979067D01*
X218489256Y-113998142D01*
X218534590Y-114027561D01*
X218591756Y-114065381D01*
X218657784Y-114109661D01*
X218707590Y-114143395D01*
X218959236Y-114314512D01*
X219168999Y-114228041D01*
X219378763Y-114141570D01*
X219435611Y-113840018D01*
X219492460Y-113538466D01*
X220120115Y-113538466D01*
X220176964Y-113840018D01*
G37*
X220176964Y-113840018D02*
X220233812Y-114141570D01*
X220653338Y-114314512D01*
X220904984Y-114143395D01*
X220975458Y-114095750D01*
X221039163Y-114053210D01*
X221093126Y-114017715D01*
X221134373Y-113991210D01*
X221159934Y-113975636D01*
X221166895Y-113972278D01*
X221179435Y-113980914D01*
X221206231Y-114004792D01*
X221244280Y-114040859D01*
X221290579Y-114086067D01*
X221342123Y-114137364D01*
X221395909Y-114191701D01*
X221448935Y-114246028D01*
X221498195Y-114297295D01*
X221540687Y-114342451D01*
X221573407Y-114378446D01*
X221593351Y-114402230D01*
X221598119Y-114410190D01*
X221591257Y-114424865D01*
X221572020Y-114457014D01*
X221542430Y-114503492D01*
X221504510Y-114561156D01*
X221460282Y-114626860D01*
X221434654Y-114664336D01*
X221387941Y-114732768D01*
X221346432Y-114794520D01*
X221312140Y-114846519D01*
X221287080Y-114885692D01*
X221273264Y-114908965D01*
X221271188Y-114913855D01*
X221275895Y-114927755D01*
X221288723Y-114960150D01*
X221307738Y-115006485D01*
X221331003Y-115062206D01*
X221356584Y-115122758D01*
X221382545Y-115183586D01*
X221406950Y-115240136D01*
X221427863Y-115287852D01*
X221443349Y-115322181D01*
X221451472Y-115338568D01*
X221451952Y-115339212D01*
X221464707Y-115342341D01*
X221498677Y-115349321D01*
X221550340Y-115359467D01*
X221616176Y-115372092D01*
X221692664Y-115386509D01*
X221737290Y-115394823D01*
X221819021Y-115410384D01*
X221892843Y-115425192D01*
X221955021Y-115438436D01*
X222001822Y-115449305D01*
X222029509Y-115456989D01*
X222035074Y-115459427D01*
X222040526Y-115475930D01*
X222044924Y-115513200D01*
X222048272Y-115566880D01*
X222050574Y-115632612D01*
X222051832Y-115706037D01*
X222052048Y-115782796D01*
X222051227Y-115858532D01*
X222049371Y-115928886D01*
X222046482Y-115989500D01*
X222042565Y-116036016D01*
X222037622Y-116064075D01*
X222034657Y-116069916D01*
X222016934Y-116076917D01*
X221979381Y-116086927D01*
X221926964Y-116098769D01*
X221864652Y-116111267D01*
X221842900Y-116115310D01*
X221738024Y-116134520D01*
X221655180Y-116149991D01*
X221591630Y-116162337D01*
X221544637Y-116172173D01*
X221511463Y-116180114D01*
X221489371Y-116186776D01*
X221475624Y-116192773D01*
X221467484Y-116198719D01*
X221466345Y-116199894D01*
X221454977Y-116218826D01*
X221437635Y-116255669D01*
X221416050Y-116305913D01*
X221391954Y-116365046D01*
X221367079Y-116428556D01*
X221343157Y-116491932D01*
X221321919Y-116550662D01*
X221305097Y-116600235D01*
X221294422Y-116636139D01*
X221291627Y-116653862D01*
X221291860Y-116654483D01*
X221301331Y-116668970D01*
X221322818Y-116700844D01*
X221354063Y-116746789D01*
X221392807Y-116803485D01*
X221436793Y-116867617D01*
X221449319Y-116885842D01*
X221493984Y-116951914D01*
X221533288Y-117012200D01*
X221565088Y-117063235D01*
X221587245Y-117101560D01*
X221597617Y-117123711D01*
X221598119Y-117126432D01*
X221589405Y-117140736D01*
X221565325Y-117169072D01*
X221528976Y-117208396D01*
X221483453Y-117255661D01*
X221431852Y-117307823D01*
X221377267Y-117361835D01*
X221322794Y-117414653D01*
X221271529Y-117463231D01*
X221226567Y-117504523D01*
X221191004Y-117535485D01*
X221167935Y-117553070D01*
X221161554Y-117555941D01*
X221146699Y-117549178D01*
X221116286Y-117530939D01*
X221075268Y-117504297D01*
X221043709Y-117482852D01*
X220986525Y-117443503D01*
X220918806Y-117397171D01*
X220850880Y-117350913D01*
X220814361Y-117326155D01*
X220690752Y-117242547D01*
X220586991Y-117298650D01*
X220539720Y-117323228D01*
X220499523Y-117342331D01*
X220472326Y-117353227D01*
X220465402Y-117354743D01*
X220457077Y-117343549D01*
X220440654Y-117311917D01*
X220417357Y-117262765D01*
X220388414Y-117199010D01*
X220355050Y-117123571D01*
X220318491Y-117039364D01*
X220279964Y-116949308D01*
X220240694Y-116856321D01*
X220201908Y-116763320D01*
X220164830Y-116673223D01*
X220130689Y-116588948D01*
X220100708Y-116513413D01*
X220076116Y-116449534D01*
X220058136Y-116400231D01*
X220047997Y-116368421D01*
X220046366Y-116357496D01*
X220059291Y-116343561D01*
X220087589Y-116320940D01*
X220125346Y-116294333D01*
X220128515Y-116292228D01*
X220226100Y-116214114D01*
X220304786Y-116122982D01*
X220363891Y-116021745D01*
X220402732Y-115913318D01*
X220420628Y-115800614D01*
X220416897Y-115686548D01*
X220390857Y-115574034D01*
X220341825Y-115465985D01*
X220327400Y-115442345D01*
X220252369Y-115346887D01*
X220163730Y-115270232D01*
X220064549Y-115212780D01*
X219957895Y-115174929D01*
X219846836Y-115157078D01*
X219734439Y-115159625D01*
X219623773Y-115182970D01*
X219517906Y-115227510D01*
X219419905Y-115293645D01*
X219389590Y-115320487D01*
X219312438Y-115404512D01*
X219256218Y-115492966D01*
X219217653Y-115592115D01*
X219196174Y-115690303D01*
X219190872Y-115800697D01*
X219208552Y-115911640D01*
X219247419Y-116019381D01*
X219305677Y-116120169D01*
X219381531Y-116210256D01*
X219473183Y-116285892D01*
X219485228Y-116293864D01*
X219523389Y-116319974D01*
X219552399Y-116342595D01*
X219566268Y-116357039D01*
X219566469Y-116357496D01*
X219563492Y-116373121D01*
X219551689Y-116408582D01*
X219532286Y-116460962D01*
X219506512Y-116527345D01*
X219475591Y-116604814D01*
X219440751Y-116690450D01*
X219403217Y-116781337D01*
X219364217Y-116874559D01*
X219324977Y-116967197D01*
X219286724Y-117056335D01*
X219250683Y-117139055D01*
X219218083Y-117212441D01*
X219190148Y-117273575D01*
X219168105Y-117319541D01*
X219153182Y-117347421D01*
X219147172Y-117354743D01*
X219128809Y-117349041D01*
X219094448Y-117333749D01*
X219050016Y-117311599D01*
X219025583Y-117298650D01*
X218921822Y-117242547D01*
X218798213Y-117326155D01*
X218735114Y-117368987D01*
X218666030Y-117416122D01*
X218601293Y-117460503D01*
X218568866Y-117482852D01*
X218523259Y-117513477D01*
X218484640Y-117537747D01*
X218458048Y-117552587D01*
X218449410Y-117555724D01*
X218436839Y-117547261D01*
X218409016Y-117523636D01*
X218368639Y-117487302D01*
X218318405Y-117440711D01*
X218261012Y-117386317D01*
X218224714Y-117351392D01*
X218161210Y-117288996D01*
X218106327Y-117233188D01*
X218062286Y-117186354D01*
X218031305Y-117150882D01*
X218015602Y-117129161D01*
X218014095Y-117124752D01*
X218021086Y-117107985D01*
X218040406Y-117074082D01*
X218069909Y-117026476D01*
X218107455Y-116968599D01*
X218150900Y-116903884D01*
X218163255Y-116885842D01*
X218208273Y-116820267D01*
X218248660Y-116761228D01*
X218282160Y-116712042D01*
X218306514Y-116676028D01*
X218319464Y-116656502D01*
X218320715Y-116654483D01*
X218318844Y-116638922D01*
X218308913Y-116604709D01*
X218292653Y-116556355D01*
X218271795Y-116498371D01*
X218248073Y-116435270D01*
X218223216Y-116371563D01*
X218198958Y-116311761D01*
X218177029Y-116260376D01*
X218159162Y-116221919D01*
X218147087Y-116200902D01*
X218146229Y-116199894D01*
X218138846Y-116193888D01*
X218126375Y-116187948D01*
X218106080Y-116181460D01*
X218075222Y-116173809D01*
X218031066Y-116164380D01*
X217970874Y-116152559D01*
X217891907Y-116137729D01*
X217791430Y-116119277D01*
X217769675Y-116115310D01*
X217705198Y-116102853D01*
X217648989Y-116090666D01*
X217606013Y-116079926D01*
X217581240Y-116071809D01*
X217577918Y-116069916D01*
X217572444Y-116053138D01*
X217567994Y-116015645D01*
X217564572Y-115961794D01*
X217562181Y-115895944D01*
X217560823Y-115822453D01*
X217560501Y-115745680D01*
X217561219Y-115669983D01*
X217562979Y-115599720D01*
X217565784Y-115539250D01*
X217569638Y-115492930D01*
X217574543Y-115465119D01*
X217577500Y-115459427D01*
X217593963Y-115453686D01*
X217631449Y-115444345D01*
X217686225Y-115432215D01*
X217754555Y-115418107D01*
X217832706Y-115402830D01*
X217875284Y-115394823D01*
X217956071Y-115379721D01*
X218028113Y-115366040D01*
X218087889Y-115354467D01*
X218131879Y-115345687D01*
X218156561Y-115340387D01*
X218160623Y-115339212D01*
X218167489Y-115325965D01*
X218182002Y-115294057D01*
X218202229Y-115248047D01*
X218226234Y-115192492D01*
X218252082Y-115131953D01*
X218277840Y-115070986D01*
X218301573Y-115014151D01*
X218321346Y-114966006D01*
X218335224Y-114931110D01*
X218341274Y-114914021D01*
X218341386Y-114913274D01*
X218334528Y-114899793D01*
X218315302Y-114868770D01*
X218285728Y-114823289D01*
X218247827Y-114766432D01*
X218203620Y-114701283D01*
X218177921Y-114663862D01*
X218131093Y-114595247D01*
X218089501Y-114532952D01*
X218055175Y-114480129D01*
X218030143Y-114439927D01*
X218016435Y-114415500D01*
X218014456Y-114410024D01*
X218022966Y-114397278D01*
X218046493Y-114370063D01*
X218082032Y-114331428D01*
X218126577Y-114284423D01*
X218177123Y-114232095D01*
X218230664Y-114177495D01*
X218284195Y-114123670D01*
X218334711Y-114073670D01*
X218379206Y-114030543D01*
X218414675Y-113997339D01*
X218438113Y-113977106D01*
X218445954Y-113972278D01*
X218458720Y-113979067D01*
X218489256Y-113998142D01*
X218534590Y-114027561D01*
X218591756Y-114065381D01*
X218657784Y-114109661D01*
X218707590Y-114143395D01*
X218959236Y-114314512D01*
X219168999Y-114228041D01*
X219378763Y-114141570D01*
X219435611Y-113840018D01*
X219492460Y-113538466D01*
X220120115Y-113538466D01*
X220176964Y-113840018D01*
G36*
X220511746Y-119381824D02*
G01*
X220635508Y-119381824D01*
X220646413Y-119409425D01*
X220678745Y-119429204D01*
X220730910Y-119439819D01*
X220758787Y-119441228D01*
X220805247Y-119437620D01*
X220836129Y-119423597D01*
X220843664Y-119416931D01*
X220864076Y-119380666D01*
X220868812Y-119347773D01*
X220868812Y-119303763D01*
X220807513Y-119303763D01*
X220736256Y-119307395D01*
X220686276Y-119318818D01*
X220654696Y-119338824D01*
X220647626Y-119347743D01*
X220635508Y-119381824D01*
X220511746Y-119381824D01*
X220513971Y-119342456D01*
X220536663Y-119285244D01*
X220567624Y-119246580D01*
X220586376Y-119229864D01*
X220604733Y-119218878D01*
X220628619Y-119212180D01*
X220663957Y-119208326D01*
X220716669Y-119205873D01*
X220737577Y-119205168D01*
X220868812Y-119200879D01*
X220868620Y-119161158D01*
X220863537Y-119119405D01*
X220845162Y-119094158D01*
X220808039Y-119078030D01*
X220807043Y-119077742D01*
X220754410Y-119071400D01*
X220702906Y-119079684D01*
X220664630Y-119099827D01*
X220649272Y-119109773D01*
X220632730Y-119108397D01*
X220607275Y-119093987D01*
X220592328Y-119083817D01*
X220563091Y-119062088D01*
X220544980Y-119045800D01*
X220542074Y-119041137D01*
X220554040Y-119017005D01*
X220589396Y-118988185D01*
X220604753Y-118978461D01*
X220648901Y-118961714D01*
X220708398Y-118952227D01*
X220774487Y-118950095D01*
X220838411Y-118955417D01*
X220891411Y-118968290D01*
X220906731Y-118975110D01*
X220936428Y-118992974D01*
X220959220Y-119013093D01*
X220976083Y-119038962D01*
X220987998Y-119074073D01*
X220995942Y-119121920D01*
X221000894Y-119185996D01*
X221003831Y-119269794D01*
X221004947Y-119325768D01*
X221009052Y-119567822D01*
X220938932Y-119567822D01*
X220896393Y-119566038D01*
X220874476Y-119559942D01*
X220868812Y-119549706D01*
X220865821Y-119538637D01*
X220852451Y-119540754D01*
X220834233Y-119549629D01*
X220788624Y-119563233D01*
X220730007Y-119566899D01*
X220668354Y-119560903D01*
X220613638Y-119545521D01*
X220608730Y-119543386D01*
X220558723Y-119508255D01*
X220525756Y-119459419D01*
X220510587Y-119402333D01*
X220511746Y-119381824D01*
G37*
X220511746Y-119381824D02*
X220635508Y-119381824D01*
X220646413Y-119409425D01*
X220678745Y-119429204D01*
X220730910Y-119439819D01*
X220758787Y-119441228D01*
X220805247Y-119437620D01*
X220836129Y-119423597D01*
X220843664Y-119416931D01*
X220864076Y-119380666D01*
X220868812Y-119347773D01*
X220868812Y-119303763D01*
X220807513Y-119303763D01*
X220736256Y-119307395D01*
X220686276Y-119318818D01*
X220654696Y-119338824D01*
X220647626Y-119347743D01*
X220635508Y-119381824D01*
X220511746Y-119381824D01*
X220513971Y-119342456D01*
X220536663Y-119285244D01*
X220567624Y-119246580D01*
X220586376Y-119229864D01*
X220604733Y-119218878D01*
X220628619Y-119212180D01*
X220663957Y-119208326D01*
X220716669Y-119205873D01*
X220737577Y-119205168D01*
X220868812Y-119200879D01*
X220868620Y-119161158D01*
X220863537Y-119119405D01*
X220845162Y-119094158D01*
X220808039Y-119078030D01*
X220807043Y-119077742D01*
X220754410Y-119071400D01*
X220702906Y-119079684D01*
X220664630Y-119099827D01*
X220649272Y-119109773D01*
X220632730Y-119108397D01*
X220607275Y-119093987D01*
X220592328Y-119083817D01*
X220563091Y-119062088D01*
X220544980Y-119045800D01*
X220542074Y-119041137D01*
X220554040Y-119017005D01*
X220589396Y-118988185D01*
X220604753Y-118978461D01*
X220648901Y-118961714D01*
X220708398Y-118952227D01*
X220774487Y-118950095D01*
X220838411Y-118955417D01*
X220891411Y-118968290D01*
X220906731Y-118975110D01*
X220936428Y-118992974D01*
X220959220Y-119013093D01*
X220976083Y-119038962D01*
X220987998Y-119074073D01*
X220995942Y-119121920D01*
X221000894Y-119185996D01*
X221003831Y-119269794D01*
X221004947Y-119325768D01*
X221009052Y-119567822D01*
X220938932Y-119567822D01*
X220896393Y-119566038D01*
X220874476Y-119559942D01*
X220868812Y-119549706D01*
X220865821Y-119538637D01*
X220852451Y-119540754D01*
X220834233Y-119549629D01*
X220788624Y-119563233D01*
X220730007Y-119566899D01*
X220668354Y-119560903D01*
X220613638Y-119545521D01*
X220608730Y-119543386D01*
X220558723Y-119508255D01*
X220525756Y-119459419D01*
X220510587Y-119402333D01*
X220511746Y-119381824D01*
G36*
X218093518Y-118232299D02*
G01*
X218219418Y-118232299D01*
X218222885Y-118240558D01*
X218237137Y-118245113D01*
X218266530Y-118247065D01*
X218315425Y-118247517D01*
X218334252Y-118247525D01*
X218391533Y-118246843D01*
X218427859Y-118244364D01*
X218447396Y-118239443D01*
X218454310Y-118231434D01*
X218454555Y-118228862D01*
X218446664Y-118208423D01*
X218426915Y-118179789D01*
X218418425Y-118169763D01*
X218386906Y-118141408D01*
X218354051Y-118130259D01*
X218336349Y-118129327D01*
X218288461Y-118140981D01*
X218248301Y-118172285D01*
X218222827Y-118217752D01*
X218222375Y-118219233D01*
X218219418Y-118232299D01*
X218093518Y-118232299D01*
X218107608Y-118165510D01*
X218133962Y-118110025D01*
X218166193Y-118070639D01*
X218225783Y-118027931D01*
X218295832Y-118005109D01*
X218370339Y-118003046D01*
X218443301Y-118022614D01*
X218455832Y-118028514D01*
X218499201Y-118060283D01*
X218540210Y-118106646D01*
X218570832Y-118157696D01*
X218579541Y-118181166D01*
X218587488Y-118223091D01*
X218592226Y-118273757D01*
X218592801Y-118294679D01*
X218592871Y-118360693D01*
X218212917Y-118360693D01*
X218221017Y-118395273D01*
X218240896Y-118436170D01*
X218275653Y-118471514D01*
X218317002Y-118494282D01*
X218343351Y-118499010D01*
X218379084Y-118493273D01*
X218421718Y-118478882D01*
X218436201Y-118472262D01*
X218489760Y-118445513D01*
X218535467Y-118480376D01*
X218561842Y-118503955D01*
X218575876Y-118523417D01*
X218576586Y-118529129D01*
X218564049Y-118542973D01*
X218536572Y-118564012D01*
X218511634Y-118580425D01*
X218444336Y-118609930D01*
X218368890Y-118623284D01*
X218294112Y-118619812D01*
X218234505Y-118601663D01*
X218173059Y-118562784D01*
X218129392Y-118511595D01*
X218102074Y-118445367D01*
X218089678Y-118361371D01*
X218088579Y-118322936D01*
X218092978Y-118234861D01*
X218093518Y-118232299D01*
G37*
X218093518Y-118232299D02*
X218219418Y-118232299D01*
X218222885Y-118240558D01*
X218237137Y-118245113D01*
X218266530Y-118247065D01*
X218315425Y-118247517D01*
X218334252Y-118247525D01*
X218391533Y-118246843D01*
X218427859Y-118244364D01*
X218447396Y-118239443D01*
X218454310Y-118231434D01*
X218454555Y-118228862D01*
X218446664Y-118208423D01*
X218426915Y-118179789D01*
X218418425Y-118169763D01*
X218386906Y-118141408D01*
X218354051Y-118130259D01*
X218336349Y-118129327D01*
X218288461Y-118140981D01*
X218248301Y-118172285D01*
X218222827Y-118217752D01*
X218222375Y-118219233D01*
X218219418Y-118232299D01*
X218093518Y-118232299D01*
X218107608Y-118165510D01*
X218133962Y-118110025D01*
X218166193Y-118070639D01*
X218225783Y-118027931D01*
X218295832Y-118005109D01*
X218370339Y-118003046D01*
X218443301Y-118022614D01*
X218455832Y-118028514D01*
X218499201Y-118060283D01*
X218540210Y-118106646D01*
X218570832Y-118157696D01*
X218579541Y-118181166D01*
X218587488Y-118223091D01*
X218592226Y-118273757D01*
X218592801Y-118294679D01*
X218592871Y-118360693D01*
X218212917Y-118360693D01*
X218221017Y-118395273D01*
X218240896Y-118436170D01*
X218275653Y-118471514D01*
X218317002Y-118494282D01*
X218343351Y-118499010D01*
X218379084Y-118493273D01*
X218421718Y-118478882D01*
X218436201Y-118472262D01*
X218489760Y-118445513D01*
X218535467Y-118480376D01*
X218561842Y-118503955D01*
X218575876Y-118523417D01*
X218576586Y-118529129D01*
X218564049Y-118542973D01*
X218536572Y-118564012D01*
X218511634Y-118580425D01*
X218444336Y-118609930D01*
X218368890Y-118623284D01*
X218294112Y-118619812D01*
X218234505Y-118601663D01*
X218173059Y-118562784D01*
X218129392Y-118511595D01*
X218102074Y-118445367D01*
X218089678Y-118361371D01*
X218088579Y-118322936D01*
X218092978Y-118234861D01*
X218093518Y-118232299D01*
G36*
X217524060Y-118320650D02*
G01*
X217662376Y-118320650D01*
X217665903Y-118390254D01*
X217677785Y-118438569D01*
X217699980Y-118468631D01*
X217734441Y-118483471D01*
X217769258Y-118486436D01*
X217808671Y-118483028D01*
X217834829Y-118469617D01*
X217851186Y-118451896D01*
X217864063Y-118432835D01*
X217871728Y-118411601D01*
X217875139Y-118381849D01*
X217875251Y-118337236D01*
X217874103Y-118299880D01*
X217871468Y-118243604D01*
X217867544Y-118206658D01*
X217860937Y-118183223D01*
X217850251Y-118167480D01*
X217840167Y-118158380D01*
X217798030Y-118138537D01*
X217748160Y-118135332D01*
X217719524Y-118142168D01*
X217691172Y-118166464D01*
X217672391Y-118213728D01*
X217663288Y-118283624D01*
X217662376Y-118320650D01*
X217524060Y-118320650D01*
X217524060Y-118008614D01*
X217593218Y-118008614D01*
X217634740Y-118010256D01*
X217656162Y-118016087D01*
X217662374Y-118027461D01*
X217662376Y-118027798D01*
X217665258Y-118038938D01*
X217677970Y-118037673D01*
X217703243Y-118025433D01*
X217762131Y-118006707D01*
X217828385Y-118004739D01*
X217891241Y-118019184D01*
X217917753Y-118032282D01*
X217950447Y-118055106D01*
X217974275Y-118079996D01*
X217990594Y-118111249D01*
X218000760Y-118153166D01*
X218006128Y-118210044D01*
X218008056Y-118286184D01*
X218008169Y-118318917D01*
X218007839Y-118390656D01*
X218006473Y-118441927D01*
X218003500Y-118477404D01*
X217998351Y-118501763D01*
X217990457Y-118519680D01*
X217982243Y-118531902D01*
X217929813Y-118583905D01*
X217868070Y-118615184D01*
X217801464Y-118624592D01*
X217734442Y-118610980D01*
X217713208Y-118601354D01*
X217662376Y-118574859D01*
X217662376Y-118990052D01*
X217699475Y-118970868D01*
X217748357Y-118956025D01*
X217808439Y-118952222D01*
X217868436Y-118959243D01*
X217913744Y-118975013D01*
X217951325Y-119005047D01*
X217983436Y-119048024D01*
X217985850Y-119052436D01*
X217996033Y-119073221D01*
X218003470Y-119094170D01*
X218008589Y-119119548D01*
X218011819Y-119153618D01*
X218013587Y-119200641D01*
X218014323Y-119264882D01*
X218014456Y-119337176D01*
X218014456Y-119567822D01*
X217876139Y-119567822D01*
X217876139Y-119142533D01*
X217837451Y-119109979D01*
X217797262Y-119083940D01*
X217759203Y-119079205D01*
X217720934Y-119091389D01*
X217700538Y-119103320D01*
X217685358Y-119120313D01*
X217674562Y-119145995D01*
X217667317Y-119183991D01*
X217662792Y-119237926D01*
X217660156Y-119311425D01*
X217659228Y-119360347D01*
X217656089Y-119561535D01*
X217590074Y-119565336D01*
X217524060Y-119569136D01*
X217524060Y-118320650D01*
G37*
X217524060Y-118320650D02*
X217662376Y-118320650D01*
X217665903Y-118390254D01*
X217677785Y-118438569D01*
X217699980Y-118468631D01*
X217734441Y-118483471D01*
X217769258Y-118486436D01*
X217808671Y-118483028D01*
X217834829Y-118469617D01*
X217851186Y-118451896D01*
X217864063Y-118432835D01*
X217871728Y-118411601D01*
X217875139Y-118381849D01*
X217875251Y-118337236D01*
X217874103Y-118299880D01*
X217871468Y-118243604D01*
X217867544Y-118206658D01*
X217860937Y-118183223D01*
X217850251Y-118167480D01*
X217840167Y-118158380D01*
X217798030Y-118138537D01*
X217748160Y-118135332D01*
X217719524Y-118142168D01*
X217691172Y-118166464D01*
X217672391Y-118213728D01*
X217663288Y-118283624D01*
X217662376Y-118320650D01*
X217524060Y-118320650D01*
X217524060Y-118008614D01*
X217593218Y-118008614D01*
X217634740Y-118010256D01*
X217656162Y-118016087D01*
X217662374Y-118027461D01*
X217662376Y-118027798D01*
X217665258Y-118038938D01*
X217677970Y-118037673D01*
X217703243Y-118025433D01*
X217762131Y-118006707D01*
X217828385Y-118004739D01*
X217891241Y-118019184D01*
X217917753Y-118032282D01*
X217950447Y-118055106D01*
X217974275Y-118079996D01*
X217990594Y-118111249D01*
X218000760Y-118153166D01*
X218006128Y-118210044D01*
X218008056Y-118286184D01*
X218008169Y-118318917D01*
X218007839Y-118390656D01*
X218006473Y-118441927D01*
X218003500Y-118477404D01*
X217998351Y-118501763D01*
X217990457Y-118519680D01*
X217982243Y-118531902D01*
X217929813Y-118583905D01*
X217868070Y-118615184D01*
X217801464Y-118624592D01*
X217734442Y-118610980D01*
X217713208Y-118601354D01*
X217662376Y-118574859D01*
X217662376Y-118990052D01*
X217699475Y-118970868D01*
X217748357Y-118956025D01*
X217808439Y-118952222D01*
X217868436Y-118959243D01*
X217913744Y-118975013D01*
X217951325Y-119005047D01*
X217983436Y-119048024D01*
X217985850Y-119052436D01*
X217996033Y-119073221D01*
X218003470Y-119094170D01*
X218008589Y-119119548D01*
X218011819Y-119153618D01*
X218013587Y-119200641D01*
X218014323Y-119264882D01*
X218014456Y-119337176D01*
X218014456Y-119567822D01*
X217876139Y-119567822D01*
X217876139Y-119142533D01*
X217837451Y-119109979D01*
X217797262Y-119083940D01*
X217759203Y-119079205D01*
X217720934Y-119091389D01*
X217700538Y-119103320D01*
X217685358Y-119120313D01*
X217674562Y-119145995D01*
X217667317Y-119183991D01*
X217662792Y-119237926D01*
X217660156Y-119311425D01*
X217659228Y-119360347D01*
X217656089Y-119561535D01*
X217590074Y-119565336D01*
X217524060Y-119569136D01*
X217524060Y-118320650D01*
G36*
X221599460Y-118008030D02*
G01*
X221642711Y-118021245D01*
X221670558Y-118037941D01*
X221679629Y-118051145D01*
X221677132Y-118066797D01*
X221660931Y-118091385D01*
X221647232Y-118108800D01*
X221618992Y-118140283D01*
X221597775Y-118153529D01*
X221579688Y-118152664D01*
X221526035Y-118139010D01*
X221486630Y-118139630D01*
X221454632Y-118155104D01*
X221443890Y-118164161D01*
X221409505Y-118196027D01*
X221409505Y-118612179D01*
X221271188Y-118612179D01*
X221271188Y-118008614D01*
X221340347Y-118008614D01*
X221381869Y-118010256D01*
X221403291Y-118016087D01*
X221409502Y-118027461D01*
X221409505Y-118027798D01*
X221412439Y-118039713D01*
X221425704Y-118038159D01*
X221444084Y-118029563D01*
X221482046Y-118013568D01*
X221512872Y-118003945D01*
X221552536Y-118001478D01*
X221599460Y-118008030D01*
G37*
X221599460Y-118008030D02*
X221642711Y-118021245D01*
X221670558Y-118037941D01*
X221679629Y-118051145D01*
X221677132Y-118066797D01*
X221660931Y-118091385D01*
X221647232Y-118108800D01*
X221618992Y-118140283D01*
X221597775Y-118153529D01*
X221579688Y-118152664D01*
X221526035Y-118139010D01*
X221486630Y-118139630D01*
X221454632Y-118155104D01*
X221443890Y-118164161D01*
X221409505Y-118196027D01*
X221409505Y-118612179D01*
X221271188Y-118612179D01*
X221271188Y-118008614D01*
X221340347Y-118008614D01*
X221381869Y-118010256D01*
X221403291Y-118016087D01*
X221409502Y-118027461D01*
X221409505Y-118027798D01*
X221412439Y-118039713D01*
X221425704Y-118038159D01*
X221444084Y-118029563D01*
X221482046Y-118013568D01*
X221512872Y-118003945D01*
X221552536Y-118001478D01*
X221599460Y-118008030D01*
G36*
X219814017Y-118006452D02*
G01*
X219861634Y-118015482D01*
X219911034Y-118034370D01*
X219916312Y-118036777D01*
X219953774Y-118056476D01*
X219979717Y-118074781D01*
X219988103Y-118086508D01*
X219980117Y-118105632D01*
X219960720Y-118133850D01*
X219952110Y-118144384D01*
X219916628Y-118185847D01*
X219870885Y-118158858D01*
X219827350Y-118140878D01*
X219777050Y-118131267D01*
X219728812Y-118130660D01*
X219691467Y-118139691D01*
X219682505Y-118145327D01*
X219665437Y-118171171D01*
X219663363Y-118200941D01*
X219676134Y-118224197D01*
X219683688Y-118228708D01*
X219706325Y-118234309D01*
X219746115Y-118240892D01*
X219795166Y-118247183D01*
X219804215Y-118248170D01*
X219882996Y-118261798D01*
X219940136Y-118284946D01*
X219978030Y-118319752D01*
X219999079Y-118368354D01*
X220005635Y-118427718D01*
X219996577Y-118495198D01*
X219967164Y-118548188D01*
X219917278Y-118586783D01*
X219846800Y-118611081D01*
X219768565Y-118620667D01*
X219704766Y-118620552D01*
X219653016Y-118611845D01*
X219617673Y-118599825D01*
X219573017Y-118578880D01*
X219531747Y-118554574D01*
X219517079Y-118543876D01*
X219479357Y-118513084D01*
X219524852Y-118467049D01*
X219570347Y-118421013D01*
X219622072Y-118455243D01*
X219673952Y-118480952D01*
X219729351Y-118494399D01*
X219782605Y-118495818D01*
X219828049Y-118485443D01*
X219860016Y-118463507D01*
X219870338Y-118444998D01*
X219868789Y-118415314D01*
X219843140Y-118392615D01*
X219793460Y-118376940D01*
X219739031Y-118369695D01*
X219655264Y-118355873D01*
X219593033Y-118329796D01*
X219551507Y-118290699D01*
X219529853Y-118237820D01*
X219526853Y-118175126D01*
X219541671Y-118109642D01*
X219575454Y-118060144D01*
X219628505Y-118026408D01*
X219701126Y-118008207D01*
X219754928Y-118004639D01*
X219814017Y-118006452D01*
G37*
X219814017Y-118006452D02*
X219861634Y-118015482D01*
X219911034Y-118034370D01*
X219916312Y-118036777D01*
X219953774Y-118056476D01*
X219979717Y-118074781D01*
X219988103Y-118086508D01*
X219980117Y-118105632D01*
X219960720Y-118133850D01*
X219952110Y-118144384D01*
X219916628Y-118185847D01*
X219870885Y-118158858D01*
X219827350Y-118140878D01*
X219777050Y-118131267D01*
X219728812Y-118130660D01*
X219691467Y-118139691D01*
X219682505Y-118145327D01*
X219665437Y-118171171D01*
X219663363Y-118200941D01*
X219676134Y-118224197D01*
X219683688Y-118228708D01*
X219706325Y-118234309D01*
X219746115Y-118240892D01*
X219795166Y-118247183D01*
X219804215Y-118248170D01*
X219882996Y-118261798D01*
X219940136Y-118284946D01*
X219978030Y-118319752D01*
X219999079Y-118368354D01*
X220005635Y-118427718D01*
X219996577Y-118495198D01*
X219967164Y-118548188D01*
X219917278Y-118586783D01*
X219846800Y-118611081D01*
X219768565Y-118620667D01*
X219704766Y-118620552D01*
X219653016Y-118611845D01*
X219617673Y-118599825D01*
X219573017Y-118578880D01*
X219531747Y-118554574D01*
X219517079Y-118543876D01*
X219479357Y-118513084D01*
X219524852Y-118467049D01*
X219570347Y-118421013D01*
X219622072Y-118455243D01*
X219673952Y-118480952D01*
X219729351Y-118494399D01*
X219782605Y-118495818D01*
X219828049Y-118485443D01*
X219860016Y-118463507D01*
X219870338Y-118444998D01*
X219868789Y-118415314D01*
X219843140Y-118392615D01*
X219793460Y-118376940D01*
X219739031Y-118369695D01*
X219655264Y-118355873D01*
X219593033Y-118329796D01*
X219551507Y-118290699D01*
X219529853Y-118237820D01*
X219526853Y-118175126D01*
X219541671Y-118109642D01*
X219575454Y-118060144D01*
X219628505Y-118026408D01*
X219701126Y-118008207D01*
X219754928Y-118004639D01*
X219814017Y-118006452D01*
G36*
X219109367Y-119266155D02*
G01*
X219246721Y-119266155D01*
X219249903Y-119320194D01*
X219257141Y-119364735D01*
X219266940Y-119389888D01*
X219304011Y-119424260D01*
X219348026Y-119436582D01*
X219393416Y-119426618D01*
X219432203Y-119396895D01*
X219446892Y-119376905D01*
X219455481Y-119353050D01*
X219459504Y-119318230D01*
X219460495Y-119265930D01*
X219458722Y-119214139D01*
X219454037Y-119168634D01*
X219447397Y-119138181D01*
X219446290Y-119135452D01*
X219419509Y-119103000D01*
X219380421Y-119085183D01*
X219336685Y-119082306D01*
X219295962Y-119094674D01*
X219265913Y-119122593D01*
X219262796Y-119128148D01*
X219253039Y-119162022D01*
X219247723Y-119210728D01*
X219246721Y-119266155D01*
X219109367Y-119266155D01*
X219109432Y-119245540D01*
X219110336Y-119212563D01*
X219116486Y-119130981D01*
X219129267Y-119069730D01*
X219150529Y-119024449D01*
X219182122Y-118990779D01*
X219212793Y-118971014D01*
X219255646Y-118957120D01*
X219308944Y-118952354D01*
X219363520Y-118956236D01*
X219410208Y-118968282D01*
X219434876Y-118982693D01*
X219460495Y-119005878D01*
X219460495Y-118712773D01*
X219598812Y-118712773D01*
X219598812Y-119567822D01*
X219529654Y-119567822D01*
X219489512Y-119566645D01*
X219468606Y-119561772D01*
X219461078Y-119551186D01*
X219460495Y-119544029D01*
X219459226Y-119529676D01*
X219451221Y-119526923D01*
X219430185Y-119535771D01*
X219413827Y-119544029D01*
X219351023Y-119563597D01*
X219282752Y-119564729D01*
X219227248Y-119550135D01*
X219175562Y-119514877D01*
X219136162Y-119462835D01*
X219114587Y-119401450D01*
X219114038Y-119398018D01*
X219110833Y-119360571D01*
X219109239Y-119306813D01*
X219109367Y-119266155D01*
G37*
X219109367Y-119266155D02*
X219246721Y-119266155D01*
X219249903Y-119320194D01*
X219257141Y-119364735D01*
X219266940Y-119389888D01*
X219304011Y-119424260D01*
X219348026Y-119436582D01*
X219393416Y-119426618D01*
X219432203Y-119396895D01*
X219446892Y-119376905D01*
X219455481Y-119353050D01*
X219459504Y-119318230D01*
X219460495Y-119265930D01*
X219458722Y-119214139D01*
X219454037Y-119168634D01*
X219447397Y-119138181D01*
X219446290Y-119135452D01*
X219419509Y-119103000D01*
X219380421Y-119085183D01*
X219336685Y-119082306D01*
X219295962Y-119094674D01*
X219265913Y-119122593D01*
X219262796Y-119128148D01*
X219253039Y-119162022D01*
X219247723Y-119210728D01*
X219246721Y-119266155D01*
X219109367Y-119266155D01*
X219109432Y-119245540D01*
X219110336Y-119212563D01*
X219116486Y-119130981D01*
X219129267Y-119069730D01*
X219150529Y-119024449D01*
X219182122Y-118990779D01*
X219212793Y-118971014D01*
X219255646Y-118957120D01*
X219308944Y-118952354D01*
X219363520Y-118956236D01*
X219410208Y-118968282D01*
X219434876Y-118982693D01*
X219460495Y-119005878D01*
X219460495Y-118712773D01*
X219598812Y-118712773D01*
X219598812Y-119567822D01*
X219529654Y-119567822D01*
X219489512Y-119566645D01*
X219468606Y-119561772D01*
X219461078Y-119551186D01*
X219460495Y-119544029D01*
X219459226Y-119529676D01*
X219451221Y-119526923D01*
X219430185Y-119535771D01*
X219413827Y-119544029D01*
X219351023Y-119563597D01*
X219282752Y-119564729D01*
X219227248Y-119550135D01*
X219175562Y-119514877D01*
X219136162Y-119462835D01*
X219114587Y-119401450D01*
X219114038Y-119398018D01*
X219110833Y-119360571D01*
X219109239Y-119306813D01*
X219109367Y-119266155D01*
G36*
X221435255Y-118951486D02*
G01*
X221483595Y-118961015D01*
X221511114Y-118975125D01*
X221540064Y-118998568D01*
X221498876Y-119050571D01*
X221473482Y-119082064D01*
X221456238Y-119097428D01*
X221439102Y-119099776D01*
X221414027Y-119092217D01*
X221402257Y-119087941D01*
X221354270Y-119081631D01*
X221310324Y-119095156D01*
X221278060Y-119125710D01*
X221272819Y-119135452D01*
X221267112Y-119161258D01*
X221262706Y-119208817D01*
X221259811Y-119274758D01*
X221258631Y-119355710D01*
X221258614Y-119367226D01*
X221258614Y-119567822D01*
X221120297Y-119567822D01*
X221120297Y-118951683D01*
X221189456Y-118951683D01*
X221229333Y-118952725D01*
X221250107Y-118957358D01*
X221257789Y-118967849D01*
X221258614Y-118977745D01*
X221258614Y-119003806D01*
X221291745Y-118977745D01*
X221329735Y-118959965D01*
X221380770Y-118951174D01*
X221435255Y-118951486D01*
G37*
X221435255Y-118951486D02*
X221483595Y-118961015D01*
X221511114Y-118975125D01*
X221540064Y-118998568D01*
X221498876Y-119050571D01*
X221473482Y-119082064D01*
X221456238Y-119097428D01*
X221439102Y-119099776D01*
X221414027Y-119092217D01*
X221402257Y-119087941D01*
X221354270Y-119081631D01*
X221310324Y-119095156D01*
X221278060Y-119125710D01*
X221272819Y-119135452D01*
X221267112Y-119161258D01*
X221262706Y-119208817D01*
X221259811Y-119274758D01*
X221258631Y-119355710D01*
X221258614Y-119367226D01*
X221258614Y-119567822D01*
X221120297Y-119567822D01*
X221120297Y-118951683D01*
X221189456Y-118951683D01*
X221229333Y-118952725D01*
X221250107Y-118957358D01*
X221257789Y-118967849D01*
X221258614Y-118977745D01*
X221258614Y-119003806D01*
X221291745Y-118977745D01*
X221329735Y-118959965D01*
X221380770Y-118951174D01*
X221435255Y-118951486D01*
G36*
X218094045Y-119371566D02*
G01*
X218215644Y-119371566D01*
X218226274Y-119404161D01*
X218243590Y-119422505D01*
X218278348Y-119436379D01*
X218324227Y-119441917D01*
X218371012Y-119439191D01*
X218408486Y-119428274D01*
X218418985Y-119421269D01*
X218437332Y-119388904D01*
X218441980Y-119352111D01*
X218441980Y-119303763D01*
X218372418Y-119303763D01*
X218306333Y-119308850D01*
X218256236Y-119323263D01*
X218225071Y-119345729D01*
X218215644Y-119371566D01*
X218094045Y-119371566D01*
X218096013Y-119329647D01*
X218119290Y-119273845D01*
X218163052Y-119231647D01*
X218169101Y-119227808D01*
X218195093Y-119215309D01*
X218227265Y-119207740D01*
X218272240Y-119204061D01*
X218325669Y-119203216D01*
X218441980Y-119203169D01*
X218441980Y-119154411D01*
X218437047Y-119116581D01*
X218424457Y-119091236D01*
X218422983Y-119089887D01*
X218394966Y-119078800D01*
X218352674Y-119074503D01*
X218305936Y-119076615D01*
X218264582Y-119084756D01*
X218240043Y-119096965D01*
X218226747Y-119106746D01*
X218212706Y-119108613D01*
X218193329Y-119100600D01*
X218164024Y-119080739D01*
X218120197Y-119047063D01*
X218116175Y-119043909D01*
X218118236Y-119032236D01*
X218135432Y-119012822D01*
X218161567Y-118991248D01*
X218190448Y-118973096D01*
X218199522Y-118968809D01*
X218232620Y-118960256D01*
X218281120Y-118954155D01*
X218335305Y-118951708D01*
X218337839Y-118951703D01*
X218415790Y-118956555D01*
X218474945Y-118972339D01*
X218519977Y-119000948D01*
X218551754Y-119038419D01*
X218561634Y-119054411D01*
X218568927Y-119071163D01*
X218574026Y-119092592D01*
X218577321Y-119122616D01*
X218579203Y-119165154D01*
X218580063Y-119224122D01*
X218580293Y-119303440D01*
X218580297Y-119324484D01*
X218580297Y-119567822D01*
X218519941Y-119567822D01*
X218481443Y-119565126D01*
X218452977Y-119558295D01*
X218445845Y-119554083D01*
X218426348Y-119546813D01*
X218406434Y-119554083D01*
X218373647Y-119563160D01*
X218326022Y-119566813D01*
X218273236Y-119565228D01*
X218224964Y-119558589D01*
X218196782Y-119550072D01*
X218142247Y-119515063D01*
X218108165Y-119466479D01*
X218092843Y-119401882D01*
X218092701Y-119400223D01*
X218094045Y-119371566D01*
G37*
X218094045Y-119371566D02*
X218215644Y-119371566D01*
X218226274Y-119404161D01*
X218243590Y-119422505D01*
X218278348Y-119436379D01*
X218324227Y-119441917D01*
X218371012Y-119439191D01*
X218408486Y-119428274D01*
X218418985Y-119421269D01*
X218437332Y-119388904D01*
X218441980Y-119352111D01*
X218441980Y-119303763D01*
X218372418Y-119303763D01*
X218306333Y-119308850D01*
X218256236Y-119323263D01*
X218225071Y-119345729D01*
X218215644Y-119371566D01*
X218094045Y-119371566D01*
X218096013Y-119329647D01*
X218119290Y-119273845D01*
X218163052Y-119231647D01*
X218169101Y-119227808D01*
X218195093Y-119215309D01*
X218227265Y-119207740D01*
X218272240Y-119204061D01*
X218325669Y-119203216D01*
X218441980Y-119203169D01*
X218441980Y-119154411D01*
X218437047Y-119116581D01*
X218424457Y-119091236D01*
X218422983Y-119089887D01*
X218394966Y-119078800D01*
X218352674Y-119074503D01*
X218305936Y-119076615D01*
X218264582Y-119084756D01*
X218240043Y-119096965D01*
X218226747Y-119106746D01*
X218212706Y-119108613D01*
X218193329Y-119100600D01*
X218164024Y-119080739D01*
X218120197Y-119047063D01*
X218116175Y-119043909D01*
X218118236Y-119032236D01*
X218135432Y-119012822D01*
X218161567Y-118991248D01*
X218190448Y-118973096D01*
X218199522Y-118968809D01*
X218232620Y-118960256D01*
X218281120Y-118954155D01*
X218335305Y-118951708D01*
X218337839Y-118951703D01*
X218415790Y-118956555D01*
X218474945Y-118972339D01*
X218519977Y-119000948D01*
X218551754Y-119038419D01*
X218561634Y-119054411D01*
X218568927Y-119071163D01*
X218574026Y-119092592D01*
X218577321Y-119122616D01*
X218579203Y-119165154D01*
X218580063Y-119224122D01*
X218580293Y-119303440D01*
X218580297Y-119324484D01*
X218580297Y-119567822D01*
X218519941Y-119567822D01*
X218481443Y-119565126D01*
X218452977Y-119558295D01*
X218445845Y-119554083D01*
X218426348Y-119546813D01*
X218406434Y-119554083D01*
X218373647Y-119563160D01*
X218326022Y-119566813D01*
X218273236Y-119565228D01*
X218224964Y-119558589D01*
X218196782Y-119550072D01*
X218142247Y-119515063D01*
X218108165Y-119466479D01*
X218092843Y-119401882D01*
X218092701Y-119400223D01*
X218094045Y-119371566D01*
G36*
X220081524Y-118954237D02*
G01*
X220131255Y-118957971D01*
X220261291Y-119347773D01*
X220281678Y-119278614D01*
X220293946Y-119235874D01*
X220310085Y-119178115D01*
X220327512Y-119114625D01*
X220336726Y-119080570D01*
X220371388Y-118951683D01*
X220514391Y-118951683D01*
X220471646Y-119086857D01*
X220450596Y-119153342D01*
X220425167Y-119233539D01*
X220398610Y-119317193D01*
X220374902Y-119391782D01*
X220320902Y-119561535D01*
X220262598Y-119565328D01*
X220204295Y-119569122D01*
X220172679Y-119464734D01*
X220153182Y-119399889D01*
X220131904Y-119328400D01*
X220113308Y-119265263D01*
X220112574Y-119262750D01*
X220098684Y-119219969D01*
X220086429Y-119190779D01*
X220077846Y-119179741D01*
X220076082Y-119181018D01*
X220069891Y-119198130D01*
X220058128Y-119234787D01*
X220042225Y-119286378D01*
X220023614Y-119348294D01*
X220013543Y-119382352D01*
X219959007Y-119567822D01*
X219843264Y-119567822D01*
X219750737Y-119275471D01*
X219724744Y-119193462D01*
X219701066Y-119118987D01*
X219680820Y-119055544D01*
X219665126Y-119006632D01*
X219655102Y-118975749D01*
X219652055Y-118966726D01*
X219654467Y-118957487D01*
X219673408Y-118953441D01*
X219712823Y-118953846D01*
X219718993Y-118954152D01*
X219792086Y-118957971D01*
X219839957Y-119134010D01*
X219857553Y-119198211D01*
X219873277Y-119254649D01*
X219885746Y-119298422D01*
X219893574Y-119324630D01*
X219895020Y-119328903D01*
X219901014Y-119323990D01*
X219913101Y-119298532D01*
X219929893Y-119255997D01*
X219950003Y-119199850D01*
X219967003Y-119149130D01*
X220031794Y-118950504D01*
X220081524Y-118954237D01*
G37*
X220081524Y-118954237D02*
X220131255Y-118957971D01*
X220261291Y-119347773D01*
X220281678Y-119278614D01*
X220293946Y-119235874D01*
X220310085Y-119178115D01*
X220327512Y-119114625D01*
X220336726Y-119080570D01*
X220371388Y-118951683D01*
X220514391Y-118951683D01*
X220471646Y-119086857D01*
X220450596Y-119153342D01*
X220425167Y-119233539D01*
X220398610Y-119317193D01*
X220374902Y-119391782D01*
X220320902Y-119561535D01*
X220262598Y-119565328D01*
X220204295Y-119569122D01*
X220172679Y-119464734D01*
X220153182Y-119399889D01*
X220131904Y-119328400D01*
X220113308Y-119265263D01*
X220112574Y-119262750D01*
X220098684Y-119219969D01*
X220086429Y-119190779D01*
X220077846Y-119179741D01*
X220076082Y-119181018D01*
X220069891Y-119198130D01*
X220058128Y-119234787D01*
X220042225Y-119286378D01*
X220023614Y-119348294D01*
X220013543Y-119382352D01*
X219959007Y-119567822D01*
X219843264Y-119567822D01*
X219750737Y-119275471D01*
X219724744Y-119193462D01*
X219701066Y-119118987D01*
X219680820Y-119055544D01*
X219665126Y-119006632D01*
X219655102Y-118975749D01*
X219652055Y-118966726D01*
X219654467Y-118957487D01*
X219673408Y-118953441D01*
X219712823Y-118953846D01*
X219718993Y-118954152D01*
X219792086Y-118957971D01*
X219839957Y-119134010D01*
X219857553Y-119198211D01*
X219873277Y-119254649D01*
X219885746Y-119298422D01*
X219893574Y-119324630D01*
X219895020Y-119328903D01*
X219901014Y-119323990D01*
X219913101Y-119298532D01*
X219929893Y-119255997D01*
X219950003Y-119199850D01*
X219967003Y-119149130D01*
X220031794Y-118950504D01*
X220081524Y-118954237D01*
G36*
X216934328Y-118309219D02*
G01*
X217060045Y-118309219D01*
X217061274Y-118344770D01*
X217065734Y-118392094D01*
X217073603Y-118422465D01*
X217087793Y-118444072D01*
X217101083Y-118456694D01*
X217148198Y-118483122D01*
X217197495Y-118486653D01*
X217243407Y-118467639D01*
X217266362Y-118446331D01*
X217282904Y-118424859D01*
X217292579Y-118404313D01*
X217296826Y-118377574D01*
X217297080Y-118337523D01*
X217295772Y-118300638D01*
X217292957Y-118247947D01*
X217288495Y-118213772D01*
X217280452Y-118191480D01*
X217266897Y-118174442D01*
X217256155Y-118164703D01*
X217211223Y-118139123D01*
X217162751Y-118137847D01*
X217122106Y-118152999D01*
X217087433Y-118184642D01*
X217066776Y-118236620D01*
X217060045Y-118309219D01*
X216934328Y-118309219D01*
X216933521Y-118266621D01*
X216936052Y-118208056D01*
X216943638Y-118164007D01*
X216957319Y-118129248D01*
X216978135Y-118098551D01*
X216985853Y-118089436D01*
X217034111Y-118044021D01*
X217085872Y-118017493D01*
X217149172Y-118006379D01*
X217180039Y-118005471D01*
X217261739Y-118015148D01*
X217327521Y-118044231D01*
X217377460Y-118092793D01*
X217411626Y-118160908D01*
X217430093Y-118248651D01*
X217431417Y-118262351D01*
X217432454Y-118358939D01*
X217419007Y-118443602D01*
X217391892Y-118512221D01*
X217377373Y-118534294D01*
X217326799Y-118581011D01*
X217262391Y-118611268D01*
X217190334Y-118623824D01*
X217116815Y-118617439D01*
X217060928Y-118597772D01*
X217012868Y-118564629D01*
X216973588Y-118521175D01*
X216972908Y-118520158D01*
X216956956Y-118493338D01*
X216946590Y-118466368D01*
X216940312Y-118432332D01*
X216936627Y-118384310D01*
X216935003Y-118344931D01*
X216934328Y-118309219D01*
G37*
X216934328Y-118309219D02*
X217060045Y-118309219D01*
X217061274Y-118344770D01*
X217065734Y-118392094D01*
X217073603Y-118422465D01*
X217087793Y-118444072D01*
X217101083Y-118456694D01*
X217148198Y-118483122D01*
X217197495Y-118486653D01*
X217243407Y-118467639D01*
X217266362Y-118446331D01*
X217282904Y-118424859D01*
X217292579Y-118404313D01*
X217296826Y-118377574D01*
X217297080Y-118337523D01*
X217295772Y-118300638D01*
X217292957Y-118247947D01*
X217288495Y-118213772D01*
X217280452Y-118191480D01*
X217266897Y-118174442D01*
X217256155Y-118164703D01*
X217211223Y-118139123D01*
X217162751Y-118137847D01*
X217122106Y-118152999D01*
X217087433Y-118184642D01*
X217066776Y-118236620D01*
X217060045Y-118309219D01*
X216934328Y-118309219D01*
X216933521Y-118266621D01*
X216936052Y-118208056D01*
X216943638Y-118164007D01*
X216957319Y-118129248D01*
X216978135Y-118098551D01*
X216985853Y-118089436D01*
X217034111Y-118044021D01*
X217085872Y-118017493D01*
X217149172Y-118006379D01*
X217180039Y-118005471D01*
X217261739Y-118015148D01*
X217327521Y-118044231D01*
X217377460Y-118092793D01*
X217411626Y-118160908D01*
X217430093Y-118248651D01*
X217431417Y-118262351D01*
X217432454Y-118358939D01*
X217419007Y-118443602D01*
X217391892Y-118512221D01*
X217377373Y-118534294D01*
X217326799Y-118581011D01*
X217262391Y-118611268D01*
X217190334Y-118623824D01*
X217116815Y-118617439D01*
X217060928Y-118597772D01*
X217012868Y-118564629D01*
X216973588Y-118521175D01*
X216972908Y-118520158D01*
X216956956Y-118493338D01*
X216946590Y-118466368D01*
X216940312Y-118432332D01*
X216936627Y-118384310D01*
X216935003Y-118344931D01*
X216934328Y-118309219D01*
D12*
%TO.C,U1*%
X209275000Y-111120000D02*
X209275000Y-100880000D01*
X209275000Y-107850000D02*
X210785000Y-107850000D01*
X209275000Y-104149000D02*
X210785000Y-104149000D01*
X209275000Y-111120000D02*
X213916000Y-111120000D01*
X213916000Y-111120000D02*
X213916000Y-100880000D01*
X209275000Y-100880000D02*
X213916000Y-100880000D01*
X210785000Y-111120000D02*
X210785000Y-100880000D01*
%TO.C,R2*%
X210730000Y-99320000D02*
X214570000Y-99320000D01*
X210730000Y-97480000D02*
X214570000Y-97480000D01*
%TO.C,R1*%
X184620000Y-113680000D02*
X180780000Y-113680000D01*
X184620000Y-115520000D02*
X180780000Y-115520000D01*
%TO.C,J2*%
X216540000Y-101090000D02*
X222600000Y-101090000D01*
X229760000Y-111310000D02*
X226700000Y-111310000D01*
X216350000Y-107200000D02*
X216350000Y-105200000D01*
X229760000Y-101090000D02*
X229760000Y-111310000D01*
X216540000Y-111310000D02*
X216540000Y-108500000D01*
X216540000Y-103900000D02*
X216540000Y-101090000D01*
X222600000Y-111310000D02*
X216540000Y-111310000D01*
X226700000Y-101090000D02*
X229760000Y-101090000D01*
%TO.C,J1*%
X184010000Y-109710000D02*
X177950000Y-109710000D01*
X170790000Y-99490000D02*
X173850000Y-99490000D01*
X184200000Y-103600000D02*
X184200000Y-105600000D01*
X170790000Y-109710000D02*
X170790000Y-99490000D01*
X184010000Y-99490000D02*
X184010000Y-102300000D01*
X184010000Y-106900000D02*
X184010000Y-109710000D01*
X177950000Y-99490000D02*
X184010000Y-99490000D01*
X173850000Y-109710000D02*
X170790000Y-109710000D01*
%TO.C,D2*%
X223015000Y-98836000D02*
X223015000Y-98680000D01*
X223015000Y-96520000D02*
X223015000Y-96364000D01*
X220413871Y-98679836D02*
G75*
G03*
X222495960Y-98679999I1041129J1079836D01*
G01*
X223014999Y-96364485D02*
G75*
G03*
X219782666Y-96521392I-1559999J-1235515D01*
G01*
X222495960Y-96520001D02*
G75*
G03*
X220413871Y-96520164I-1040960J-1079999D01*
G01*
X219782666Y-98678608D02*
G75*
G03*
X223014999Y-98835515I1672334J1078608D01*
G01*
%TO.C,D1*%
X174510000Y-112264000D02*
X174510000Y-112420000D01*
X174510000Y-114580000D02*
X174510000Y-114736000D01*
X177111129Y-112420164D02*
G75*
G03*
X175029040Y-112420001I-1041129J-1079836D01*
G01*
X174510001Y-114735515D02*
G75*
G03*
X177742334Y-114578608I1559999J1235515D01*
G01*
X175029040Y-114579999D02*
G75*
G03*
X177111129Y-114579836I1040960J1079999D01*
G01*
X177742334Y-112421392D02*
G75*
G03*
X174510001Y-112264485I-1672334J-1078608D01*
G01*
%TO.C,C3*%
X196180000Y-114982500D02*
X203420000Y-114982500D01*
X191430000Y-110412500D02*
X192930000Y-110412500D01*
X195430000Y-110992500D02*
X196180000Y-110242500D01*
X203420000Y-110242500D02*
X203420000Y-114982500D01*
X193180000Y-110242500D02*
X193180000Y-114982500D01*
X194680000Y-110242500D02*
X195430000Y-110992500D01*
X193180000Y-110242500D02*
X194680000Y-110242500D01*
X194680000Y-114982500D02*
X195430000Y-114232500D01*
X195430000Y-114232500D02*
X196180000Y-114982500D01*
X196180000Y-110242500D02*
X203420000Y-110242500D01*
X204560000Y-112612500D02*
X203420000Y-112612500D01*
X193180000Y-114982500D02*
X194680000Y-114982500D01*
X192180000Y-109662500D02*
X192180000Y-111162500D01*
X192040000Y-112612500D02*
X193180000Y-112612500D01*
%TO.C,C2*%
X196180000Y-108447500D02*
X203420000Y-108447500D01*
X191430000Y-103877500D02*
X192930000Y-103877500D01*
X195430000Y-104457500D02*
X196180000Y-103707500D01*
X203420000Y-103707500D02*
X203420000Y-108447500D01*
X193180000Y-103707500D02*
X193180000Y-108447500D01*
X194680000Y-103707500D02*
X195430000Y-104457500D01*
X193180000Y-103707500D02*
X194680000Y-103707500D01*
X194680000Y-108447500D02*
X195430000Y-107697500D01*
X195430000Y-107697500D02*
X196180000Y-108447500D01*
X196180000Y-103707500D02*
X203420000Y-103707500D01*
X204560000Y-106077500D02*
X203420000Y-106077500D01*
X193180000Y-108447500D02*
X194680000Y-108447500D01*
X192180000Y-103127500D02*
X192180000Y-104627500D01*
X192040000Y-106077500D02*
X193180000Y-106077500D01*
%TO.C,C1*%
X196180000Y-101912500D02*
X203420000Y-101912500D01*
X191430000Y-97342500D02*
X192930000Y-97342500D01*
X195430000Y-97922500D02*
X196180000Y-97172500D01*
X203420000Y-97172500D02*
X203420000Y-101912500D01*
X193180000Y-97172500D02*
X193180000Y-101912500D01*
X194680000Y-97172500D02*
X195430000Y-97922500D01*
X193180000Y-97172500D02*
X194680000Y-97172500D01*
X194680000Y-101912500D02*
X195430000Y-101162500D01*
X195430000Y-101162500D02*
X196180000Y-101912500D01*
X196180000Y-97172500D02*
X203420000Y-97172500D01*
X204560000Y-99542500D02*
X203420000Y-99542500D01*
X193180000Y-101912500D02*
X194680000Y-101912500D01*
X192180000Y-96592500D02*
X192180000Y-98092500D01*
X192040000Y-99542500D02*
X193180000Y-99542500D01*
%TD*%
M02*
